<svg width="33" height="32" viewBox="0 0 33 32" fill="none" xmlns="http://www.w3.org/2000/svg">
<path d="M32.4221 29.1292C32.043 27.6371 30.5067 26.7299 28.9908 27.103C28.9766 27.1066 28.9625 27.1101 28.9484 27.1138L28.4031 27.257L26.454 20.7627C26.5133 20.728 26.5731 20.6934 26.6313 20.6576C26.6894 20.6218 26.7375 20.5976 26.7879 20.564C26.9428 20.4622 27.0888 20.3499 27.2353 20.2337C27.2733 20.2034 27.3142 20.1786 27.3516 20.1462C27.4942 20.0284 27.6285 19.9006 27.761 19.7713C27.7957 19.7377 27.8332 19.7069 27.8673 19.6722C27.9942 19.5423 28.1117 19.4041 28.228 19.2637C28.2616 19.2235 28.2979 19.1855 28.3309 19.1443C28.4428 19.0039 28.5418 18.8563 28.6408 18.7072C28.6721 18.6598 28.7062 18.6152 28.7364 18.5668C28.8326 18.4132 28.9187 18.253 29.0021 18.0912C29.0222 18.0521 29.0468 18.0157 29.0664 17.9761C29.0708 17.9667 29.0736 17.9574 29.0781 17.948C29.0955 17.9122 29.1173 17.8792 29.134 17.8429C29.2 17.7008 29.2515 17.5544 29.3063 17.4091C29.3197 17.3733 29.3354 17.3392 29.3482 17.3034C29.4198 17.1041 29.4791 16.9021 29.53 16.6978C29.535 16.6791 29.5406 16.661 29.5451 16.6428C29.5971 16.4273 29.6377 16.2094 29.667 15.9899L29.6704 15.9668C29.6995 15.744 29.7168 15.5198 29.7224 15.2952V15.2797C29.7269 15.0593 29.72 14.8389 29.7017 14.6191C29.7017 14.6076 29.7017 14.596 29.7017 14.585C29.683 14.3712 29.6533 14.1584 29.6128 13.9475C29.6094 13.9277 29.6066 13.9079 29.6022 13.8881C29.5619 13.6827 29.5099 13.4796 29.4489 13.2776C29.4417 13.2534 29.4349 13.2291 29.4271 13.2055C29.3628 13.0019 29.2881 12.8016 29.2034 12.6054C29.1989 12.5939 29.1956 12.5823 29.1911 12.5707L29.1866 12.5658C29.1486 12.4766 29.1173 12.3858 29.0748 12.2977L25.1061 4.70299C24.9858 4.47247 24.7184 4.35576 24.4641 4.42279L16.4261 6.53285L16.7785 2.80321C16.8035 2.53602 16.6291 2.28994 16.3657 2.22079L7.97652 0.0187853C7.72219 -0.0482381 7.45479 0.0684679 7.33447 0.29899L3.36135 7.90525C3.34458 7.93938 3.33339 7.97571 3.31717 8.0104L3.31158 8.02416C2.71189 9.31652 2.55753 10.7663 2.87198 12.1529V12.1617C2.92344 12.3878 2.98713 12.6111 3.0627 12.8306C3.06997 12.852 3.08004 12.8724 3.08787 12.8933C3.15386 13.0788 3.22265 13.2633 3.30598 13.4438C3.31381 13.4603 3.32388 13.4752 3.33171 13.4917L3.33507 13.5005C3.35129 13.5352 3.37254 13.5666 3.391 13.6007C3.47936 13.7785 3.57052 13.9536 3.67343 14.1215C3.70028 14.1644 3.72936 14.2041 3.759 14.247C3.86079 14.4039 3.96426 14.5597 4.07835 14.7067C4.11079 14.7485 4.1477 14.7859 4.1807 14.8267C4.29703 14.9693 4.41503 15.1107 4.54255 15.2429C4.5789 15.2808 4.62029 15.3139 4.65776 15.353C4.78863 15.4818 4.92006 15.6095 5.061 15.7268C5.10351 15.762 5.14993 15.7923 5.19355 15.8264C5.33505 15.9365 5.47766 16.0504 5.62923 16.1512C5.68516 16.1892 5.7478 16.22 5.80596 16.2563C5.87608 16.3 5.9469 16.342 6.01849 16.3824L4.0269 23.3567L3.49055 23.218C1.9807 22.8215 0.430243 23.7048 0.0274219 25.191C0.0237866 25.2043 0.0202911 25.2177 0.0168655 25.2311C-0.0573089 25.5228 0.119983 25.8191 0.415072 25.8967L8.80426 28.0987C8.94841 28.1372 9.10228 28.1174 9.23155 28.0436C9.36039 27.9692 9.45365 27.8471 9.49049 27.7045L9.50783 27.6324C9.87716 26.1578 8.98337 24.6625 7.49442 24.2639L7.27071 24.2089L9.25224 17.2665C9.28859 17.2665 9.32551 17.2737 9.36409 17.2737C12.7946 17.2706 15.6589 14.6977 15.9748 11.3354L16.0122 10.938L16.4636 15.74C16.7827 19.1015 19.647 21.6727 23.0771 21.6766C23.1257 21.6766 23.1744 21.6678 23.2236 21.6667L25.1593 28.1075L24.9462 28.1625C23.4564 28.5599 22.5614 30.0553 22.9305 31.5305C22.9454 31.5909 22.9709 31.6483 23.006 31.7001L23.0234 31.7265C23.1554 31.9232 23.4001 32.0153 23.6319 31.9555L32.021 29.7953C32.3176 29.719 32.4964 29.4219 32.4221 29.1292ZM8.47149 26.8722L1.32166 24.9955C1.46666 24.7741 1.6624 24.5893 1.89325 24.456V24.4566C2.28768 24.2264 2.75985 24.1629 3.20252 24.2804L7.20416 25.3308C7.92004 25.5219 8.43087 26.1432 8.47149 26.8722ZM6.18851 23.9248L5.49556 23.7431L5.10798 23.6413L7.04365 16.8597C7.22709 16.9285 7.40718 16.9868 7.58615 17.0358H7.5923C7.76008 17.0821 7.93849 17.1217 8.12138 17.1536L6.18851 23.9248ZM14.8618 11.2325C14.5873 14.1336 12.0398 16.307 9.08334 16.1628C9.01734 16.1594 8.95191 16.1479 8.88647 16.1424C8.70806 16.127 8.54084 16.1055 8.38312 16.0785C8.2254 16.0515 8.05314 16.0174 7.89039 15.9728C7.72764 15.9282 7.55874 15.8721 7.39991 15.8132C7.24555 15.7537 7.08783 15.686 6.92396 15.6073H6.92116C6.87027 15.5825 6.81714 15.5627 6.7668 15.5368C6.63929 15.4702 6.51792 15.3937 6.39656 15.3166C6.3507 15.288 6.30204 15.2616 6.2573 15.2335C6.12699 15.1465 6.00395 15.0507 5.88202 14.9533C5.8507 14.9285 5.81659 14.9071 5.78583 14.8812C5.66335 14.7793 5.54925 14.6692 5.43628 14.5569C5.40943 14.5311 5.38035 14.5074 5.35462 14.4804C5.24277 14.3659 5.14154 14.2443 5.04143 14.1204C5.01794 14.0912 4.99165 14.0653 4.96816 14.0351C4.86973 13.9079 4.78024 13.7741 4.693 13.6387C4.67342 13.6079 4.65049 13.5793 4.63148 13.5479C4.54479 13.4069 4.46705 13.2589 4.39322 13.1075C4.37868 13.0788 4.36134 13.0524 4.34792 13.0227C4.30374 12.9297 4.2685 12.8344 4.22991 12.7397C4.19971 12.6649 4.16727 12.59 4.14043 12.514C4.10296 12.4078 4.07164 12.3004 4.04088 12.1925C4.02298 12.1287 4.00396 12.0648 3.98831 12.0004C3.95978 11.8837 3.93573 11.7665 3.91504 11.6486C3.90553 11.5936 3.8977 11.5424 3.88987 11.4896C3.87142 11.3607 3.85576 11.2314 3.84681 11.1042C3.84681 11.0712 3.84401 11.0376 3.84233 11.0046C3.80759 10.3526 3.89288 9.69988 4.09401 9.07781L4.5062 9.34756C6.19872 10.4654 8.27546 10.8698 10.2729 10.4706C11.8444 10.1606 13.4769 10.4278 14.8618 11.222V11.2325ZM14.9731 10.0368C13.4506 9.29044 11.7192 9.06371 10.0514 9.39215C8.34474 9.7327 6.57057 9.3872 5.1242 8.43263L4.54087 8.04728L8.12138 1.19796L15.6191 3.16489L14.9731 10.0368ZM16.8193 7.56889L24.317 5.60196L27.9523 12.563C26.599 13.3035 25.0221 13.5459 23.5038 13.2468C21.63 12.8767 19.6834 13.2086 18.0452 14.1776L17.4725 14.5157L16.8193 7.56889ZM23.5832 20.5414H23.5782C23.5043 20.548 23.4305 20.5607 23.3545 20.5645C22.1398 20.6244 20.939 20.2875 19.9389 19.6061C19.7727 19.4928 19.6127 19.3708 19.4596 19.2406C19.4216 19.2081 19.3886 19.1718 19.3517 19.1388C19.2398 19.0391 19.1308 18.9389 19.029 18.8316C18.9798 18.7793 18.9373 18.7215 18.8903 18.6664C18.8081 18.5723 18.7225 18.4793 18.6481 18.3796C18.6006 18.3169 18.5598 18.2491 18.515 18.1847C18.4485 18.0884 18.3802 17.9943 18.3204 17.8941C18.2773 17.8231 18.2421 17.7476 18.2024 17.6739C18.1493 17.5748 18.0939 17.4779 18.0469 17.3761C18.0117 17.299 17.9837 17.2186 17.9518 17.1399C17.9104 17.0369 17.8663 16.9356 17.831 16.83C17.8042 16.7496 17.7846 16.6648 17.7617 16.5839C17.7315 16.4738 17.699 16.3703 17.6755 16.2613C17.6571 16.1776 17.647 16.0917 17.6325 16.0064C17.6168 15.9117 17.6 15.8165 17.5894 15.7201L18.6185 15.1146C20.0184 14.2873 21.6813 14.0038 23.2823 14.3191C25.0139 14.6664 26.8143 14.4103 28.3751 13.5947C28.6603 14.5449 28.6762 15.5538 28.421 16.5123C28.4137 16.5398 28.4059 16.5674 28.398 16.596C28.3608 16.7296 28.3177 16.8622 28.2688 16.994C28.2537 17.0353 28.2364 17.0766 28.2196 17.1179C28.171 17.2412 28.1201 17.3634 28.0613 17.4839C28.0479 17.5115 28.0323 17.539 28.0183 17.5654C27.9433 17.713 27.8645 17.8577 27.7772 17.997C27.7582 18.0278 27.7358 18.0565 27.7163 18.0867C27.629 18.2194 27.539 18.3499 27.4411 18.4721C27.4182 18.5013 27.3925 18.5271 27.369 18.5558C27.2689 18.678 27.1665 18.7974 27.0563 18.9097C27.0312 18.9356 27.0004 18.9582 26.9775 18.9835C26.8656 19.0936 26.7498 19.2037 26.6279 19.3034C26.5988 19.3276 26.567 19.3479 26.5368 19.3716C26.4148 19.468 26.2912 19.5626 26.1609 19.6469C26.1201 19.6738 26.0754 19.6964 26.0334 19.7223C25.9104 19.7994 25.7873 19.8753 25.6581 19.9425C25.6195 19.9623 25.5787 19.9777 25.5396 19.9975C25.3718 20.0785 25.2129 20.1478 25.0547 20.2095C24.8964 20.2711 24.7253 20.3284 24.5541 20.3746C24.3964 20.4181 24.237 20.4484 24.0776 20.4776C23.9182 20.5067 23.7583 20.5255 23.5832 20.5414ZM24.355 21.5505C24.5267 21.5191 24.6906 21.4822 24.8522 21.4404C25.0446 21.3881 25.237 21.3253 25.4311 21.2516L27.322 27.5394L26.2403 27.8196L24.355 21.5505ZM23.9691 30.7279C24.0262 30.0143 24.5325 29.4129 25.2342 29.225L26.0021 29.0235L28.1643 28.456L29.2358 28.1725C29.3808 28.1352 29.5301 28.1167 29.6799 28.1174C30.2595 28.1199 30.7988 28.4096 31.1145 28.8881L23.9691 30.7279Z" fill="#422D22"/>
</svg>
