<svg width="29" height="35" viewBox="0 0 29 35" fill="none" xmlns="http://www.w3.org/2000/svg">
<path d="M8.99784 25.0312C8.12568 25.0312 7.43256 24.3374 7.43256 23.4985V21.9658H20.9429V23.4985C20.9429 24.3374 20.2498 25.0312 19.3777 25.0312H8.99784Z" stroke="#422D22" stroke-width="1.02137"/>
<path d="M15.753 18.3904V18.9014H12.6225V18.3904V17.8797H12.1118H9.52404C8.79572 17.8797 8.09607 17.5766 7.60558 17.052C7.11545 16.5277 6.86987 15.8205 6.92969 15.1139L7.96767 2.85361L7.96767 2.85361C8.07814 1.54865 9.214 0.510683 10.562 0.510683H17.8135C19.1615 0.510683 20.2973 1.54864 20.4078 2.85363L21.4458 15.1139C21.5056 15.8205 21.2601 16.5277 20.7699 17.052C20.2795 17.5766 19.5797 17.8797 18.8515 17.8797H16.2637H15.753V18.3904Z" stroke="#422D22" stroke-width="1.02137"/>
<path d="M14.715 29.0291V29.399L15.0665 29.5143L20.5847 31.3249C20.803 31.3965 20.9429 31.5942 20.9429 31.8089V33.8523C20.9429 34.1269 20.7145 34.3633 20.4156 34.3633C20.1168 34.3633 19.8883 34.1269 19.8883 33.8523V32.5454V32.1755L19.5369 32.0601L15.3849 30.6979L14.715 30.4781V31.1831V33.1712C14.715 33.4458 14.4866 33.6822 14.1877 33.6822C13.8889 33.6822 13.6605 33.4458 13.6605 33.1712V31.1831V30.4781L12.9906 30.6979L8.83863 32.0601L8.48716 32.1755V32.5454V33.8523C8.48716 34.1269 8.2587 34.3633 7.95986 34.3633C7.66101 34.3633 7.43256 34.1269 7.43256 33.8523V31.8089C7.43256 31.5942 7.57244 31.3966 7.79085 31.3248C7.79088 31.3248 7.7909 31.3248 7.79092 31.3248L13.309 29.5143L13.6605 29.399V29.0291V28.0966H14.715V29.0291Z" stroke="#422D22" stroke-width="1.02137"/>
<path d="M27.3333 13.9648H24.5653C23.9921 13.9648 23.5273 14.4223 23.5273 14.9865C23.5273 15.5508 23.9921 16.0082 24.5653 16.0082H24.9113V20.095C24.9113 20.8474 24.2917 21.4572 23.5273 21.4572V23.5006C25.4382 23.5006 26.9873 21.9758 26.9873 20.095V16.0082H27.3333C27.9065 16.0082 28.3713 15.5508 28.3713 14.9865C28.3713 14.4223 27.9065 13.9648 27.3333 13.9648Z" fill="#422D22"/>
<path d="M3.80593 16.0082C4.37918 16.0082 4.84392 15.5508 4.84392 14.9865C4.84392 14.4223 4.37918 13.9648 3.80593 13.9648H1.03798C0.464739 13.9648 0 14.4223 0 14.9865C0 15.5508 0.464739 16.0082 1.03798 16.0082H1.38398V20.095C1.38398 21.9758 2.93306 23.5006 4.84392 23.5006V21.4572C4.07955 21.4572 3.45994 20.8474 3.45994 20.095V16.0082H3.80593Z" fill="#422D22"/>
</svg>
