<svg width="36" height="35" viewBox="0 0 36 35" fill="none" xmlns="http://www.w3.org/2000/svg">
<path d="M29.7094 21.964C29.6296 21.964 29.551 21.9446 29.4806 21.9076C29.4103 21.8705 29.3505 21.8169 29.3065 21.7516C29.2625 21.6863 29.2357 21.6114 29.2285 21.5334C29.2213 21.4555 29.234 21.3771 29.2654 21.3051C29.4498 20.8794 29.6221 20.4315 29.777 19.9675C29.8198 19.8522 29.9067 19.7577 30.0193 19.704C30.1319 19.6502 30.2614 19.6415 30.3805 19.6797C30.4995 19.7178 30.5988 19.7998 30.6573 19.9083C30.7158 20.0168 30.7289 20.1434 30.694 20.2612C30.5308 20.7512 30.3484 21.2275 30.1525 21.6769C30.1154 21.7619 30.0536 21.8345 29.9749 21.8855C29.8961 21.9365 29.8038 21.9638 29.7094 21.964Z" fill="#422D22"/>
<path d="M17.8534 2.20509C21.3973 4.50732 25.524 5.49646 30.4253 5.22797V12.0889C30.4253 12.2629 30.4959 12.429 30.6203 12.5509C30.7445 12.6726 30.9123 12.7404 31.0865 12.7404C31.2607 12.7404 31.4285 12.6726 31.5528 12.5509C31.6772 12.429 31.7477 12.2629 31.7477 12.0889V4.52857V4.52841L17.8534 2.20509ZM17.8534 2.20509C14.1546 4.63275 9.70567 5.71274 5.28054 5.25934V14.8936C5.28054 21.8004 9.83495 28.3295 17.8545 32.8341C21.4869 30.867 24.6334 28.1411 27.0709 24.8494L27.1835 24.6886L27.1836 24.6884C27.2403 24.6078 27.2944 24.5305 27.3454 24.4518L17.8534 2.20509ZM31.5349 4.04917C31.4677 3.98754 31.3882 3.94068 31.3018 3.91143C31.2155 3.88225 31.1241 3.87119 31.0333 3.87889C25.9383 4.2787 21.7565 3.29428 18.2298 0.882434L18.2295 0.882219C18.1188 0.80688 17.9877 0.766741 17.8537 0.766741C17.7196 0.766741 17.5885 0.80688 17.4778 0.882217L17.477 0.882778C13.7651 3.43981 9.19738 4.51365 4.70491 3.88474L4.70221 3.88439C4.60961 3.87286 4.51554 3.88078 4.42621 3.90766C4.33687 3.93455 4.25414 3.97984 4.18361 4.04074C4.11306 4.10164 4.05631 4.17679 4.01734 4.26132C3.97837 4.34586 3.95815 4.43773 3.95815 4.53077V4.53078V14.8936C3.95815 22.417 8.92801 29.4294 17.5315 34.1502L17.5317 34.1503C17.6299 34.2041 17.7403 34.2323 17.8524 34.2323C17.8526 34.2323 17.8528 34.2323 17.853 34.2323L17.8529 34.0538L31.5349 4.04917Z" fill="#422D22" stroke="#422D22" stroke-width="0.357143"/>
<path d="M30.9751 17.276C30.9069 17.2756 30.8395 17.2612 30.7773 17.2336C30.7152 17.206 30.6597 17.1659 30.6144 17.1159C30.5692 17.0658 30.5352 17.007 30.5147 16.9433C30.4941 16.8795 30.4876 16.8122 30.4954 16.7458C30.5494 16.3111 30.5837 15.8528 30.5982 15.3836C30.6061 15.2596 30.662 15.1432 30.7545 15.0582C30.8469 14.9731 30.969 14.9258 31.0957 14.9258C31.2237 14.9296 31.3448 14.9831 31.4325 15.0744C31.5202 15.1658 31.5673 15.2876 31.5634 15.4129C31.548 15.91 31.5108 16.3967 31.4539 16.8598C31.4397 16.9745 31.3832 17.0802 31.295 17.1568C31.2068 17.2335 31.093 17.2759 30.9751 17.276Z" fill="#422D22"/>
<path d="M12.0786 17.7552L12.0786 17.7553L12.0808 17.7574L15.1146 20.7305C15.1146 20.7305 15.1146 20.7305 15.1146 20.7305C15.2388 20.8523 15.4066 20.9201 15.5808 20.9202H15.5808C15.755 20.9201 15.9228 20.8523 16.047 20.7305C16.047 20.7305 16.047 20.7305 16.047 20.7305L23.631 13.2982L23.631 13.2983L23.6332 13.296C23.754 13.1734 23.8215 13.0084 23.82 12.8364C23.8185 12.6644 23.7481 12.5006 23.6251 12.3801L23.6251 12.3801C23.5022 12.2597 23.3368 12.1921 23.1646 12.1906C22.9923 12.1891 22.8257 12.254 22.7008 12.3722L22.7008 12.3722L22.6986 12.3744L15.5808 19.3498L13.0132 16.8336L13.0132 16.8335L13.011 16.8314C12.886 16.7132 12.7195 16.6483 12.5472 16.6498C12.375 16.6513 12.2095 16.7189 12.0867 16.8393L12.2101 16.9653L12.0867 16.8393C11.9637 16.9598 11.8933 17.1236 11.8918 17.2956C11.8902 17.4676 11.9578 17.6326 12.0786 17.7552Z" fill="#422D22" stroke="#422D22" stroke-width="0.357143"/>
</svg>
