<svg width="35" height="24" viewBox="0 0 35 24" fill="none" xmlns="http://www.w3.org/2000/svg">
<path d="M0.713927 7.06364L0.713935 7.06363C10.1519 -1.48795 24.8443 -1.49107 34.286 7.06364C34.37 7.13975 34.3748 7.26496 34.289 7.34878C34.2889 7.34887 34.2888 7.34896 34.2887 7.34905L32.4167 9.16844C32.4167 9.16846 32.4167 9.16848 32.4166 9.1685C32.3288 9.25378 32.1757 9.25983 32.0773 9.17145L32.0771 9.17126C23.8489 1.78695 11.1498 1.78863 2.92335 9.17126L2.92314 9.17145C2.82424 9.26028 2.67144 9.25375 2.58416 9.16881L2.58384 9.1685L0.711365 7.3487C0.711355 7.34869 0.711346 7.34868 0.711336 7.34868C0.625127 7.26485 0.629915 7.13976 0.713927 7.06364ZM28.1587 13.1552L28.1588 13.1553C28.2445 13.2295 28.2508 13.354 28.1637 13.4381L28.1632 13.4386L26.2797 15.2595L26.2794 15.2598C26.1881 15.3481 26.0362 15.3514 25.9441 15.2737C21.1224 11.1899 13.8886 11.1808 9.05531 15.2736C8.96375 15.351 8.81145 15.3482 8.71959 15.2594L6.83621 13.4386L6.83605 13.4384C6.74882 13.3541 6.75509 13.2298 6.84116 13.1553L6.84126 13.1552C12.8938 7.91163 22.0994 7.906 28.1587 13.1552ZM14.6487 20.5714C14.6487 19.0485 15.9124 17.7916 17.5 17.7916C19.0875 17.7916 20.3512 19.0485 20.3512 20.5714C20.3512 22.0943 19.0875 23.3512 17.5 23.3512C15.9124 23.3512 14.6487 22.0943 14.6487 20.5714Z" stroke="#422D22" stroke-width="1.29756"/>
</svg>
