<svg width="175" height="85" viewBox="0 0 175 85" fill="none" xmlns="http://www.w3.org/2000/svg">
<g clip-path="url(#clip0)">
<path d="M53.1756 33.774C53.5426 33.774 53.8897 33.7144 54.207 33.5953C54.5244 33.4762 54.7326 33.4067 54.8417 33.3669V34.3796C53.1558 35.0149 51.579 35.3425 50.1013 35.3425C48.4848 35.3425 47.2154 34.9851 46.2931 34.2604C45.3708 33.5357 44.8551 32.7415 44.7559 31.858V31.8083C43.6154 32.6819 42.2369 33.496 40.6402 34.2604C39.0435 35.0149 37.3874 35.3922 35.6717 35.3922C34.1246 35.3922 32.6469 34.9554 31.2287 34.0817C29.8205 33.2081 29.1064 31.4509 29.1064 28.83C29.1064 25.4646 30.3163 23.1515 32.7362 21.8807C35.156 20.6199 37.9328 19.9846 41.0567 19.9846C41.7609 19.9846 42.8518 20.0541 44.3394 20.1831C44.3394 18.9422 44.3096 17.1056 44.2402 14.6733C44.2104 12.9558 44.1212 11.6752 43.9923 10.8313C43.8534 9.98748 43.546 9.32233 43.06 8.83588C42.5741 8.34943 41.7906 8.10124 40.7096 8.10124C39.5295 8.10124 38.5774 8.40899 37.8634 9.01458C37.1394 9.62016 36.6039 10.3349 36.2469 11.1589C35.8899 11.9829 35.5527 13.0055 35.2155 14.2166C34.9477 15.259 34.6899 16.0235 34.432 16.5099C34.1841 16.9964 33.8469 17.2445 33.4502 17.2445C32.875 17.2445 32.2601 16.7581 31.6056 15.7753C30.9511 14.8024 30.3957 13.7798 29.9395 12.7176C29.4833 11.6553 29.2056 10.9604 29.1064 10.6228C33.0436 8.27001 36.9113 7.08862 40.7096 7.08862C44.2402 7.08862 46.8088 8.00196 48.4054 9.81871C50.0021 11.6355 50.8054 14.435 50.8054 18.2075V30.3291C50.8054 32.6323 51.5889 33.774 53.1756 33.774ZM44.6964 30.8453C44.627 29.3661 44.5278 26.1297 44.3889 21.1461C43.2088 20.9078 42.4848 20.7788 42.2171 20.7391C42.0187 20.7093 41.6617 20.6894 41.1559 20.6894C39.5791 20.6894 38.1807 21.1163 36.9708 21.98C35.7609 22.8437 35.156 24.452 35.156 26.8048C35.156 28.7208 35.5923 30.21 36.4651 31.2722C37.3378 32.3345 38.4188 32.8606 39.6981 32.8606C41.1162 32.8706 42.7823 32.1955 44.6964 30.8453Z" fill="#422D22"/>
<path d="M86.2196 0.0400391L76.1338 26.8048L73.109 35.3922H72.0974C68.0016 23.3798 63.3306 11.5461 57.9653 0.0400391H65.5322C66.7719 5.44065 73.7437 23.221 74.9437 25.6334L84.7023 0.0400391H86.2196Z" fill="#422D22"/>
<path d="M96.9809 9.64002C96.9114 9.83857 96.8023 10.3846 96.6536 11.2582C96.5048 12.1318 96.3462 13.5118 96.1974 15.398C96.0486 17.2843 95.9693 19.5775 95.9693 22.2679C95.9693 24.9583 96.0486 27.2813 96.1974 29.2172C96.3462 31.1531 96.5048 32.6125 96.6536 33.5854C96.8023 34.5583 96.9114 35.1638 96.9809 35.4021H88.9082C88.9776 35.1341 89.0867 34.4689 89.2355 33.4067C89.3842 32.3444 89.5429 30.8056 89.6917 28.7804C89.8404 26.7552 89.9198 24.4222 89.9198 21.7616C89.9198 19.101 89.8404 16.8673 89.6917 15.0704C89.5429 13.2735 89.3743 11.8737 89.1859 10.881C88.9975 9.88821 88.9082 9.47125 88.9082 9.64002H96.9809ZM90.4156 6.09587C89.7413 5.42079 89.4041 4.57695 89.4041 3.57426C89.4041 2.57157 89.7413 1.72773 90.4156 1.05265C91.09 0.377577 91.933 0.0400391 92.9346 0.0400391C93.9363 0.0400391 94.7792 0.377577 95.4536 1.05265C96.128 1.72773 96.4652 2.57157 96.4652 3.57426C96.4652 4.57695 96.128 5.43072 95.4536 6.09587C94.7792 6.77094 93.9363 7.10848 92.9346 7.10848C91.933 7.10848 91.09 6.77094 90.4156 6.09587Z" fill="#422D22"/>
<path d="M117.835 7.89308C119.333 8.41925 120.552 8.98512 121.495 9.61056C122.437 10.236 122.903 10.5835 122.903 10.643C122.764 10.9806 122.476 11.6755 122.02 12.7377C121.564 13.8 121.028 14.8126 120.404 15.7954C119.779 16.7683 119.204 17.2647 118.658 17.2647C118.291 17.2647 117.994 17.0364 117.776 16.5797C117.557 16.1231 117.3 15.3785 116.992 14.3361C116.655 13.1249 116.298 12.0925 115.911 11.2288C115.524 10.3651 114.959 9.64034 114.225 9.03476C113.481 8.42917 112.51 8.12142 111.3 8.12142C110.02 8.12142 109.029 8.47881 108.324 9.18367C107.62 9.88853 107.263 10.8813 107.263 12.1619C107.263 13.4426 107.601 14.4949 108.275 15.3189C108.949 16.1429 109.782 16.7882 110.774 17.2647C111.766 17.7413 113.105 18.2575 114.781 18.8333C116.526 19.4091 117.954 19.9551 119.045 20.4713C120.136 20.9975 121.058 21.7222 121.792 22.6653C122.536 23.6085 122.903 24.8196 122.903 26.2988C122.903 27.917 122.476 29.426 121.614 30.8159C120.761 32.2157 119.59 33.3276 118.133 34.1516C116.665 34.9755 115.058 35.3925 113.313 35.3925C111.796 35.3925 110.11 35.1344 108.245 34.6082C106.381 34.0821 104.655 33.5063 103.078 32.861C101.501 32.2256 100.708 31.8881 100.708 31.8484C100.708 31.7491 100.946 31.0641 101.412 29.8033C101.878 28.5425 102.414 27.4206 102.999 26.4477C103.584 25.4748 104.169 25.0877 104.744 25.2862C105.052 25.3855 105.359 25.6436 105.677 26.0407C105.994 26.4477 106.44 27.103 107.015 28.0064C108.295 29.9621 109.524 31.5108 110.695 32.6525C111.875 33.7942 113.253 34.37 114.83 34.37C116.01 34.37 116.972 33.953 117.736 33.1092C118.49 32.2653 118.867 31.342 118.867 30.3294C118.867 29.1183 118.281 28.1057 117.101 27.3015C115.921 26.4974 114.106 25.584 111.657 24.5714C109.842 23.7971 108.354 23.1021 107.194 22.4966C106.034 21.891 105.032 21.1464 104.189 20.2728C103.346 19.3992 102.86 18.3667 102.721 17.1952L102.672 16.4904C102.672 15.2097 102.979 13.8596 103.584 12.4201C104.189 10.9905 105.25 9.73961 106.767 8.68729C108.285 7.63497 110.298 7.09888 112.827 7.09888C114.662 7.1088 116.338 7.36692 117.835 7.89308Z" fill="#422D22"/>
<path d="M136.52 8.62736H143.958V10.1463H136.392C136.322 10.8909 136.223 12.5587 136.084 15.1498C135.945 17.7409 135.886 20.4511 135.886 23.2805C135.886 25.9709 135.985 28.0556 136.193 29.515C136.392 30.9843 136.778 32.0763 137.354 32.801C137.929 33.5257 138.792 34.0221 139.932 33.8831C142.59 33.5754 143.552 30.7361 143.72 30.2C143.889 29.6639 143.968 29.376 143.968 29.3462H144.98C144.95 29.376 144.087 32.5628 142.481 33.8633C141.112 34.9752 139.525 35.4021 137.413 35.4021C134.725 35.4021 132.792 34.5781 131.611 32.9301C130.431 31.2821 129.846 29.0782 129.846 26.3183C129.846 25.8517 129.916 23.9258 130.044 20.5603C130.243 14.3953 130.352 10.9306 130.352 10.1562H125.81V8.62736C125.81 8.62736 130.342 8.62736 130.352 8.62736C130.352 8.62736 130.521 5.82778 130.084 3.57422C129.836 3.57422 137.413 3.57422 137.413 3.57422C136.818 5.0435 136.56 7.99199 136.52 8.62736Z" fill="#422D22"/>
<path d="M172.919 33.774C173.286 33.774 173.633 33.7144 173.951 33.5953C174.268 33.4762 174.476 33.4067 174.585 33.3669V34.3796C172.899 35.0149 171.323 35.3425 169.845 35.3425C168.228 35.3425 166.959 34.9851 166.037 34.2604C165.114 33.5357 164.599 32.7415 164.5 31.858V31.8083C163.359 32.6819 161.981 33.496 160.384 34.2604C158.787 35.0149 157.131 35.3922 155.415 35.3922C153.868 35.3922 152.391 34.9554 150.972 34.0817C149.564 33.2081 148.85 31.4509 148.85 28.83C148.85 25.4646 150.06 23.1515 152.48 21.8807C154.9 20.61 157.676 19.9846 160.8 19.9846C161.505 19.9846 162.595 20.0541 164.083 20.1831C164.083 18.9422 164.053 17.1056 163.984 14.6733C163.954 12.9558 163.865 11.6752 163.736 10.8313C163.597 9.98748 163.29 9.32233 162.804 8.83588C162.318 8.34943 161.534 8.10124 160.453 8.10124C159.273 8.10124 158.321 8.40899 157.607 9.01458C156.883 9.62016 156.348 10.3349 155.991 11.1589C155.633 11.9829 155.296 13.0055 154.959 14.2166C154.691 15.259 154.434 16.0235 154.176 16.5099C153.928 16.9964 153.591 17.2445 153.194 17.2445C152.619 17.2445 152.004 16.7581 151.349 15.7753C150.695 14.8024 150.139 13.7798 149.683 12.7176C149.227 11.6553 148.949 10.9604 148.85 10.6228C152.787 8.27001 156.655 7.08862 160.453 7.08862C163.984 7.08862 166.552 8.00196 168.149 9.81871C169.746 11.6355 170.549 14.435 170.549 18.2075V30.3291C170.549 32.6323 171.333 33.774 172.919 33.774ZM164.44 30.8453C164.371 29.3661 164.271 26.1297 164.133 21.1461C162.952 20.9078 162.228 20.7788 161.961 20.7391C161.762 20.7093 161.405 20.6894 160.9 20.6894C159.323 20.6894 157.924 21.1163 156.714 21.98C155.505 22.8437 154.9 24.452 154.9 26.8048C154.9 28.7208 155.336 30.21 156.209 31.2722C157.081 32.3345 158.162 32.8606 159.442 32.8606C160.86 32.8706 162.526 32.1955 164.44 30.8453Z" fill="#422D22"/>
<path d="M0 0H8.34042C6.23796 7.80308 5.93052 29.8721 6.47597 34.4189C6.47597 34.4189 13.6362 34.4189 16.0164 34.4189C17.256 34.4189 19.1998 33.8034 20.3998 32.9099C22.5122 31.3315 23.732 27.0427 23.9899 26.6456C24.1882 26.328 24.4956 26.1691 24.7634 26.1691C25.0312 26.1691 25.2394 26.2684 25.3981 26.4769C25.5469 26.6754 25.6262 26.9633 25.6262 27.3406V35.4415H0C0 35.4316 1.49751 23.7468 0 0Z" fill="#422D22"/>
<path d="M36.1196 84.0271H39.1741V84.9404H34.989V78.0706H36.1196V84.0271Z" fill="#422D22"/>
<path d="M46.3037 78.0605V82.4386C46.3037 82.9648 46.4425 83.3519 46.7103 83.62C46.988 83.888 47.3648 84.0171 47.8508 84.0171C48.3466 84.0171 48.7235 83.888 49.0012 83.62C49.2788 83.3519 49.4078 82.9648 49.4078 82.4386V78.0605H50.5383V82.4187C50.5383 82.9747 50.4193 83.4512 50.1714 83.8384C49.9235 84.2256 49.6061 84.5135 49.1896 84.712C48.783 84.9006 48.3268 84.9999 47.8408 84.9999C47.3549 84.9999 46.8987 84.9006 46.4921 84.712C46.0855 84.5234 45.7681 84.2355 45.5301 83.8384C45.2921 83.4512 45.1731 82.9747 45.1731 82.4187V78.0605H46.3037Z" fill="#422D22"/>
<path d="M59.266 81.5054L61.3982 84.9404H60.1387L58.5916 82.4485L57.1437 84.9404H55.8842L58.0164 81.5054L55.8743 78.0605H57.1338L58.6908 80.5722L60.1486 78.0605H61.3982L59.266 81.5054Z" fill="#422D22"/>
<path d="M68.6558 78.9739V80.9892H71.026V81.9124H68.6558V84.0171H71.3236V84.9404H67.5352V78.0605H71.3236V78.9838H68.6558V78.9739Z" fill="#422D22"/>
<path d="M91.0615 78.0605L88.483 84.9304H87.1839L84.5955 78.0605H85.7954L87.8285 83.7788L89.8714 78.0605H91.0615Z" fill="#422D22"/>
<path d="M98.26 78.0605V84.9304H97.1294V78.0605H98.26Z" fill="#422D22"/>
<path d="M106.61 84.0271L109.665 84.037V84.9504L105.48 84.9404V78.0706H106.61V84.0271Z" fill="#422D22"/>
<path d="M116.478 84.0271H119.533V84.9404H115.348V78.0706H116.478V84.0271Z" fill="#422D22"/>
<path d="M128.745 83.5303H125.869L125.373 84.9301H124.203L126.662 78.0503H127.961L130.421 84.9301H129.231L128.745 83.5303ZM128.427 82.6071L127.307 79.4104L126.176 82.6071H128.427Z" fill="#422D22"/>
<path d="M135.974 84.7612C135.607 84.6023 135.32 84.374 135.102 84.0762C134.893 83.7783 134.784 83.4309 134.784 83.0338H135.994C136.024 83.3316 136.133 83.5699 136.341 83.7684C136.549 83.957 136.837 84.0563 137.214 84.0563C137.601 84.0563 137.908 83.967 138.126 83.7783C138.344 83.5897 138.454 83.3515 138.454 83.0536C138.454 82.8253 138.384 82.6367 138.255 82.4877C138.116 82.3388 137.948 82.2296 137.749 82.1502C137.551 82.0708 137.273 81.9814 136.916 81.8921C136.47 81.773 136.103 81.6538 135.825 81.5347C135.548 81.4156 135.31 81.2269 135.111 80.9688C134.913 80.7107 134.814 80.3732 134.814 79.9364C134.814 79.5393 134.913 79.1918 135.111 78.894C135.31 78.5961 135.587 78.3678 135.944 78.209C136.302 78.0501 136.708 77.9707 137.174 77.9707C137.839 77.9707 138.384 78.1395 138.811 78.4671C139.237 78.8046 139.475 79.2613 139.515 79.8371H138.265C138.245 79.5889 138.126 79.3705 137.908 79.1918C137.69 79.0131 137.402 78.9238 137.045 78.9238C136.718 78.9238 136.46 79.0032 136.252 79.1719C136.044 79.3407 135.944 79.579 135.944 79.8867C135.944 80.0952 136.004 80.2739 136.133 80.403C136.262 80.5419 136.421 80.6412 136.619 80.7206C136.817 80.8001 137.085 80.8894 137.432 80.9788C137.888 81.1078 138.255 81.2269 138.543 81.356C138.83 81.4851 139.068 81.6737 139.277 81.9318C139.475 82.1899 139.574 82.5374 139.574 82.9742C139.574 83.3217 139.485 83.6493 139.297 83.967C139.108 84.2747 138.84 84.5229 138.473 84.7115C138.116 84.9002 137.69 84.9895 137.204 84.9895C136.758 84.9994 136.341 84.92 135.974 84.7612Z" fill="#422D22"/>
<path d="M63.1808 59.2188L66.0271 59.2684L63.7659 60.9958L64.599 63.7259L62.2585 62.1077L59.928 63.7458L60.7412 61.0157L58.4602 59.2982L61.3065 59.2287L62.2288 56.5383L63.1808 59.2188Z" fill="#422D22"/>
<path d="M75.6961 59.2188L78.5423 59.2684L76.2812 60.9958L77.1241 63.7259L74.7737 62.1077L72.4531 63.7458L73.2564 61.0157L70.9854 59.2982L73.8316 59.2287L74.7539 56.5383L75.6961 59.2188Z" fill="#422D22"/>
<path d="M88.2239 59.2188L91.0701 59.2684L88.809 60.9958L89.6421 63.7259L87.3016 62.1077L84.971 63.7458L85.7842 61.0157L83.5132 59.2982L86.3594 59.2287L87.2817 56.5383L88.2239 59.2188Z" fill="#422D22"/>
<path d="M100.748 59.2188L103.595 59.2684L101.334 60.9958L102.167 63.7259L99.8261 62.1077L97.4956 63.7458L98.3088 61.0157L96.0278 59.2982L98.8741 59.2287L99.7964 56.5383L100.748 59.2188Z" fill="#422D22"/>
<path d="M113.266 59.2188L116.113 59.2684L113.851 60.9958L114.694 63.7259L112.344 62.1077L110.023 63.7458L110.837 61.0157L108.556 59.2982L111.402 59.2287L112.324 56.5383L113.266 59.2188Z" fill="#422D22"/>
</g>
<defs>
<clipPath id="clip0">
<rect width="174.583" height="85" fill="white"/>
</clipPath>
</defs>
</svg>
