<svg width="411" height="200" viewBox="0 0 411 200" fill="none" xmlns="http://www.w3.org/2000/svg">
<g clip-path="url(#clip0)">
<path d="M125.119 79.4683C125.982 79.4683 126.799 79.3281 127.546 79.0478C128.292 78.7675 128.782 78.604 129.039 78.5106V80.8932C125.072 82.3882 121.362 83.159 117.885 83.159C114.081 83.159 111.095 82.3181 108.924 80.6129C106.754 78.9076 105.541 77.0389 105.308 74.96V74.8432C102.624 76.8988 99.3805 78.8142 95.6236 80.6129C91.8667 82.3881 87.9699 83.2758 83.9329 83.2758C80.2927 83.2758 76.8158 82.248 73.479 80.1924C70.1655 78.1368 68.4854 74.0023 68.4854 67.8355C68.4854 59.9168 71.3322 54.4741 77.0259 51.4842C82.7195 48.5176 89.2533 47.0226 96.6037 47.0226C98.2605 47.0226 100.827 47.1861 104.327 47.4898C104.327 44.5699 104.257 40.2485 104.094 34.5255C104.024 30.4844 103.814 27.4711 103.511 25.4856C103.184 23.5 102.461 21.935 101.317 20.7904C100.174 19.6458 98.3305 19.0618 95.787 19.0618C93.0101 19.0618 90.77 19.786 89.0899 21.2109C87.3865 22.6358 86.1264 24.3176 85.2864 26.2564C84.4463 28.1952 83.6529 30.6012 82.8595 33.451C82.2295 35.9037 81.6228 37.7023 81.0161 38.8469C80.4327 39.9915 79.6393 40.5755 78.706 40.5755C77.3525 40.5755 75.9058 39.4309 74.3657 37.1183C72.8256 34.8292 71.5189 32.4232 70.4455 29.9238C69.3721 27.4244 68.7187 25.7892 68.4854 24.995C77.7492 19.4589 86.8498 16.6792 95.787 16.6792C104.094 16.6792 110.138 18.8282 113.895 23.1029C117.652 27.3776 119.542 33.9649 119.542 42.8413V71.3627C119.542 76.782 121.385 79.4683 125.119 79.4683ZM105.168 72.5774C105.004 69.0969 104.771 61.4818 104.444 49.7556C101.667 49.195 99.9639 48.8913 99.3339 48.7979C98.8672 48.7278 98.0271 48.6811 96.837 48.6811C93.1268 48.6811 89.8366 49.6855 86.9898 51.7177C84.143 53.75 82.7195 57.5341 82.7195 63.0702C82.7195 67.5785 83.7463 71.0824 85.7997 73.5818C87.8532 76.0812 90.3967 77.3192 93.4068 77.3192C96.7437 77.3426 100.664 75.7542 105.168 72.5774Z" fill="white"/>
<path d="M202.868 0.0942383L179.137 63.0702L172.02 83.2757H169.64C160.002 55.0113 149.012 27.1674 136.388 0.0942383H154.192C157.109 12.8015 173.513 54.6376 176.337 60.3138L199.298 0.0942383H202.868Z" fill="white"/>
<path d="M228.19 22.6824C228.026 23.1496 227.77 24.4343 227.42 26.4899C227.07 28.5455 226.696 31.7924 226.346 36.2307C225.996 40.6689 225.81 46.0648 225.81 52.3951C225.81 58.7254 225.996 64.1914 226.346 68.7464C226.696 73.3014 227.07 76.7352 227.42 79.0244C227.77 81.3136 228.026 82.7385 228.19 83.2991H209.195C209.359 82.6684 209.615 81.1034 209.965 78.6039C210.315 76.1045 210.689 72.4839 211.039 67.7186C211.389 62.9534 211.575 57.464 211.575 51.2038C211.575 44.9436 211.389 39.6878 211.039 35.4598C210.689 31.2318 210.292 27.9382 209.849 25.6023C209.405 23.2664 209.195 22.2853 209.195 22.6824H228.19ZM212.742 14.3432C211.155 12.7548 210.362 10.7693 210.362 8.41005C210.362 6.05079 211.155 4.06527 212.742 2.47686C214.329 0.888445 216.312 0.0942383 218.669 0.0942383C221.026 0.0942383 223.009 0.888445 224.596 2.47686C226.183 4.06527 226.976 6.05079 226.976 8.41005C226.976 10.7693 226.183 12.7782 224.596 14.3432C223.009 15.9317 221.026 16.7259 218.669 16.7259C216.312 16.7259 214.329 15.9317 212.742 14.3432Z" fill="white"/>
<path d="M277.259 18.5718C280.783 19.8099 283.653 21.1413 285.87 22.613C288.086 24.0846 289.183 24.9021 289.183 25.0423C288.856 25.8365 288.18 27.4716 287.106 29.9711C286.033 32.4705 284.773 34.8531 283.303 37.1656C281.833 39.4548 280.479 40.6228 279.196 40.6228C278.332 40.6228 277.632 40.0855 277.119 39.011C276.606 37.9365 275.999 36.1846 275.276 33.7319C274.482 30.8821 273.642 28.4527 272.732 26.4205C271.822 24.3882 270.492 22.683 268.765 21.2581C267.015 19.8332 264.728 19.1091 261.881 19.1091C258.871 19.1091 256.538 19.95 254.881 21.6085C253.224 23.267 252.384 25.6029 252.384 28.6162C252.384 31.6295 253.178 34.1056 254.764 36.0444C256.351 37.9832 258.311 39.5015 260.645 40.6228C262.978 41.744 266.128 42.9587 270.072 44.3135C274.179 45.6683 277.539 46.9531 280.106 48.1677C282.673 49.4058 284.843 51.111 286.57 53.3301C288.32 55.5492 289.183 58.399 289.183 61.8795C289.183 65.687 288.18 69.2376 286.15 72.5079C284.143 75.8015 281.389 78.4177 277.959 80.3565C274.506 82.2953 270.725 83.2764 266.618 83.2764C263.048 83.2764 259.081 82.669 254.694 81.431C250.307 80.193 246.247 78.8381 242.537 77.3198C238.827 75.8248 236.96 75.0306 236.96 74.9372C236.96 74.7036 237.52 73.0918 238.617 70.1252C239.713 67.1586 240.974 64.5191 242.35 62.2299C243.727 59.9407 245.104 59.0297 246.457 59.4969C247.181 59.7305 247.904 60.3378 248.651 61.2722C249.397 62.2299 250.447 63.7716 251.801 65.8972C254.811 70.499 257.705 74.143 260.458 76.8293C263.235 79.5156 266.478 80.8704 270.189 80.8704C272.965 80.8704 275.229 79.8893 277.026 77.9038C278.799 75.9183 279.686 73.7459 279.686 71.3633C279.686 68.5135 278.309 66.1308 275.532 64.2388C272.755 62.3467 268.485 60.1976 262.722 57.815C258.451 55.993 254.951 54.3579 252.221 52.933C249.491 51.5081 247.134 49.7562 245.15 47.7006C243.167 45.645 242.024 43.2156 241.697 40.4593L241.58 38.8008C241.58 35.7875 242.304 32.6106 243.727 29.2236C245.15 25.8599 247.647 22.9166 251.217 20.4406C254.788 17.9645 259.525 16.7031 265.475 16.7031C269.792 16.7265 273.736 17.3338 277.259 18.5718Z" fill="white"/>
<path d="M321.224 20.2997H338.725V23.8736H320.921C320.757 25.6255 320.524 29.5498 320.197 35.6465C319.871 41.7432 319.731 48.1203 319.731 54.7776C319.731 61.1079 319.964 66.0133 320.454 69.4471C320.921 72.9042 321.831 75.4737 323.184 77.1789C324.538 78.8841 326.568 80.0521 329.251 79.725C335.505 79.0009 337.768 72.3202 338.165 71.0588C338.562 69.7974 338.748 69.12 338.748 69.0499H341.129C341.059 69.12 339.028 76.6183 335.248 79.6783C332.028 82.2945 328.294 83.299 323.324 83.299C317 83.299 312.45 81.3602 309.673 77.4826C306.896 73.605 305.52 68.4193 305.52 61.9254C305.52 60.8276 305.683 56.2959 305.986 48.3772C306.453 33.8713 306.71 25.719 306.71 23.8969H296.022V20.2997C296.022 20.2997 306.686 20.2997 306.71 20.2997C306.71 20.2997 307.106 13.7124 306.08 8.40991C305.496 8.40991 323.324 8.40991 323.324 8.40991C321.924 11.867 321.317 18.8047 321.224 20.2997Z" fill="white"/>
<path d="M406.87 79.4683C407.733 79.4683 408.55 79.3281 409.296 79.0478C410.043 78.7675 410.533 78.604 410.79 78.5106V80.8932C406.823 82.3882 403.113 83.159 399.636 83.159C395.832 83.159 392.846 82.3181 390.675 80.6129C388.505 78.9076 387.292 77.0389 387.059 74.96V74.8432C384.375 76.8988 381.132 78.8142 377.375 80.6129C373.618 82.3881 369.721 83.2758 365.684 83.2758C362.044 83.2758 358.567 82.248 355.23 80.1924C351.916 78.1368 350.236 74.0023 350.236 67.8355C350.236 59.9168 353.083 54.4741 358.777 51.4842C364.471 48.4942 371.004 47.0226 378.355 47.0226C380.011 47.0226 382.578 47.1861 386.078 47.4898C386.078 44.5699 386.008 40.2485 385.845 34.5255C385.775 30.4844 385.565 27.4711 385.262 25.4856C384.935 23.5 384.212 21.935 383.068 20.7904C381.925 19.6458 380.081 19.0618 377.538 19.0618C374.761 19.0618 372.521 19.786 370.841 21.2109C369.137 22.6358 367.877 24.3176 367.037 26.2564C366.197 28.1952 365.404 30.6012 364.611 33.451C363.98 35.9037 363.374 37.7023 362.767 38.8469C362.184 39.9915 361.39 40.5755 360.457 40.5755C359.104 40.5755 357.657 39.4309 356.117 37.1183C354.577 34.8292 353.27 32.4232 352.196 29.9238C351.123 27.4244 350.47 25.7892 350.236 24.995C359.5 19.4589 368.601 16.6792 377.538 16.6792C385.845 16.6792 391.889 18.8282 395.646 23.1029C399.403 27.3776 401.293 33.9649 401.293 42.8413V71.3627C401.293 76.782 403.136 79.4683 406.87 79.4683ZM386.919 72.5774C386.755 69.0969 386.522 61.4818 386.195 49.7556C383.418 49.195 381.715 48.8913 381.085 48.7979C380.618 48.7278 379.778 48.6811 378.588 48.6811C374.878 48.6811 371.588 49.6855 368.741 51.7177C365.894 53.75 364.471 57.5341 364.471 63.0702C364.471 67.5785 365.497 71.0824 367.551 73.5818C369.604 76.0812 372.148 77.3192 375.158 77.3192C378.495 77.3426 382.415 75.7542 386.919 72.5774Z" fill="white"/>
<path d="M0 0H19.6245C14.6775 18.3602 13.9542 70.2873 15.2376 80.9857C15.2376 80.9857 32.0853 80.9857 37.6856 80.9857C40.6024 80.9857 45.176 79.5375 47.9995 77.4352C52.9698 73.7211 55.84 63.63 56.4467 62.6956C56.9134 61.9481 57.6368 61.5744 58.2668 61.5744C58.8969 61.5744 59.3869 61.808 59.7603 62.2985C60.1103 62.7657 60.297 63.4431 60.297 64.3308V83.3917H0C0 83.3684 3.52354 55.8748 0 0Z" fill="white"/>
<path d="M84.9883 197.711H92.1754V199.86H82.3281V183.695H84.9883V197.711Z" fill="white"/>
<path d="M108.949 183.672V193.973C108.949 195.211 109.276 196.122 109.906 196.753C110.559 197.384 111.446 197.687 112.589 197.687C113.756 197.687 114.643 197.384 115.296 196.753C115.95 196.122 116.253 195.211 116.253 193.973V183.672H118.913V193.926C118.913 195.235 118.633 196.356 118.05 197.267C117.466 198.178 116.72 198.855 115.74 199.322C114.783 199.766 113.71 200 112.566 200C111.423 200 110.349 199.766 109.393 199.322C108.436 198.879 107.689 198.201 107.129 197.267C106.569 196.356 106.289 195.235 106.289 193.926V183.672H108.949Z" fill="white"/>
<path d="M139.449 191.777L144.466 199.86H141.503L137.862 193.997L134.456 199.86H131.492L136.509 191.777L131.469 183.672H134.432L138.096 189.582L141.526 183.672H144.466L139.449 191.777Z" fill="white"/>
<path d="M161.543 185.821V190.563H167.12V192.735H161.543V197.687H167.82V199.86H158.906V183.672H167.82V185.844H161.543V185.821Z" fill="white"/>
<path d="M214.263 183.672L208.196 199.836H205.139L199.049 183.672H201.872L206.656 197.127L211.463 183.672H214.263Z" fill="white"/>
<path d="M231.199 183.672V199.836H228.539V183.672H231.199Z" fill="white"/>
<path d="M250.848 197.711L258.035 197.734V199.883L248.188 199.86V183.695H250.848V197.711Z" fill="white"/>
<path d="M274.066 197.711H281.254V199.86H271.406V183.695H274.066V197.711Z" fill="white"/>
<path d="M302.928 196.542H296.16L294.994 199.836H292.24L298.027 183.648H301.084L306.871 199.836H304.071L302.928 196.542ZM302.181 194.37L299.544 186.848L296.884 194.37H302.181Z" fill="white"/>
<path d="M319.94 199.438C319.076 199.064 318.4 198.527 317.886 197.826C317.396 197.125 317.14 196.308 317.14 195.374H319.986C320.056 196.074 320.313 196.635 320.803 197.102C321.293 197.546 321.97 197.78 322.857 197.78C323.767 197.78 324.49 197.569 325.003 197.125C325.517 196.682 325.773 196.121 325.773 195.42C325.773 194.883 325.61 194.439 325.307 194.089C324.98 193.738 324.583 193.481 324.117 193.295C323.65 193.108 322.997 192.897 322.157 192.687C321.107 192.407 320.243 192.127 319.59 191.846C318.936 191.566 318.376 191.122 317.91 190.515C317.443 189.908 317.21 189.113 317.21 188.086C317.21 187.151 317.443 186.334 317.91 185.633C318.376 184.932 319.03 184.395 319.87 184.021C320.71 183.647 321.667 183.46 322.763 183.46C324.327 183.46 325.61 183.858 326.614 184.628C327.617 185.423 328.177 186.497 328.27 187.852H325.33C325.283 187.268 325.003 186.754 324.49 186.334C323.977 185.913 323.3 185.703 322.46 185.703C321.69 185.703 321.083 185.89 320.593 186.287C320.103 186.684 319.87 187.245 319.87 187.969C319.87 188.459 320.01 188.88 320.313 189.183C320.617 189.51 320.99 189.744 321.457 189.931C321.923 190.118 322.553 190.328 323.37 190.538C324.443 190.842 325.307 191.122 325.983 191.426C326.66 191.73 327.22 192.173 327.71 192.781C328.177 193.388 328.41 194.206 328.41 195.233C328.41 196.051 328.2 196.822 327.757 197.569C327.314 198.293 326.684 198.877 325.82 199.321C324.98 199.765 323.977 199.975 322.833 199.975C321.783 199.999 320.803 199.812 319.94 199.438Z" fill="white"/>
<path d="M148.66 139.338L155.357 139.455L150.037 143.519L151.997 149.943L146.49 146.136L141.006 149.99L142.92 143.566L137.553 139.525L144.25 139.362L146.42 133.031L148.66 139.338Z" fill="white"/>
<path d="M178.108 139.338L184.805 139.455L179.485 143.519L181.469 149.943L175.938 146.136L170.478 149.99L172.368 143.566L167.024 139.525L173.721 139.362L175.892 133.031L178.108 139.338Z" fill="white"/>
<path d="M207.584 139.338L214.281 139.455L208.961 143.519L210.921 149.943L205.414 146.136L199.93 149.99L201.844 143.566L196.5 139.525L203.197 139.362L205.367 133.031L207.584 139.338Z" fill="white"/>
<path d="M237.054 139.338L243.751 139.455L238.43 143.519L240.391 149.943L234.884 146.136L229.4 149.99L231.313 143.566L225.946 139.525L232.643 139.362L234.813 133.031L237.054 139.338Z" fill="white"/>
<path d="M266.509 139.338L273.206 139.455L267.886 143.519L269.869 149.943L264.339 146.136L258.878 149.99L260.792 143.566L255.425 139.525L262.122 139.362L264.292 133.031L266.509 139.338Z" fill="white"/>
</g>
<defs>
<clipPath id="clip0">
<rect width="410.785" height="200" fill="white"/>
</clipPath>
</defs>
</svg>
