<svg width="131" height="131" viewBox="0 0 131 131" fill="none" xmlns="http://www.w3.org/2000/svg">
<g clip-path="url(#clip0)">
<path d="M90.5567 91.1775C91.0924 91.1775 91.6082 91.1378 92.1241 90.9592C92.5805 90.7806 93.5328 90.4433 93.6916 90.4036V91.8719C91.2313 92.8044 88.2352 93.4592 86.0725 93.4592C83.7114 93.4592 81.8662 92.9235 80.517 91.8719C79.1678 90.8203 78.4138 89.6497 78.2749 88.3798V88.3005C76.6082 89.5703 74.6043 90.7608 72.263 91.8719C69.9217 92.983 67.5209 93.5386 65.0011 93.5386C62.7392 93.5386 60.5765 92.9036 58.513 91.614C56.4495 90.3243 55.4178 87.7846 55.4178 83.9552C55.4178 79.0544 57.1836 75.6616 60.7154 73.8362C64.2471 71.991 68.2947 71.0783 72.8582 71.0783C73.89 71.0783 75.4773 71.1775 77.64 71.3759C77.64 69.5505 77.6003 66.8917 77.5011 63.3402C77.4614 60.8402 77.3225 58.9751 77.1241 57.7449C76.9257 56.5148 76.4694 55.5425 75.7551 54.8283C75.0408 54.114 73.9098 53.7568 72.3225 53.7568C70.5963 53.7568 69.2074 54.1933 68.1559 55.0862C67.1043 55.979 66.3106 57.0108 65.7947 58.2211C65.2789 59.4314 64.7828 60.8997 64.2868 62.6854C63.89 64.2132 63.513 65.3243 63.136 66.0386C62.759 66.7529 62.2828 67.11 61.7074 67.11C60.8741 67.11 59.9813 66.3957 59.0289 64.9671C58.0765 63.5386 57.263 62.0505 56.6082 60.5029C55.9535 58.9552 55.5368 57.9433 55.3979 57.4473C61.1519 54.0148 66.7868 52.2886 72.3424 52.2886C77.5011 52.2886 81.2313 53.6179 83.5725 56.2568C85.894 58.9156 87.0646 62.983 87.0646 68.479V86.1576C87.0844 89.5108 88.2352 91.1775 90.5567 91.1775ZM78.1757 86.9116C78.0765 84.7489 77.9376 80.0465 77.7392 72.7648C76.013 72.4275 74.9614 72.229 74.5646 72.1695C74.267 72.1298 73.7511 72.0902 73.017 72.0902C70.7154 72.0902 68.6717 72.7251 66.9059 73.9751C65.14 75.2251 64.2471 77.5664 64.2471 80.9989C64.2471 83.7965 64.882 85.979 66.1717 87.5068C67.4416 89.0544 69.009 89.8282 70.894 89.8282C72.9376 89.8481 75.3781 88.8759 78.1757 86.9116Z" fill="#422D22"/>
<path d="M64.5648 93.5387L63.9695 91.872C63.5529 91.9514 63.1362 91.9712 62.7195 91.9315H47.4417C46.5489 84.6498 47.0648 49.372 50.4179 36.8918H37.6401C40.0409 74.8482 37.0846 93.5387 37.0846 93.5387H64.5648Z" fill="#422D22"/>
<path d="M116.032 29.3327L117.143 30.92L115.298 30.3644L114.147 31.8922L114.107 29.9676L112.282 29.3327L114.107 28.7176L114.147 26.793L115.298 28.3207L117.143 27.7652L116.032 29.3327Z" fill="#422D22"/>
<path d="M119.247 95.741L120.536 97.1695L118.651 96.8521L117.699 98.5188L117.421 96.614L115.536 96.2172L117.263 95.364L117.044 93.4592L118.394 94.8283L120.14 94.0346L119.247 95.741Z" fill="#422D22"/>
<path d="M13.3336 95.3249L15.0597 96.1583L13.1947 96.5749L12.9367 98.4797L11.9645 96.813L10.0597 97.1503L11.3494 95.7218L10.4367 94.0352L12.2026 94.7892L13.532 93.4202L13.3336 95.3249Z" fill="#422D22"/>
<path d="M17.1844 28.0236L18.9899 28.6784L17.1844 29.2736L17.105 31.1982L15.9741 29.6506L14.1288 30.1863L15.2399 28.6188L14.1685 27.0315L15.9939 27.6069L17.1844 26.099V28.0236Z" fill="#422D22"/>
<path d="M34.3262 16.4953L36.6873 15.0072L37.2627 15.9397L33.7508 18.1421L29.3659 11.1381L30.5167 10.4238L34.3262 16.4953Z" fill="#422D22"/>
<path d="M45.1199 10.4431L41.9056 11.7526L41.985 13.5383L40.6754 14.074L40.3183 5.28432L41.7667 4.68909L47.6199 11.2565L46.2905 11.7923L45.1199 10.4431ZM44.3461 9.57004L41.6476 6.51448L41.8262 10.5819L44.3461 9.57004Z" fill="#422D22"/>
<path d="M64.8036 0.166016L62.2639 8.63824L60.6964 8.73744L57.0258 0.70173L58.4742 0.602524L61.3909 7.30887L63.3948 0.285063L64.8036 0.166016Z" fill="#422D22"/>
<path d="M71.9051 0.622466L71.1512 8.85659L69.802 8.73755L70.5559 0.503418L71.9051 0.622466Z" fill="#422D22"/>
<path d="M77.4203 9.63051C77.0433 9.33289 76.7655 8.97575 76.6068 8.57892C76.4481 8.1821 76.4282 7.74559 76.5274 7.2694L77.9361 7.6067C77.8766 7.96384 77.956 8.2813 78.1346 8.55908C78.333 8.83686 78.6306 9.03527 79.0671 9.15432C79.5234 9.25353 79.9004 9.23368 80.2179 9.07495C80.5354 8.91622 80.7139 8.65829 80.8131 8.32099C80.8727 8.06305 80.8528 7.82495 80.7338 7.6067C80.6147 7.40829 80.456 7.22972 80.2377 7.07099C80.0195 6.91226 79.7219 6.73368 79.325 6.53527C78.829 6.27733 78.452 6.0194 78.1544 5.80114C77.8568 5.58289 77.6385 5.28527 77.4798 4.92813C77.3211 4.57099 77.3012 4.13448 77.4203 3.63845C77.5393 3.1821 77.7377 2.80511 78.0552 2.50749C78.3727 2.20987 78.7695 2.0313 79.2258 1.95194C79.6822 1.87257 80.1981 1.89241 80.7338 2.0313C81.5076 2.22972 82.1028 2.56702 82.4996 3.08289C82.8965 3.59876 83.0552 4.194 82.9361 4.88845L81.5076 4.5313C81.5473 4.23368 81.4877 3.95591 81.2695 3.67813C81.0711 3.40035 80.7536 3.22178 80.3369 3.12257C79.96 3.02337 79.6227 3.04321 79.3449 3.1821C79.0671 3.32099 78.8687 3.55908 78.7893 3.93606C78.7298 4.17416 78.7496 4.41226 78.8687 4.59083C78.9877 4.78924 79.1465 4.94797 79.3449 5.1067C79.5631 5.26543 79.8409 5.444 80.2179 5.64241C80.7139 5.92019 81.1108 6.17813 81.4084 6.39638C81.706 6.61464 81.9441 6.91226 82.1028 7.28924C82.2615 7.64638 82.2814 8.08289 82.1623 8.59876C82.0631 9.01543 81.8647 9.37257 81.5473 9.67019C81.2298 9.98765 80.8528 10.1861 80.3766 10.3051C79.9004 10.4242 79.3846 10.4043 78.8092 10.2654C78.2735 10.1464 77.8171 9.92813 77.4203 9.63051Z" fill="#422D22"/>
<path d="M94.3857 7.06997L93.9293 8.08188L91.9254 7.18902L89.0087 13.7366L87.7587 13.1811L90.6754 6.63347L88.6714 5.72077L89.1278 4.70886L94.3857 7.06997Z" fill="#422D22"/>
<path d="M100.081 18.3004L97.2435 16.3163L95.795 17.3679L94.6244 16.5544L101.787 11.4552L103.077 12.3481L100.775 20.8401L99.6046 20.0266L100.081 18.3004ZM100.398 17.1695L101.489 13.2409L98.176 15.6219L100.398 17.1695Z" fill="#422D22"/>
<path d="M121.53 48.7975C122.363 49.3729 123.038 49.8293 123.554 50.1467C124.07 50.4642 124.605 50.7221 125.121 50.8809C125.637 51.0396 126.113 51.0793 126.57 50.9602C127.026 50.8412 127.363 50.6428 127.562 50.3451C127.76 50.0674 127.8 49.6904 127.681 49.2142C127.562 48.7578 127.324 48.4404 126.986 48.2618C126.629 48.0832 126.212 48.0436 125.716 48.1626L125.399 46.8928C126.292 46.6943 127.026 46.7737 127.621 47.1705C128.216 47.5674 128.613 48.1428 128.812 48.9166C129.03 49.7499 128.97 50.4642 128.633 51.0594C128.296 51.6547 127.74 52.0515 126.966 52.2499C126.411 52.3888 125.835 52.3888 125.26 52.2301C124.685 52.0713 124.129 51.8729 123.633 51.5753C123.137 51.2777 122.542 50.9205 121.847 50.4642L121.252 50.0674L122.185 53.7182L121.093 53.9959L119.665 48.4007L120.617 48.1626L121.53 48.7975Z" fill="#422D22"/>
<path d="M129.385 58.5799C130.179 58.9966 130.635 59.7704 130.695 60.9013C130.774 62.0323 130.437 62.8656 129.702 63.3815C128.968 63.8974 127.897 64.195 126.528 64.2942C125.139 64.3934 124.048 64.2347 123.234 63.818C122.421 63.4013 121.984 62.6275 121.905 61.4966C121.825 60.3656 122.163 59.5323 122.917 59.0164C123.671 58.5005 124.742 58.2029 126.111 58.1037C127.5 58.0243 128.572 58.1831 129.385 58.5799ZM128.056 62.7267C128.492 62.6077 128.849 62.4291 129.107 62.1513C129.365 61.8735 129.484 61.4966 129.445 61.0005C129.405 60.5045 129.246 60.1275 128.949 59.9093C128.651 59.6712 128.274 59.5323 127.818 59.4727C127.361 59.4132 126.825 59.4132 126.191 59.4529C125.536 59.4926 124.96 59.572 124.524 59.691C124.087 59.8101 123.73 59.9886 123.472 60.2664C123.214 60.5442 123.095 60.9212 123.135 61.437C123.175 61.9529 123.333 62.3101 123.631 62.5482C123.929 62.7862 124.306 62.9251 124.762 62.9847C125.218 63.0243 125.774 63.0442 126.449 62.9847C127.083 62.9053 127.619 62.8259 128.056 62.7267Z" fill="#422D22"/>
<path d="M123.691 70.1666C124.247 70.9999 124.723 71.6547 125.1 72.1507C125.477 72.6269 125.874 73.0634 126.29 73.4007C126.707 73.738 127.144 73.9563 127.6 73.9959C128.076 74.0555 128.453 73.9761 128.751 73.7975C129.048 73.5991 129.227 73.2618 129.286 72.7856C129.346 72.3293 129.247 71.9523 128.969 71.6547C128.711 71.3571 128.334 71.1785 127.838 71.0991L127.997 69.7896C128.89 69.9285 129.544 70.2658 129.961 70.8412C130.378 71.4166 130.536 72.0912 130.437 72.9047C130.338 73.7579 130.021 74.4126 129.485 74.8293C128.949 75.246 128.294 75.4245 127.501 75.3253C126.925 75.2658 126.409 75.0475 125.913 74.6904C125.417 74.3333 125.001 73.9364 124.624 73.4999C124.247 73.0634 123.83 72.488 123.374 71.8134L122.957 71.2182L122.521 74.9682L121.39 74.8293L122.064 69.0753L123.056 69.1944L123.691 70.1666Z" fill="#422D22"/>
<path d="M127.481 81.0202L128.672 81.3575L127.997 83.7384L119.644 81.3972L120.021 80.0876L127.184 82.1115L127.481 81.0202Z" fill="#422D22"/>
<path d="M9.24591 81.9313C8.41258 81.3559 7.73798 80.9194 7.2221 80.602C6.70623 80.2845 6.17052 80.0464 5.65464 79.8678C5.13877 79.7091 4.66258 79.6694 4.20623 79.7885C3.74988 79.9075 3.41258 80.1059 3.21417 80.4035C3.01575 80.7012 2.97607 81.0781 3.09512 81.5345C3.21417 81.9908 3.45226 82.3083 3.8094 82.467C4.16655 82.6456 4.58321 82.6654 5.07925 82.5662L5.41655 83.8361C4.52369 84.0345 3.78956 83.9551 3.19432 83.5781C2.59909 83.2012 2.18242 82.6258 1.98401 81.852C1.76575 81.0186 1.82528 80.3043 2.16258 79.7091C2.49988 79.1139 3.05544 78.717 3.82924 78.5186C4.3848 78.3797 4.94036 78.3797 5.53559 78.5186C6.11099 78.6575 6.66655 78.8758 7.16258 79.1535C7.65861 79.4313 8.27369 79.8083 8.94829 80.2647L9.54353 80.6615L8.59115 77.0107L9.68242 76.7329L11.1507 82.3281L10.1983 82.5861L9.24591 81.9313Z" fill="#422D22"/>
<path d="M1.34965 72.189C0.536161 71.7922 0.0996533 71.0183 0.0202882 69.8874C-0.0590769 68.7564 0.258383 67.9231 1.01235 67.4072C1.74648 66.8914 2.79807 66.5739 4.16711 66.4747C5.556 66.3755 6.64727 66.5342 7.46077 66.931C8.27426 67.3279 8.71077 68.1017 8.80997 69.2326C8.88934 70.3636 8.55204 71.1969 7.81791 71.7128C7.06394 72.2287 6.01235 72.5461 4.62346 72.6453C3.23457 72.7445 2.1433 72.5858 1.34965 72.189ZM2.63934 68.0421C2.20283 68.1612 1.84569 68.3596 1.58775 68.6175C1.32981 68.8755 1.21076 69.2723 1.25045 69.7683C1.29013 70.2644 1.44886 70.6414 1.74648 70.8596C2.0441 71.0977 2.42108 71.2366 2.87743 71.2763C3.33378 71.3358 3.8695 71.3358 4.50442 71.2763C5.15918 71.2366 5.73457 71.1572 6.17108 71.0382C6.60759 70.9191 6.96473 70.7406 7.22267 70.4628C7.48061 70.185 7.59965 69.808 7.55997 69.2922C7.52029 68.7961 7.36156 68.4191 7.06394 68.181C6.76632 67.9429 6.38934 67.8041 5.93299 67.7644C5.47664 67.7247 4.92108 67.7247 4.24648 67.7644C3.61156 67.8437 3.07584 67.9231 2.63934 68.0421Z" fill="#422D22"/>
<path d="M6.98599 60.5823C6.4106 59.749 5.95425 59.0942 5.57726 58.5982C5.20028 58.122 4.80345 57.7053 4.36695 57.368C3.95028 57.0307 3.49393 56.8323 3.03758 56.7728C2.56139 56.7133 2.18441 56.7926 1.88679 56.9911C1.58917 57.1895 1.4106 57.5268 1.37092 58.003C1.31139 58.4593 1.43044 58.8363 1.68838 59.1339C1.94631 59.4315 2.34314 59.6101 2.83917 59.6696L2.68044 60.9791C1.78758 60.8601 1.13282 60.503 0.716153 59.9276C0.299486 59.3522 0.140756 58.6776 0.220121 57.8839C0.319328 57.0307 0.636788 56.376 1.15266 55.9395C1.68838 55.503 2.34314 55.3442 3.13679 55.4236C3.71219 55.4831 4.22806 55.7014 4.72409 56.0387C5.22012 56.376 5.63679 56.7728 6.01377 57.2291C6.39076 57.6657 6.80742 58.2411 7.28361 58.9157L7.70028 59.4911L8.11695 55.7411L9.2479 55.8601L8.59314 61.6141L7.60107 61.495L6.98599 60.5823Z" fill="#422D22"/>
<path d="M3.11443 49.7485L1.92395 49.4112L2.57871 47.0303L10.9517 49.3319L10.5946 50.6612L3.41205 48.6771L3.11443 49.7485Z" fill="#422D22"/>
<path d="M104.583 107.568L102.519 109.453L101.785 108.639L104.861 105.842L110.436 111.953L109.444 112.865L104.583 107.568Z" fill="#422D22"/>
<path d="M101.665 119.056L98.8471 114.611C98.5098 114.076 98.113 113.778 97.6765 113.679C97.2201 113.58 96.7638 113.699 96.2678 114.016C95.7717 114.334 95.4543 114.711 95.3551 115.167C95.2559 115.604 95.3551 116.1 95.6924 116.635L98.5098 121.08L97.359 121.814L94.5416 117.389C94.1844 116.814 94.0059 116.258 93.986 115.703C93.9662 115.147 94.1249 114.651 94.4225 114.195C94.7201 113.738 95.117 113.342 95.613 113.024C96.109 112.707 96.6249 112.508 97.1606 112.449C97.6963 112.389 98.2122 112.469 98.7082 112.707C99.2043 112.945 99.6209 113.361 99.9979 113.917L102.815 118.342L101.665 119.056Z" fill="#422D22"/>
<path d="M86.4076 122.25L82.5188 119.314L83.9473 118.758L86.7648 120.881L87.3203 117.448L88.7291 116.913L87.8164 121.694L91.7053 124.631L90.2767 125.167L87.4394 123.024L86.8838 126.476L85.4751 127.012L86.4076 122.25Z" fill="#422D22"/>
<path d="M77.9744 127.806L77.5379 125.425L74.7204 125.941L74.522 124.85L77.3395 124.334L76.8831 121.834L73.7284 122.429L73.53 121.338L78.0141 120.505L79.5419 128.64L75.0577 129.473L74.8593 128.382L77.9744 127.806Z" fill="#422D22"/>
<path d="M54.1842 129.293L58.1921 121.417L59.7596 121.595L61.9421 130.166L60.4937 130.008L58.827 122.905L55.6127 129.472L54.1842 129.293Z" fill="#422D22"/>
<path d="M47.3008 127.607L49.5032 119.631L50.8127 119.988L48.6104 127.964L47.3008 127.607Z" fill="#422D22"/>
<path d="M42.9752 118.481L40.3958 117.39L40.8323 116.378L44.6418 118.025L41.3879 125.624L40.1379 125.088L42.9752 118.481Z" fill="#422D22"/>
<path d="M35.2569 114.512L32.8759 113.044L33.4513 112.111L36.9831 114.294L32.618 121.318L31.4672 120.603L35.2569 114.512Z" fill="#422D22"/>
<path d="M25.0781 107.468L27.6575 109.79L29.2249 108.937L30.2765 109.889L22.5384 114.075L21.3678 113.024L24.7011 104.869L25.7726 105.822L25.0781 107.468ZM24.6218 108.56L23.0543 112.31L26.6257 110.365L24.6218 108.56Z" fill="#422D22"/>
</g>
<defs>
<clipPath id="clip0">
<rect width="130.714" height="130" fill="white" transform="translate(0 0.166016)"/>
</clipPath>
</defs>
</svg>
