<svg width="24" height="35" viewBox="0 0 24 35" fill="none" xmlns="http://www.w3.org/2000/svg">
<path d="M20.9928 34.4389H2.49914C1.83633 34.4389 1.20066 34.1797 0.731981 33.7184C0.263301 33.2571 0 32.6314 0 31.979V2.45992C0 1.80751 0.263301 1.18182 0.731981 0.720494C1.20066 0.259169 1.83633 0 2.49914 0H20.9928C21.6556 0 22.2912 0.259169 22.7599 0.720494C23.2286 1.18182 23.4919 1.80751 23.4919 2.45992V31.979C23.4919 32.6314 23.2286 33.2571 22.7599 33.7184C22.2912 34.1797 21.6556 34.4389 20.9928 34.4389ZM2.49914 0.983968C2.10145 0.983968 1.72005 1.13947 1.43884 1.41626C1.15764 1.69306 0.999656 2.06847 0.999656 2.45992V31.979C0.999656 32.3704 1.15764 32.7458 1.43884 33.0226C1.72005 33.2994 2.10145 33.4549 2.49914 33.4549H20.9928C21.3905 33.4549 21.7719 33.2994 22.0531 33.0226C22.3343 32.7458 22.4923 32.3704 22.4923 31.979V2.45992C22.4923 2.06847 22.3343 1.69306 22.0531 1.41626C21.7719 1.13947 21.3905 0.983968 20.9928 0.983968H2.49914Z" fill="#422D22"/>
<path d="M19.998 16.2347H3.50373C3.37117 16.2347 3.24404 16.1829 3.1503 16.0906C3.05657 15.9984 3.00391 15.8732 3.00391 15.7427V3.44316C3.00391 3.31267 3.05657 3.18754 3.1503 3.09527C3.24404 3.00301 3.37117 2.95117 3.50373 2.95117H19.998C20.1306 2.95117 20.2577 3.00301 20.3514 3.09527C20.4452 3.18754 20.4978 3.31267 20.4978 3.44316V15.7427C20.4978 15.8732 20.4452 15.9984 20.3514 16.0906C20.2577 16.1829 20.1306 16.2347 19.998 16.2347ZM4.00356 15.2508H19.4982V3.93514H4.00356V15.2508Z" fill="#422D22"/>
<path d="M11.7481 30.5014C10.6607 30.5014 9.59769 30.184 8.69353 29.5893C7.78937 28.9947 7.08466 28.1494 6.66852 27.1606C6.25238 26.1717 6.1435 25.0836 6.35565 24.0338C6.56779 22.984 7.09144 22.0197 7.86036 21.2628C8.62929 20.506 9.60896 19.9905 10.6755 19.7817C11.742 19.5729 12.8475 19.6801 13.8522 20.0897C14.8568 20.4993 15.7155 21.1929 16.3196 22.0829C16.9238 22.9729 17.2462 24.0192 17.2462 25.0896C17.2462 26.5249 16.667 27.9014 15.6359 28.9163C14.6048 29.9312 13.2063 30.5014 11.7481 30.5014ZM11.7481 20.6617C10.8584 20.6617 9.98867 20.9214 9.24891 21.4079C8.50914 21.8945 7.93256 22.586 7.59208 23.3951C7.25161 24.2042 7.16252 25.0945 7.3361 25.9534C7.50967 26.8123 7.93811 27.6013 8.56723 28.2205C9.19635 28.8398 9.99789 29.2615 10.8705 29.4323C11.7431 29.6032 12.6476 29.5155 13.4696 29.1804C14.2916 28.8452 14.9941 28.2777 15.4884 27.5495C15.9827 26.8214 16.2466 25.9653 16.2466 25.0896C16.2466 23.9152 15.7726 22.789 14.929 21.9586C14.0854 21.1282 12.9412 20.6617 11.7481 20.6617Z" fill="#422D22"/>
</svg>
