<svg width="29" height="29" viewBox="0 0 29 29" fill="none" xmlns="http://www.w3.org/2000/svg">
<path d="M20.7067 9.83345C20.0534 9.83345 19.5216 9.31 19.5216 8.66698C19.5216 7.38032 18.4586 6.33398 17.1514 6.33398H15.3738C15.0463 6.33398 14.7812 6.59486 14.7812 6.91725C14.7812 7.23963 15.0463 7.50051 15.3738 7.50051H17.1514C17.8047 7.50051 18.3365 8.02395 18.3365 8.66698C18.3365 9.95363 19.3994 10.9999 20.7067 10.9999C21.3599 10.9999 21.8917 11.5234 21.8917 12.1664V13.9161C21.8917 14.2385 22.1568 14.4994 22.4843 14.4994C22.8118 14.4994 23.0768 14.2385 23.0768 13.9161V12.1664C23.0768 10.8797 22.0138 9.83345 20.7067 9.83345Z" fill="#422D22" fill-opacity="0.9"/>
<path d="M20.1103 13.332H18.9252C18.5983 13.332 18.3326 13.0705 18.3326 12.7487C18.3326 11.7838 17.5353 10.999 16.555 10.999C16.2281 10.999 15.9625 10.7376 15.9625 10.4157V9.24927C15.9625 8.92689 15.6974 8.66602 15.3699 8.66602C15.0424 8.66602 14.7773 8.92689 14.7773 9.24927V10.4157C14.7773 11.3806 15.5747 12.1654 16.555 12.1654C16.8819 12.1654 17.1475 12.4269 17.1475 12.7487C17.1475 13.7136 17.9449 14.4984 18.9251 14.4984H20.1103C20.4378 14.4984 20.7028 14.2375 20.7028 13.9152C20.7028 13.5928 20.4378 13.332 20.1103 13.332Z" fill="#422D22" fill-opacity="0.9"/>
<path d="M14.7796 0.501953C6.93825 0.501953 0.558594 6.78148 0.558594 14.4997C0.558594 22.2179 6.93825 28.4975 14.7796 28.4975C22.6209 28.4975 29.0005 22.2179 29.0005 14.4997C29.0005 6.78148 22.6209 0.501953 14.7796 0.501953ZM14.7796 27.331C7.59152 27.331 1.74365 21.5749 1.74365 14.4997C1.74365 11.1716 3.04843 8.14538 5.16713 5.86288L15.1267 15.6662H7.07651C6.74899 15.6662 6.48396 15.927 6.48396 16.2494V18.5824C6.48396 18.9048 6.74899 19.1657 7.07651 19.1657H18.682L23.5541 23.9613C21.2352 26.0467 18.1607 27.331 14.7796 27.331ZM16.3118 16.8327L17.4969 17.9992H7.66907V16.8327H16.3118V16.8327ZM17.9876 16.8327H19.5199V17.9992H19.1727L17.9876 16.8327ZM24.392 23.1365L20.3578 19.1657H22.4826C22.8101 19.1657 23.0751 18.9048 23.0751 18.5824V16.2494C23.0751 15.927 22.8101 15.6662 22.4826 15.6662H16.8025L6.005 5.03816C8.3239 2.95276 11.3984 1.66841 14.7796 1.66841C21.9676 1.66841 27.8154 7.4245 27.8154 14.4997C27.8154 17.8278 26.5106 20.854 24.392 23.1365ZM20.705 17.9992V16.8327H21.89V17.9992H20.705Z" fill="#422D22" fill-opacity="0.9"/>
</svg>
