<svg width="16" height="13" viewBox="0 0 16 13" fill="none" xmlns="http://www.w3.org/2000/svg">
<path d="M14.5938 0.476562H1.40625C0.631813 0.476562 0 1.10769 0 1.88281V11.2578C0 12.0303 0.629 12.6641 1.40625 12.6641H14.5938C15.3663 12.6641 16 12.0351 16 11.2578V1.88281C16 1.11031 15.371 0.476562 14.5938 0.476562ZM14.3996 1.41406L8.02981 7.78384L1.60497 1.41406H14.3996ZM0.9375 11.0637V2.07247L5.45247 6.54872L0.9375 11.0637ZM1.60041 11.7266L6.11822 7.20875L7.70125 8.77819C7.8845 8.95988 8.18022 8.95928 8.36272 8.77675L9.90625 7.23322L14.3996 11.7266H1.60041ZM15.0625 11.0637L10.5692 6.57031L15.0625 2.07694V11.0637Z" fill="white"/>
</svg>
