<svg width="131" height="130" viewBox="0 0 131 130" fill="none" xmlns="http://www.w3.org/2000/svg">
<path d="M115.893 29.1666L117.004 30.7341L115.159 30.1785L114.008 31.7063L113.968 29.8016L112.143 29.1666L113.968 28.5317L114.008 26.627L115.159 28.1547L117.004 27.5992L115.893 29.1666Z" fill="#422D22"/>
<path d="M119.127 95.5754L120.397 97.004L118.512 96.6866L117.56 98.3334L117.282 96.4485L115.397 96.0516L117.123 95.1985L116.905 93.2937L118.254 94.6627L120 93.8691L119.127 95.5754Z" fill="#422D22"/>
<path d="M13.2143 95.1587L14.9206 95.9921L13.0555 96.4087L12.7976 98.2936L11.8254 96.6468L9.92062 96.9841L11.2103 95.5555L10.2976 93.8492L12.0635 94.623L13.3928 93.2341L13.2143 95.1587Z" fill="#422D22"/>
<path d="M17.0437 27.8371L18.8492 28.4919L17.0437 29.107L16.9841 31.0117L15.8334 29.484L13.9881 30.0197L15.0992 28.4522L14.0278 26.8649L15.8532 27.4403L17.0437 25.9324V27.8371Z" fill="#422D22"/>
<path d="M34.2659 16.3294L36.627 14.8413L37.2024 15.7738L33.6905 17.9762L29.2857 10.9722L30.4365 10.2579L34.2659 16.3294Z" fill="#422D22"/>
<path d="M45.0595 10.2976L41.8452 11.5873L41.9246 13.373L40.6151 13.9087L40.2579 5.11904L41.7063 4.5238L47.5595 11.0913L46.2302 11.627L45.0595 10.2976ZM44.2857 9.40476L41.6071 6.3492L41.7857 10.4167L44.2857 9.40476Z" fill="#422D22"/>
<path d="M64.7619 0L62.2222 8.47222L60.6548 8.57143L56.9841 0.535714L58.4325 0.436508L61.3492 7.14286L63.3532 0.119048L64.7619 0Z" fill="#422D22"/>
<path d="M71.8651 0.45645L71.1111 8.69058L69.7619 8.57153L70.5159 0.337402L71.8651 0.45645Z" fill="#422D22"/>
<path d="M77.3611 9.46425C76.9841 9.16663 76.7064 8.82933 76.5476 8.41266C76.3889 7.996 76.3691 7.57933 76.4683 7.10314L77.877 7.44044C77.8175 7.79758 77.8968 8.11504 78.0754 8.39282C78.254 8.6706 78.5714 8.86901 79.0079 8.98806C79.4643 9.10711 79.8413 9.06742 80.1587 8.90869C80.4762 8.74996 80.6548 8.49203 80.754 8.15473C80.8135 7.87695 80.7937 7.63885 80.6746 7.44044C80.5556 7.22219 80.3968 7.06346 80.1786 6.90473C79.9603 6.746 79.6627 6.56742 79.2659 6.36901C78.7698 6.11107 78.3929 5.85314 78.0952 5.63488C77.7976 5.41663 77.5794 5.11901 77.4206 4.76187C77.2619 4.40473 77.2421 3.96822 77.3611 3.47219C77.4802 3.01584 77.6786 2.63885 77.996 2.34123C78.3135 2.04361 78.7103 1.86504 79.1667 1.78568C79.623 1.70631 80.1389 1.72615 80.6746 1.86504C81.4484 2.06346 82.0437 2.40076 82.4405 2.91663C82.8373 3.4325 82.996 4.02774 82.877 4.72219L81.4484 4.36504C81.4881 4.06742 81.4286 3.78965 81.2103 3.51187C81.0119 3.23409 80.6944 3.05552 80.2778 2.95631C79.9008 2.85711 79.5635 2.87695 79.2857 3.01584C79.0079 3.15473 78.8095 3.39282 78.7302 3.7698C78.6706 4.0079 78.6905 4.22615 78.8095 4.42457C78.9286 4.62298 79.0873 4.80155 79.2857 4.94044C79.504 5.09917 79.7818 5.27774 80.1587 5.47615C80.6548 5.75393 81.0516 6.01187 81.3492 6.23012C81.6468 6.44838 81.8849 6.746 82.0437 7.12298C82.2024 7.48012 82.2222 7.91663 82.1032 8.4325C82.004 8.84917 81.8056 9.20631 81.4881 9.50393C81.1706 9.80155 80.7937 10.0198 80.3175 10.1389C79.8413 10.2579 79.3254 10.2381 78.75 10.0992C78.2143 9.98012 77.7579 9.76187 77.3611 9.46425Z" fill="#422D22"/>
<path d="M94.3453 6.90481L93.8889 7.91672L91.8849 7.02386L88.9683 13.5715L87.7381 13.0159L90.6548 6.4683L88.6111 5.55561L89.0675 4.5437L94.3453 6.90481Z" fill="#422D22"/>
<path d="M100.02 18.1349L97.1825 16.1508L95.7341 17.2024L94.5635 16.3889L101.726 11.2897L103.016 12.1825L100.714 20.6746L99.5436 19.8611L100.02 18.1349ZM100.357 17.004L101.448 13.0754L98.1349 15.4563L100.357 17.004Z" fill="#422D22"/>
<path d="M121.389 48.6905C122.222 49.2659 122.897 49.7222 123.413 50.0397C123.929 50.3571 124.444 50.6151 124.98 50.7738C125.496 50.9524 125.972 50.9722 126.429 50.8532C126.885 50.7341 127.222 50.5357 127.421 50.2381C127.619 49.9405 127.659 49.5833 127.54 49.1071C127.421 48.6508 127.183 48.3333 126.845 48.1548C126.488 47.9762 126.071 47.9365 125.575 48.0555L125.258 46.7857C126.131 46.5873 126.885 46.6667 127.48 47.0635C128.075 47.4405 128.472 48.0357 128.671 48.8095C128.889 49.6428 128.829 50.3571 128.492 50.9524C128.155 51.5476 127.599 51.9444 126.825 52.1428C126.27 52.2817 125.694 52.2817 125.119 52.123C124.544 51.9643 123.988 51.7659 123.492 51.4682C122.996 51.1905 122.401 50.8135 121.706 50.3373L121.111 49.9405L122.044 53.5913L120.952 53.869L119.504 48.2738L120.456 48.0357L121.389 48.6905Z" fill="#422D22"/>
<path d="M129.246 58.4921C130.04 58.9088 130.496 59.6826 130.556 60.8135C130.615 61.9445 130.298 62.7778 129.563 63.2937C128.829 63.8096 127.758 64.1072 126.409 64.2064C125.02 64.3056 123.929 64.1469 123.115 63.7302C122.302 63.3135 121.865 62.5397 121.786 61.4088C121.706 60.2778 122.044 59.4445 122.798 58.9286C123.552 58.4127 124.623 58.1151 125.992 58.0159C127.361 57.9167 128.433 58.0754 129.246 58.4921ZM127.917 62.6191C128.353 62.5 128.71 62.3215 128.968 62.0437C129.226 61.7659 129.345 61.3889 129.306 60.8929C129.266 60.3969 129.107 60.0199 128.81 59.8016C128.512 59.5635 128.135 59.4247 127.698 59.3651C127.242 59.3056 126.706 59.3056 126.071 59.3453C125.397 59.385 124.841 59.4643 124.405 59.5834C123.968 59.7024 123.611 59.881 123.353 60.1588C123.095 60.4366 122.976 60.8135 123.016 61.3294C123.056 61.8453 123.214 62.2024 123.512 62.4405C123.81 62.6786 124.187 62.8175 124.643 62.877C125.099 62.9167 125.655 62.9366 126.329 62.877C126.944 62.7977 127.48 62.7183 127.917 62.6191Z" fill="#422D22"/>
<path d="M123.552 70.0596C124.107 70.8929 124.583 71.5477 124.96 72.0437C125.337 72.5398 125.734 72.9564 126.151 73.2937C126.567 73.631 127.024 73.8493 127.48 73.889C127.956 73.9485 128.333 73.8691 128.631 73.6905C128.929 73.4921 129.107 73.1548 129.167 72.6786C129.226 72.2223 129.107 71.8453 128.849 71.5477C128.591 71.2501 128.194 71.0715 127.718 70.9921L127.877 69.6826C128.77 69.8215 129.425 70.1588 129.841 70.7342C130.258 71.3096 130.417 71.9842 130.317 72.7778C130.218 73.631 129.901 74.2858 129.365 74.7025C128.829 75.139 128.175 75.2977 127.381 75.1985C126.806 75.139 126.29 74.9207 125.794 74.5636C125.298 74.2064 124.881 73.8096 124.504 73.3731C124.127 72.9167 123.71 72.3612 123.254 71.6866L122.837 71.0913L122.401 74.8413L121.27 74.7025L121.944 68.9485L122.937 69.0675L123.552 70.0596Z" fill="#422D22"/>
<path d="M127.361 80.9128L128.552 81.2501L127.877 83.631L119.524 81.2897L119.901 79.9802L127.064 81.9842L127.361 80.9128Z" fill="#422D22"/>
<path d="M9.24604 81.7856C8.41271 81.2102 7.73811 80.7737 7.22223 80.4562C6.70636 80.1387 6.17065 79.9007 5.65477 79.7221C5.1389 79.5435 4.66271 79.5237 4.20636 79.6427C3.75001 79.7618 3.41271 79.9602 3.2143 80.2578C3.01588 80.5356 2.9762 80.9126 3.09525 81.3888C3.2143 81.8451 3.45239 82.1626 3.80954 82.3213C4.16668 82.48 4.58335 82.5197 5.07938 82.4205L5.41668 83.6903C4.54366 83.8888 3.78969 83.8094 3.19446 83.4324C2.59922 83.0554 2.20239 82.48 2.00398 81.7062C1.78573 80.8729 1.84525 80.1586 2.18255 79.5634C2.51985 78.9681 3.07541 78.5713 3.82938 78.3729C4.38493 78.234 4.96033 78.234 5.53573 78.3729C6.11112 78.5118 6.66668 78.73 7.16271 79.0078C7.65874 79.2856 8.25398 79.6626 8.94843 80.1189L9.54366 80.5157L8.59128 76.8649L9.68255 76.5872L11.1508 82.1824L10.1984 82.4403L9.24604 81.7856Z" fill="#422D22"/>
<path d="M1.34921 72.0236C0.535719 71.6069 0.0992108 70.8529 0.0198457 69.722C-0.0595194 68.591 0.257941 67.7577 1.01191 67.2418C1.76588 66.7259 2.79762 66.4085 4.16667 66.3093C5.55556 66.2101 6.64683 66.3688 7.46032 66.7656C8.27381 67.1625 8.71032 67.9363 8.80953 69.0672C8.88889 70.1982 8.55159 71.0315 7.81746 71.5474C7.0635 72.0632 6.01191 72.3807 4.62302 72.4799C3.23413 72.599 2.14286 72.4402 1.34921 72.0236ZM2.63889 67.8966C2.20239 68.0156 1.84524 68.214 1.58731 68.472C1.32937 68.7498 1.21032 69.1267 1.25 69.6228C1.28969 70.1188 1.44842 70.4958 1.74604 70.714C2.04366 70.9521 2.42064 71.091 2.87699 71.1307C3.33334 71.1902 3.86905 71.1902 4.50397 71.1307C5.17858 71.091 5.73413 71.0117 6.17064 70.8926C6.60715 70.7736 6.96429 70.595 7.22223 70.3172C7.48016 70.0394 7.59921 69.6624 7.55953 69.1466C7.51985 68.6505 7.36112 68.2736 7.0635 68.0355C6.76588 67.7974 6.38889 67.6585 5.93254 67.6188C5.47619 67.5791 4.92064 67.5791 4.24604 67.6188C3.61112 67.6982 3.0754 67.7775 2.63889 67.8966Z" fill="#422D22"/>
<path d="M6.98414 60.4365C6.40874 59.6032 5.95239 58.9484 5.57541 58.4524C5.19843 57.9762 4.8016 57.5595 4.38493 57.2024C3.96827 56.8651 3.51192 56.6667 3.05557 56.6071C2.57938 56.5476 2.20239 56.627 1.90478 56.8254C1.60716 57.0238 1.42858 57.3611 1.3889 57.8373C1.32938 58.2937 1.44843 58.6706 1.70636 58.9683C1.9643 59.2659 2.34128 59.4444 2.83732 59.5238L2.67859 60.8135C1.78573 60.6944 1.13097 60.3373 0.714299 59.7619C0.297632 59.1865 0.138902 58.5119 0.218267 57.7183C0.317474 56.8651 0.634934 56.2103 1.15081 55.7738C1.68652 55.3373 2.34128 55.1786 3.13493 55.2579C3.71033 55.3175 4.2262 55.5357 4.72224 55.873C5.21827 56.2103 5.63493 56.627 6.01192 57.0635C6.3889 57.5 6.80557 58.0754 7.28176 58.75L7.69843 59.3452L8.11509 55.5952L9.24605 55.7143L8.59128 61.4683L7.59922 61.3492L6.98414 60.4365Z" fill="#422D22"/>
<path d="M3.11508 49.603L1.92461 49.2657L2.57937 46.8848L10.9524 49.1864L10.5952 50.5157L3.4127 48.5316L3.11508 49.603Z" fill="#422D22"/>
<path d="M104.444 107.401L102.381 109.286L101.647 108.472L104.702 105.675L110.278 111.786L109.286 112.698L104.444 107.401Z" fill="#422D22"/>
<path d="M101.548 118.889L98.7302 114.445C98.3929 113.909 97.996 113.611 97.5595 113.512C97.1032 113.413 96.6468 113.532 96.1508 113.849C95.6548 114.167 95.3373 114.544 95.2381 115C95.1389 115.437 95.2381 115.933 95.5754 116.468L98.3929 120.913L97.2222 121.627L94.4048 117.203C94.0476 116.627 93.8691 116.072 93.8492 115.516C93.8492 114.961 93.9881 114.464 94.2857 114.008C94.5833 113.552 94.9802 113.155 95.4762 112.837C95.9722 112.52 96.4881 112.322 97.0437 112.262C97.5794 112.203 98.0952 112.282 98.5913 112.52C99.0873 112.758 99.504 113.175 99.881 113.73L102.698 118.155L101.548 118.889Z" fill="#422D22"/>
<path d="M86.2698 122.083L82.381 119.147L83.8095 118.591L86.627 120.714L87.1825 117.282L88.5913 116.746L87.6786 121.528L91.5675 124.464L90.1389 125L87.3016 122.877L86.746 126.329L85.3373 126.865L86.2698 122.083Z" fill="#422D22"/>
<path d="M77.8373 127.619L77.4008 125.238L74.5833 125.754L74.3849 124.663L77.2024 124.147L76.746 121.647L73.5913 122.242L73.3929 121.151L77.877 120.318L79.4048 128.453L74.9206 129.286L74.7222 128.195L77.8373 127.619Z" fill="#422D22"/>
<path d="M54.0476 129.127L58.0556 121.25L59.623 121.429L61.8056 130L60.3572 129.841L58.6905 122.738L55.4762 129.306L54.0476 129.127Z" fill="#422D22"/>
<path d="M47.1627 127.421L49.3651 119.444L50.6746 119.801L48.4722 127.778L47.1627 127.421Z" fill="#422D22"/>
<path d="M42.8373 118.294L40.2579 117.202L40.6944 116.19L44.504 117.837L41.25 125.436L40 124.901L42.8373 118.294Z" fill="#422D22"/>
<path d="M35.119 114.345L32.7381 112.877L33.3135 111.944L36.8452 114.127L32.4802 121.151L31.3294 120.436L35.119 114.345Z" fill="#422D22"/>
<path d="M24.9405 107.302L27.5198 109.623L29.0873 108.77L30.1389 109.722L22.4008 113.909L21.2302 112.857L24.5635 104.702L25.6349 105.655L24.9405 107.302ZM24.4841 108.373L22.9167 112.123L26.4881 110.179L24.4841 108.373Z" fill="#422D22"/>
</svg>
