<svg width="31" height="30" viewBox="0 0 31 30" fill="none" xmlns="http://www.w3.org/2000/svg">
<path d="M1 5C1 3.11438 1 2.17157 1.58579 1.58579C2.17157 1 3.11438 1 5 1H26C27.8856 1 28.8284 1 29.4142 1.58579C30 2.17157 30 3.11438 30 5V25C30 26.8856 30 27.8284 29.4142 28.4142C28.8284 29 27.8856 29 26 29H5C3.11438 29 2.17157 29 1.58579 28.4142C1 27.8284 1 26.8856 1 25V5Z" stroke="white" stroke-width="1.73756"/>
<circle cx="22.5" cy="7.5" r="2.5" stroke="white" stroke-width="1.73756" stroke-linecap="round"/>
<circle cx="15.5" cy="14.5" r="5.63122" stroke="white" stroke-width="1.73756"/>
</svg>
