<svg width="35" height="25" viewBox="0 0 35 25" fill="none" xmlns="http://www.w3.org/2000/svg">
<path d="M33.25 0H1.74998C0.758301 0 0 0.746402 0 1.72252V13.2061C0 14.1823 0.758301 14.9287 1.74998 14.9287H33.25C34.2417 14.9287 35 14.1823 35 13.2061V1.72252C35.0001 0.746402 34.2417 0 33.25 0ZM33.8334 13.2061C33.8334 13.5506 33.6001 13.7803 33.2501 13.7803H1.74998C1.39998 13.7803 1.16668 13.5506 1.16668 13.2061V1.72252C1.16668 1.37801 1.45836 1.14837 1.74998 1.14837H33.25C33.6 1.14837 33.8333 1.37801 33.8333 1.72252V13.2061H33.8334Z" fill="#422D22"/>
<path d="M15.1653 5.16396H19.832C20.182 5.16396 20.4153 4.93431 20.4153 4.58979C20.4153 4.24528 20.182 4.01562 19.832 4.01562H15.1653C14.8153 4.01562 14.582 4.24528 14.582 4.58979C14.582 4.93431 14.8153 5.16396 15.1653 5.16396Z" fill="#422D22"/>
<path d="M32.0859 11.4824H2.91924C2.56924 11.4824 2.33594 11.7121 2.33594 12.0566C2.33594 12.4012 2.56924 12.6308 2.91924 12.6308H32.0859C32.4359 12.6308 32.6692 12.4012 32.6692 12.0566C32.6692 11.7121 32.4359 11.4824 32.0859 11.4824Z" fill="#422D22"/>
<path d="M32.0859 9.1875H2.91924C2.56924 9.1875 2.33594 9.41714 2.33594 9.76163C2.33594 10.1061 2.56924 10.3358 2.91924 10.3358H32.0859C32.4359 10.3358 32.6692 10.1061 32.6692 9.76163C32.6692 9.41714 32.4359 9.1875 32.0859 9.1875Z" fill="#422D22"/>
<path d="M17.7917 19.0026C17.2084 18.7155 16.9167 18.371 16.9167 18.0839C16.9167 17.7967 17.2667 17.4523 17.7334 17.1078C18.025 16.9929 18.0834 16.6484 17.9667 16.3614C17.85 16.0743 17.5 15.9595 17.2084 16.1317C16.275 16.6485 15.75 17.3375 15.75 18.0839C15.75 18.8303 16.275 19.5194 17.2084 20.0935C17.7917 20.3806 18.0834 20.7251 18.0834 21.0122C18.0834 21.2993 17.7334 21.6438 17.2084 21.9309C16.9167 22.0457 16.8001 22.3902 16.9751 22.6773C17.0917 22.8495 17.2667 22.9644 17.5 22.9644C17.6167 22.9644 17.675 22.9644 17.7917 22.907C18.7251 22.3902 19.2501 21.7012 19.2501 20.9548C19.2501 20.2083 18.725 19.4619 17.7917 19.0026Z" fill="#422D22"/>
<path d="M11.3776 20.153C10.7943 19.8659 10.5026 19.5214 10.5026 19.2343C10.5026 18.9472 10.8526 18.6027 11.3193 18.2582C11.611 18.1433 11.7276 17.7988 11.5526 17.5118C11.4359 17.2247 11.0859 17.1099 10.7943 17.2821C9.86093 17.7989 9.33594 18.4879 9.33594 19.2343C9.33594 19.9807 9.86093 20.6698 10.7943 21.2439C11.3776 21.5311 11.6693 21.8756 11.6693 22.1627C11.6693 22.4498 11.3193 22.7943 10.7943 23.0814C10.5026 23.1962 10.386 23.5407 10.561 23.8278C10.6777 24 10.8527 24.1149 11.086 24.1149C11.2027 24.1149 11.261 24.1149 11.3777 24.0575C12.311 23.5407 12.836 22.8517 12.836 22.1053C12.836 21.3588 12.311 20.6123 11.3776 20.153Z" fill="#422D22"/>
<path d="M24.2057 20.153C23.6224 19.8659 23.3307 19.5214 23.3307 19.2343C23.3307 18.9472 23.6807 18.6027 24.1474 18.2582C24.4391 18.1433 24.4974 17.7988 24.3807 17.5118C24.264 17.2247 23.914 17.1099 23.6224 17.2821C22.6891 17.7989 22.1641 18.4879 22.1641 19.2343C22.1641 19.9807 22.6891 20.6698 23.6224 21.2439C24.2057 21.5311 24.4974 21.8756 24.4974 22.1627C24.4974 22.4498 24.1474 22.7943 23.6224 23.0814C23.3307 23.1962 23.2141 23.5407 23.3891 23.8278C23.5058 24 23.6808 24.1149 23.9141 24.1149C24.0308 24.1149 24.0891 24.1149 24.2058 24.0575C25.1392 23.5407 25.6642 22.8517 25.6642 22.1053C25.6642 21.3588 25.139 20.6123 24.2057 20.153Z" fill="#422D22"/>
</svg>
