<svg width="35" height="24" viewBox="0 0 35 24" fill="none" xmlns="http://www.w3.org/2000/svg">
<path d="M34.3486 18H33.7855V13.6364C33.7847 13.0579 33.5471 12.5034 33.1249 12.0944C32.7027 11.6854 32.1302 11.4553 31.5331 11.4545V2.18182C31.5323 1.6034 31.2948 1.04888 30.8725 0.639877C30.4503 0.23087 29.8779 0.000757688 29.2807 0H5.63091C5.03379 0.000757688 4.46134 0.23087 4.03911 0.639877C3.61688 1.04888 3.37933 1.6034 3.37855 2.18182V11.4545C2.78142 11.4553 2.20898 11.6854 1.78675 12.0944C1.36452 12.5034 1.12696 13.0579 1.12618 13.6364V18H0.563091C0.41375 18 0.270526 18.0575 0.164926 18.1598C0.0593255 18.2621 0 18.4008 0 18.5455V20.7273C0 20.8719 0.0593255 21.0107 0.164926 21.113C0.270526 21.2153 0.41375 21.2727 0.563091 21.2727H1.12618V23.4545C1.12618 23.5992 1.18551 23.7379 1.29111 23.8402C1.39671 23.9425 1.53993 24 1.68927 24H3.37855C3.50869 24.0001 3.63482 23.9564 3.73545 23.8765C3.83608 23.7965 3.90497 23.6852 3.93038 23.5616L4.40337 21.2727H30.5083L30.9813 23.5616C31.0067 23.6852 31.0756 23.7965 31.1762 23.8765C31.2768 23.9564 31.403 24.0001 31.5331 24H33.2224C33.3717 24 33.5149 23.9425 33.6205 23.8402C33.7261 23.7379 33.7855 23.5992 33.7855 23.4545V21.2727H34.3486C34.4979 21.2727 34.6411 21.2153 34.7467 21.113C34.8523 21.0107 34.9117 20.8719 34.9117 20.7273V18.5455C34.9117 18.4008 34.8523 18.2621 34.7467 18.1598C34.6411 18.0575 34.4979 18 34.3486 18ZM4.50473 2.18182C4.50512 1.89261 4.6239 1.61535 4.83501 1.41085C5.04613 1.20634 5.33235 1.09129 5.63091 1.09091H29.2807C29.5793 1.09129 29.8655 1.20634 30.0766 1.41085C30.2878 1.61535 30.4065 1.89261 30.4069 2.18182V11.4545H29.2807V9.27273C29.28 8.69431 29.0424 8.13979 28.6202 7.73079C28.1979 7.32178 27.6255 7.09167 27.0284 7.09091H20.2713C19.6742 7.09167 19.1017 7.32178 18.6795 7.73079C18.2573 8.13979 18.0197 8.69431 18.0189 9.27273V11.4545H16.8927V9.27273C16.892 8.69431 16.6544 8.13979 16.2322 7.73079C15.8099 7.32178 15.2375 7.09167 14.6404 7.09091H7.88328C7.28615 7.09167 6.71371 7.32178 6.29148 7.73079C5.86925 8.13979 5.63169 8.69431 5.63091 9.27273V11.4545H4.50473V2.18182ZM28.1546 9.27273V11.4545H19.1451V9.27273C19.1455 8.98352 19.2643 8.70626 19.4754 8.50176C19.6865 8.29725 19.9727 8.1822 20.2713 8.18182H27.0284C27.3269 8.1822 27.6132 8.29725 27.8243 8.50176C28.0354 8.70626 28.1542 8.98352 28.1546 9.27273ZM15.7666 9.27273V11.4545H6.75709V9.27273C6.75748 8.98352 6.87626 8.70626 7.08738 8.50176C7.29849 8.29725 7.58471 8.1822 7.88328 8.18182H14.6404C14.9389 8.1822 15.2252 8.29725 15.4363 8.50176C15.6474 8.70626 15.7662 8.98352 15.7666 9.27273ZM2.25236 13.6364C2.25276 13.3472 2.37153 13.0699 2.58265 12.8654C2.79376 12.6609 3.07998 12.5458 3.37855 12.5455H31.5331C31.8317 12.5458 32.1179 12.6609 32.329 12.8654C32.5401 13.0699 32.6589 13.3472 32.6593 13.6364V18H2.25236V13.6364ZM2.91681 22.9091H2.25236V21.2727H3.25467L2.91681 22.9091ZM32.6593 22.9091H31.9948L31.657 21.2727H32.6593V22.9091ZM33.7855 20.1818H1.12618V19.0909H33.7855V20.1818Z" fill="#422D22"/>
</svg>
