<svg width="33" height="33" viewBox="0 0 33 33" fill="none" xmlns="http://www.w3.org/2000/svg">
<g clip-path="url(#clip0)">
<path d="M16.2648 15.8962C18.4486 15.8962 20.3394 15.113 21.8848 13.5676C23.4297 12.0225 24.2132 10.132 24.2132 7.94786C24.2132 5.76452 23.4299 3.87373 21.8845 2.32811C20.3392 0.783255 18.4484 0 16.2648 0C14.0807 0 12.1901 0.783255 10.645 2.32836C9.09991 3.87347 8.31641 5.76426 8.31641 7.94786C8.31641 10.132 9.09991 12.0228 10.645 13.5679C12.1906 15.1127 14.0814 15.8962 16.2648 15.8962V15.8962ZM12.0126 3.69573C13.1982 2.51014 14.589 1.93384 16.2648 1.93384C17.9403 1.93384 19.3313 2.51014 20.5172 3.69573C21.7028 4.88156 22.2793 6.27259 22.2793 7.94786C22.2793 9.62364 21.7028 11.0144 20.5172 12.2002C19.3313 13.3861 17.9403 13.9624 16.2648 13.9624C14.5895 13.9624 13.1987 13.3858 12.0126 12.2002C10.8268 11.0147 10.2503 9.62364 10.2503 7.94786C10.2503 6.27259 10.8268 4.88156 12.0126 3.69573Z" fill="#422D22" fill-opacity="0.9"/>
<path d="M30.1724 25.3765C30.1278 24.7335 30.0377 24.032 29.905 23.2913C29.771 22.5451 29.5986 21.8396 29.3921 21.1948C29.1786 20.5284 28.8888 19.8703 28.5301 19.2396C28.1582 18.585 27.7211 18.015 27.2307 17.5459C26.7178 17.0552 26.0899 16.6607 25.3638 16.3729C24.6402 16.0867 23.8383 15.9417 22.9806 15.9417C22.6437 15.9417 22.3179 16.0799 21.6887 16.4895C21.3015 16.742 20.8486 17.0341 20.343 17.3571C19.9107 17.6325 19.3251 17.8906 18.6018 18.1242C17.8961 18.3526 17.1795 18.4684 16.4721 18.4684C15.7651 18.4684 15.0485 18.3526 14.3423 18.1242C13.6197 17.8909 13.0339 17.6328 12.6023 17.3574C12.1016 17.0374 11.6484 16.7453 11.2554 16.4893C10.6267 16.0796 10.3009 15.9414 9.96405 15.9414C9.10602 15.9414 8.30438 16.0867 7.58105 16.3732C6.85545 16.6605 6.22728 17.055 5.71392 17.5462C5.22347 18.0155 4.7864 18.5852 4.41479 19.2396C4.05652 19.8703 3.76648 20.5281 3.55298 21.1951C3.34678 21.8399 3.17432 22.5451 3.04037 23.2913C2.90744 24.031 2.81756 24.7327 2.773 25.3772C2.72919 26.0074 2.70703 26.6633 2.70703 27.3259C2.70703 29.0485 3.25463 30.4431 4.33447 31.4716C5.40097 32.4865 6.81189 33.0011 8.52821 33.0011H24.4179C26.1337 33.0011 27.5446 32.4865 28.6114 31.4716C29.6915 30.4438 30.2391 29.0488 30.2391 27.3257C30.2388 26.6608 30.2164 26.0049 30.1724 25.3765V25.3765ZM27.278 30.0705C26.5733 30.7412 25.6377 31.0672 24.4177 31.0672H8.52821C7.30788 31.0672 6.3723 30.7412 5.66785 30.0707C4.97674 29.4128 4.64088 28.5148 4.64088 27.3259C4.64088 26.7076 4.66127 26.097 4.70206 25.5109C4.74184 24.9359 4.82316 24.3042 4.94376 23.633C5.06284 22.9701 5.21441 22.3479 5.39468 21.7847C5.56764 21.2447 5.80355 20.7099 6.09611 20.1948C6.37532 19.7039 6.69658 19.2826 7.05107 18.9433C7.38265 18.6258 7.80059 18.3659 8.29305 18.1711C8.7485 17.9908 9.26035 17.8921 9.81601 17.8773C9.88373 17.9133 10.0043 17.982 10.1997 18.1094C10.5973 18.3685 11.0555 18.664 11.562 18.9876C12.133 19.3516 12.8687 19.6804 13.7476 19.9642C14.6462 20.2547 15.5627 20.4023 16.4723 20.4023C17.3819 20.4023 18.2986 20.2547 19.1967 19.9644C20.0764 19.6802 20.8118 19.3516 21.3836 18.9871C21.902 18.6557 22.3474 18.3687 22.7449 18.1094C22.9403 17.9823 23.0609 17.9133 23.1286 17.8773C23.6845 17.8921 24.1964 17.9908 24.6521 18.1711C25.1443 18.3659 25.5622 18.626 25.8938 18.9433C26.2483 19.2824 26.5695 19.7036 26.8488 20.1951C27.1416 20.7099 27.3777 21.2449 27.5504 21.7845C27.731 22.3484 27.8828 22.9703 28.0016 23.6327C28.122 24.3052 28.2035 24.9371 28.2433 25.5112V25.5117C28.2843 26.0955 28.305 26.7058 28.3052 27.3259C28.305 28.515 27.9691 29.4128 27.278 30.0705V30.0705Z" fill="#422D22" fill-opacity="0.9"/>
</g>
<defs>
<clipPath id="clip0">
<rect width="33" height="33" fill="white"/>
</clipPath>
</defs>
</svg>
