<svg width="35" height="19" viewBox="0 0 35 19" fill="none" xmlns="http://www.w3.org/2000/svg">
<path d="M33.7719 0H1.22805C0.550935 0 0 0.416993 0 0.92949V15.3245C0 15.837 0.550935 16.254 1.22805 16.254H14.142V17.1889H7.47062C7.13153 17.1889 6.85659 17.397 6.85659 17.6537C6.85659 17.9104 7.13153 18.1184 7.47062 18.1184H27.657C27.9961 18.1184 28.271 17.9104 28.271 17.6537C28.271 17.397 27.9961 17.1889 27.657 17.1889H20.9027V16.254H33.7719C34.4491 16.254 35 15.837 35 15.3245V0.92949C35 0.416935 34.4491 0 33.7719 0ZM19.6747 17.1889H15.3701V16.2539H19.6747V17.1889ZM28.4934 15.3245L15.1998 5.26283C14.96 5.08135 14.5713 5.08135 14.3315 5.26283C14.0917 5.44432 14.0917 5.73856 14.3315 5.92004L26.7567 15.3245H1.22805V0.92949H7.73788L11.8754 4.06112C11.9953 4.15186 12.1524 4.19723 12.3096 4.19723C12.4668 4.19723 12.6239 4.15186 12.7438 4.06112C12.9836 3.87964 12.9836 3.58539 12.7438 3.40391L9.47465 0.929548H33.772L33.7721 15.3246H28.4934V15.3245Z" fill="#422D22"/>
<path d="M16.5593 14.8826H18.4398C18.7789 14.8826 19.0538 14.6745 19.0538 14.4179C19.0538 14.1612 18.7789 13.9531 18.4398 13.9531H16.5593C16.2202 13.9531 15.9453 14.1612 15.9453 14.4179C15.9453 14.6745 16.2202 14.8826 16.5593 14.8826Z" fill="#422D22"/>
</svg>
