<svg width="206" height="101" viewBox="0 0 206 101" fill="none" xmlns="http://www.w3.org/2000/svg">
<g clip-path="url(#clip0)">
<path d="M62.6697 39.8743C63.1014 39.8743 63.5098 39.8041 63.8831 39.6638C64.2565 39.5234 64.5015 39.4415 64.6298 39.3947V40.5879C62.6464 41.3365 60.7913 41.7226 59.0528 41.7226C57.1511 41.7226 55.6576 41.3015 54.5726 40.4475C53.4875 39.5936 52.8808 38.6578 52.7641 37.6166V37.5582C51.4224 38.5876 49.8006 39.5468 47.9222 40.4475C46.0437 41.3365 44.0953 41.7811 42.0768 41.7811C40.2567 41.7811 38.5183 41.2664 36.8498 40.237C35.1931 39.2076 34.353 37.137 34.353 34.0488C34.353 30.0833 35.7764 27.3577 38.6233 25.8604C41.4701 24.3748 44.737 23.6261 48.4122 23.6261C49.2406 23.6261 50.524 23.708 52.2741 23.86C52.2741 22.3978 52.2391 20.2337 52.1574 17.3678C52.1224 15.3441 52.0174 13.835 51.8657 12.8407C51.7024 11.8464 51.3407 11.0627 50.769 10.4895C50.1973 9.91628 49.2756 9.62384 48.0038 9.62384C46.6154 9.62384 45.4954 9.98647 44.6553 10.7C43.8036 11.4136 43.1736 12.2558 42.7535 13.2268C42.3335 14.1977 41.9368 15.4025 41.5401 16.8297C41.2251 18.0579 40.9218 18.9587 40.6184 19.5319C40.3267 20.1051 39.93 20.3975 39.4633 20.3975C38.7866 20.3975 38.0633 19.8243 37.2932 18.6662C36.5232 17.5198 35.8698 16.315 35.3331 15.0633C34.7964 13.8116 34.4697 12.9928 34.353 12.5951C38.985 9.8227 43.5352 8.43066 48.0038 8.43066C52.1574 8.43066 55.1793 9.50686 57.0577 11.6476C58.9362 13.7883 59.8812 17.087 59.8812 21.5322V35.8152C59.8812 38.5291 60.8029 39.8743 62.6697 39.8743ZM52.6941 36.4235C52.6125 34.6805 52.4958 30.867 52.3324 24.9947C50.944 24.714 50.0923 24.5619 49.7773 24.5151C49.5439 24.48 49.1239 24.4566 48.5289 24.4566C46.6738 24.4566 45.0287 24.9596 43.6052 25.9773C42.1818 26.9951 41.4701 28.8901 41.4701 31.6625C41.4701 33.9201 41.9835 35.6748 43.0102 36.9265C44.0369 38.1781 45.3087 38.7981 46.8138 38.7981C48.4822 38.8098 50.4423 38.0144 52.6941 36.4235Z" fill="#282828"/>
<path d="M101.545 0.125488L89.6789 31.6627L86.1204 41.7813H84.9303C80.1117 27.627 74.6164 13.6832 68.3043 0.125488H77.2065C78.6649 6.48909 86.8671 27.4398 88.2789 30.2824L99.7595 0.125488H101.545Z" fill="#282828"/>
<path d="M114.204 11.4373C114.122 11.6712 113.994 12.3146 113.819 13.344C113.644 14.3734 113.457 15.9994 113.282 18.222C113.107 20.4446 113.014 23.1467 113.014 26.3168C113.014 29.4869 113.107 32.2242 113.282 34.5053C113.457 36.7864 113.644 38.5059 113.819 39.6523C113.994 40.7987 114.122 41.5123 114.204 41.793H104.707C104.788 41.4772 104.917 40.6934 105.092 39.4418C105.267 38.1901 105.453 36.3769 105.628 33.9906C105.803 31.6042 105.897 28.8553 105.897 25.7203C105.897 22.5852 105.803 19.9532 105.628 17.8359C105.453 15.7186 105.255 14.0693 105.033 12.8995C104.812 11.7297 104.707 11.2384 104.707 11.4373H114.204ZM106.48 7.26114C105.687 6.46569 105.29 5.47138 105.29 4.2899C105.29 3.10843 105.687 2.11411 106.48 1.31866C107.273 0.523213 108.265 0.125488 109.443 0.125488C110.622 0.125488 111.614 0.523213 112.407 1.31866C113.2 2.11411 113.597 3.10843 113.597 4.2899C113.597 5.47138 113.2 6.47739 112.407 7.26114C111.614 8.05659 110.622 8.45432 109.443 8.45432C108.265 8.45432 107.273 8.05659 106.48 7.26114Z" fill="#282828"/>
<path d="M138.739 9.37796C140.501 9.99794 141.936 10.6647 143.045 11.4017C144.153 12.1386 144.701 12.5481 144.701 12.6182C144.538 13.016 144.2 13.8348 143.663 15.0865C143.126 16.3381 142.496 17.5313 141.761 18.6894C141.026 19.8358 140.349 20.4207 139.708 20.4207C139.276 20.4207 138.926 20.1516 138.669 19.6135C138.413 19.0754 138.109 18.1981 137.748 16.9698C137.351 15.5427 136.931 14.3261 136.476 13.3084C136.021 12.2907 135.356 11.4368 134.492 10.7232C133.617 10.0096 132.474 9.64701 131.05 9.64701C129.545 9.64701 128.379 10.0681 127.55 10.8987C126.722 11.7292 126.302 12.899 126.302 14.408C126.302 15.917 126.699 17.157 127.492 18.1279C128.285 19.0988 129.265 19.8592 130.432 20.4207C131.599 20.9822 133.174 21.5905 135.146 22.2689C137.199 22.9474 138.879 23.5908 140.163 24.1991C141.446 24.819 142.531 25.673 143.395 26.7843C144.27 27.8956 144.701 29.3227 144.701 31.0657C144.701 32.9724 144.2 34.7505 143.185 36.3882C142.181 38.0376 140.804 39.3477 139.089 40.3186C137.363 41.2895 135.472 41.7808 133.419 41.7808C131.634 41.7808 129.65 41.4767 127.457 40.8567C125.263 40.2367 123.233 39.5583 121.378 38.7979C119.523 38.0492 118.59 37.6515 118.59 37.6047C118.59 37.4878 118.87 36.6806 119.418 35.195C119.966 33.7094 120.597 32.3875 121.285 31.2411C121.973 30.0947 122.662 29.6385 123.338 29.8725C123.7 29.9895 124.062 30.2936 124.435 30.7615C124.808 31.2411 125.333 32.0132 126.01 33.0777C127.515 35.3821 128.962 37.207 130.339 38.5523C131.727 39.8975 133.349 40.576 135.204 40.576C136.592 40.576 137.724 40.0847 138.623 39.0903C139.509 38.096 139.953 37.0081 139.953 35.815C139.953 34.3878 139.264 33.1947 137.876 32.2471C136.487 31.2996 134.352 30.2234 131.47 29.0303C129.335 28.1178 127.585 27.299 126.22 26.5854C124.855 25.8718 123.677 24.9945 122.685 23.9651C121.693 22.9357 121.122 21.7191 120.958 20.3388L120.9 19.5083C120.9 17.9992 121.262 16.4083 121.973 14.7122C122.685 13.0277 123.933 11.5538 125.718 10.3138C127.504 9.07382 129.872 8.44214 132.847 8.44214C135.006 8.45384 136.977 8.75798 138.739 9.37796Z" fill="#282828"/>
<path d="M160.723 10.2418H169.474V12.0315H160.571C160.49 12.9089 160.373 14.8741 160.21 17.9272C160.046 20.9803 159.976 24.1738 159.976 27.5077C159.976 30.6778 160.093 33.1344 160.338 34.8539C160.571 36.5852 161.026 37.872 161.703 38.7259C162.38 39.5798 163.395 40.1647 164.737 40.001C167.863 39.6383 168.995 36.2928 169.194 35.6611C169.392 35.0294 169.485 34.6902 169.485 34.6551H170.675C170.64 34.6902 169.625 38.4451 167.735 39.9776C166.125 41.2877 164.258 41.7907 161.773 41.7907C158.611 41.7907 156.336 40.8198 154.948 38.878C153.559 36.9361 152.871 34.3392 152.871 31.0872C152.871 30.5374 152.953 28.2681 153.104 24.3025C153.338 17.0382 153.466 12.9557 153.466 12.0432H148.122V10.2418C148.122 10.2418 153.454 10.2418 153.466 10.2418C153.466 10.2418 153.664 6.943 153.151 4.2876C152.859 4.2876 161.773 4.2876 161.773 4.2876C161.073 6.01887 160.77 9.49311 160.723 10.2418Z" fill="#282828"/>
<path d="M203.544 39.8743C203.975 39.8743 204.384 39.8041 204.757 39.6638C205.13 39.5234 205.375 39.4415 205.504 39.3947V40.5879C203.52 41.3365 201.665 41.7226 199.927 41.7226C198.025 41.7226 196.532 41.3015 195.446 40.4475C194.361 39.5936 193.755 38.6578 193.638 37.6166V37.5582C192.296 38.5876 190.675 39.5468 188.796 40.4475C186.918 41.3365 184.969 41.7811 182.951 41.7811C181.131 41.7811 179.392 41.2664 177.724 40.237C176.067 39.2076 175.227 37.137 175.227 34.0488C175.227 30.0833 176.65 27.3577 179.497 25.8604C182.344 24.3631 185.611 23.6261 189.286 23.6261C190.114 23.6261 191.398 23.708 193.148 23.86C193.148 22.3978 193.113 20.2337 193.031 17.3678C192.996 15.3441 192.891 13.835 192.74 12.8407C192.576 11.8464 192.215 11.0627 191.643 10.4895C191.071 9.91628 190.149 9.62384 188.878 9.62384C187.489 9.62384 186.369 9.98647 185.529 10.7C184.677 11.4136 184.047 12.2558 183.627 13.2268C183.207 14.1977 182.811 15.4025 182.414 16.8297C182.099 18.0579 181.796 18.9587 181.492 19.5319C181.201 20.1051 180.804 20.3975 180.337 20.3975C179.661 20.3975 178.937 19.8243 178.167 18.6662C177.397 17.5198 176.744 16.315 176.207 15.0633C175.67 13.8116 175.344 12.9928 175.227 12.5951C179.859 9.8227 184.409 8.43066 188.878 8.43066C193.031 8.43066 196.053 9.50686 197.932 11.6476C199.81 13.7883 200.755 17.087 200.755 21.5322V35.8152C200.755 38.5291 201.677 39.8743 203.544 39.8743ZM193.568 36.4235C193.486 34.6805 193.37 30.867 193.206 24.9947C191.818 24.714 190.966 24.5619 190.651 24.5151C190.418 24.48 189.998 24.4566 189.403 24.4566C187.548 24.4566 185.903 24.9596 184.479 25.9773C183.056 26.9951 182.344 28.8901 182.344 31.6625C182.344 33.9201 182.857 35.6748 183.884 36.9265C184.911 38.1781 186.183 38.7981 187.688 38.7981C189.356 38.8098 191.316 38.0144 193.568 36.4235Z" fill="#282828"/>
<path d="M0.109741 0.0783691H9.92199C7.44851 9.27283 7.08682 35.277 7.72853 40.6346C7.72853 40.6346 16.1524 40.6346 18.9525 40.6346C20.411 40.6346 22.6978 39.9093 24.1095 38.8565C26.5947 36.9966 28.0297 31.9432 28.3331 31.4752C28.5664 31.1009 28.9281 30.9137 29.2431 30.9137C29.5582 30.9137 29.8032 31.0307 29.9899 31.2764C30.1649 31.5103 30.2582 31.8496 30.2582 32.2941V41.8395H0.109741C0.109741 41.8278 1.87151 28.0595 0.109741 0.0783691Z" fill="#282828"/>
<path d="M42.5996 99.0873H46.1932V100.163H41.2695V92.0686H42.5996V99.0873Z" fill="#282828"/>
<path d="M54.584 92.0576V97.2163C54.584 97.8363 54.7473 98.2925 55.0623 98.6084C55.389 98.9242 55.8324 99.0763 56.4041 99.0763C56.9875 99.0763 57.4308 98.9242 57.7575 98.6084C58.0842 98.2925 58.2359 97.8363 58.2359 97.2163V92.0576H59.566V97.1929C59.566 97.848 59.4259 98.4095 59.1343 98.8657C58.8426 99.3219 58.4692 99.6612 57.9792 99.8951C57.5008 100.117 56.9641 100.234 56.3924 100.234C55.8207 100.234 55.284 100.117 54.8057 99.8951C54.3273 99.6729 53.9539 99.3336 53.6739 98.8657C53.3939 98.4095 53.2539 97.848 53.2539 97.1929V92.0576H54.584Z" fill="#282828"/>
<path d="M69.8328 96.1168L72.3413 100.164H70.8595L69.0394 97.228L67.336 100.164H65.8542L68.3627 96.1168L65.8425 92.0576H67.3243L69.1561 95.0172L70.8712 92.0576H72.3413L69.8328 96.1168Z" fill="#282828"/>
<path d="M80.883 93.1338V95.5085H83.6715V96.5964H80.883V99.0763H84.0215V100.164H79.5646V92.0576H84.0215V93.1455H80.883V93.1338Z" fill="#282828"/>
<path d="M107.24 92.0576L104.206 100.152H102.678L99.6327 92.0576H101.044L103.436 98.7955L105.84 92.0576H107.24Z" fill="#282828"/>
<path d="M115.71 92.0576V100.152H114.379V92.0576H115.71Z" fill="#282828"/>
<path d="M125.53 99.0873L129.124 99.099V100.175L124.2 100.163V92.0686H125.53V99.0873Z" fill="#282828"/>
<path d="M137.141 99.0873H140.734V100.163H135.811V92.0686H137.141V99.0873Z" fill="#282828"/>
<path d="M151.574 98.5031H148.19L147.607 100.152H146.23L149.124 92.0459H150.652L153.546 100.152H152.146L151.574 98.5031ZM151.201 97.4152L149.882 93.6485L148.552 97.4152H151.201Z" fill="#282828"/>
<path d="M160.081 99.9534C159.649 99.7663 159.311 99.4972 159.054 99.1463C158.809 98.7954 158.681 98.3859 158.681 97.918H160.104C160.139 98.2689 160.267 98.5497 160.512 98.7836C160.757 99.0059 161.096 99.1229 161.539 99.1229C161.994 99.1229 162.356 99.0176 162.613 98.7954C162.869 98.5731 162.998 98.2924 162.998 97.9414C162.998 97.6724 162.916 97.4501 162.764 97.2746C162.601 97.0992 162.403 96.9705 162.169 96.8769C161.936 96.7833 161.609 96.678 161.189 96.5728C160.664 96.4324 160.232 96.292 159.906 96.1516C159.579 96.0113 159.299 95.789 159.066 95.4849C158.832 95.1807 158.716 94.783 158.716 94.2683C158.716 93.8004 158.832 93.391 159.066 93.04C159.299 92.6891 159.626 92.4201 160.046 92.2329C160.466 92.0457 160.944 91.9521 161.492 91.9521C162.274 91.9521 162.916 92.151 163.418 92.537C163.919 92.9348 164.199 93.4729 164.246 94.1513H162.776C162.753 93.8589 162.613 93.6015 162.356 93.391C162.099 93.1804 161.761 93.0751 161.341 93.0751C160.956 93.0751 160.652 93.1687 160.407 93.3676C160.162 93.5664 160.046 93.8472 160.046 94.2098C160.046 94.4555 160.116 94.666 160.267 94.8181C160.419 94.9819 160.606 95.0988 160.839 95.1924C161.072 95.286 161.387 95.3913 161.796 95.4966C162.333 95.6486 162.764 95.789 163.103 95.9411C163.441 96.0932 163.721 96.3154 163.966 96.6196C164.199 96.9237 164.316 97.3331 164.316 97.8478C164.316 98.2573 164.211 98.6433 163.989 99.0176C163.768 99.3802 163.453 99.6727 163.021 99.8949C162.601 100.117 162.099 100.222 161.527 100.222C161.002 100.234 160.512 100.141 160.081 99.9534Z" fill="#282828"/>
<path d="M74.4439 69.8554L77.7925 69.9139L75.1323 71.9493L76.1124 75.1662L73.3589 73.2595L70.617 75.1896L71.5738 71.9727L68.8903 69.949L72.2388 69.8671L73.3239 66.697L74.4439 69.8554Z" fill="#282828"/>
<path d="M89.1727 69.8552L92.5213 69.9137L89.8611 71.9491L90.8528 75.166L88.0877 73.2592L85.3575 75.1894L86.3026 71.9725L83.6307 69.9488L86.9793 69.8669L88.0643 66.6968L89.1727 69.8552Z" fill="#282828"/>
<path d="M103.901 69.8552L107.25 69.9137L104.59 71.9491L105.57 75.166L102.816 73.2592L100.075 75.1894L101.031 71.9725L98.3595 69.9488L101.708 69.8669L102.793 66.6968L103.901 69.8552Z" fill="#282828"/>
<path d="M118.642 69.8552L121.991 69.9137L119.331 71.9491L120.311 75.166L117.557 73.2592L114.815 75.1894L115.772 71.9725L113.089 69.9488L116.437 69.8669L117.522 66.6968L118.642 69.8552Z" fill="#282828"/>
<path d="M133.365 69.8552L136.714 69.9137L134.053 71.9491L135.045 75.166L132.28 73.2592L129.55 75.1894L130.507 71.9725L127.823 69.9488L131.172 69.8669L132.257 66.6968L133.365 69.8552Z" fill="#282828"/>
</g>
<defs>
<clipPath id="clip0">
<rect width="205.392" height="100.156" fill="white" transform="translate(0.110229 0.0783691)"/>
</clipPath>
</defs>
</svg>
