<svg width="18" height="22" viewBox="0 0 18 22" fill="none" xmlns="http://www.w3.org/2000/svg">
<path d="M14.9717 15.3379L16.9089 18.1877C17.2235 18.6505 17.1033 19.2806 16.6406 19.5952C14.1387 21.2959 10.767 20.8982 8.72958 18.662L7.69341 17.5247C5.77232 15.4162 4.16067 13.0453 2.90681 10.4833L2.23052 9.10137C0.900716 6.38413 1.7713 3.10257 4.27317 1.40185C4.73592 1.08728 5.36607 1.20741 5.68064 1.67017L7.61787 4.51996C8.18492 5.35414 7.96838 6.49006 7.1342 7.05711L6.3987 7.55709C6.18781 7.70045 6.09231 7.96267 6.16163 8.20808C6.963 11.0454 8.66301 13.5462 11.0065 15.3352C11.2092 15.4899 11.4881 15.4976 11.699 15.3542L12.4345 14.8543C13.2687 14.2872 14.4046 14.5037 14.9717 15.3379Z" stroke="black" stroke-width="1.5"/>
</svg>
