<svg width="30" height="19" viewBox="0 0 30 19" fill="none" xmlns="http://www.w3.org/2000/svg">
<ellipse cx="7.39691" cy="10.8721" rx="1.70697" ry="1.70413" fill="#282828"/>
<ellipse cx="22.1917" cy="10.8721" rx="1.70697" ry="1.70413" fill="#282828"/>
<path d="M11.021 10.8718C11.021 12.8684 9.39958 14.4879 7.39825 14.4879C5.39692 14.4879 3.77554 12.8684 3.77554 10.8718C3.77554 8.87527 5.39692 7.25573 7.39825 7.25573C9.39958 7.25573 11.021 8.87527 11.021 10.8718Z" stroke="#282828" stroke-width="0.72045"/>
<path d="M25.8138 10.8718C25.8138 12.8684 24.1924 14.4879 22.1911 14.4879C20.1898 14.4879 18.5684 12.8684 18.5684 10.8718C18.5684 8.87527 20.1898 7.25573 22.1911 7.25573C24.1924 7.25573 25.8138 8.87527 25.8138 10.8718Z" stroke="#282828" stroke-width="0.72045"/>
<path d="M14.1454 10.8714C14.1454 14.5906 11.125 17.6075 7.39688 17.6075C3.66878 17.6075 0.648405 14.5906 0.648405 10.8714C0.648405 7.15212 3.66878 4.13522 7.39688 4.13522C11.125 4.13522 14.1454 7.15212 14.1454 10.8714Z" stroke="#282828" stroke-width="1.29681"/>
<path d="M28.9406 10.8719C28.9406 14.5911 25.9203 17.608 22.1922 17.608C18.4641 17.608 15.4437 14.5911 15.4437 10.8719C15.4437 7.15261 18.4641 4.13571 22.1922 4.13571C25.9203 4.13571 28.9406 7.15261 28.9406 10.8719Z" stroke="#282828" stroke-width="1.29681"/>
<path d="M4.55263 4.6231C5.69061 3.48702 9.33215 1.21484 14.7945 1.21484C20.2568 1.21484 23.8983 3.48702 25.0363 4.6231" stroke="#282828" stroke-width="1.29681"/>
<path d="M0 3.48682H6.82789L1.13798 8.03116C1.13798 6.89508 1.13798 4.6229 0 3.48682Z" fill="#282828"/>
<path d="M29.5881 3.4873H22.7602L28.4502 8.03165C28.4502 6.89556 28.4502 4.62339 29.5881 3.4873Z" fill="#282828"/>
<path d="M14.7947 18.2567L12.5187 14.8484L14.2257 10.8721V9.16797L14.7947 9.73601L15.3636 9.16797V10.8721L17.0706 14.8484L14.7947 18.2567Z" fill="#282828"/>
</svg>
