<svg width="57" height="57" viewBox="0 0 57 57" fill="none" xmlns="http://www.w3.org/2000/svg">
<path d="M53.4722 54.2856C54.0079 54.2856 54.5238 54.2459 55.0397 54.0674C55.496 53.8888 56.4484 53.5515 56.6071 53.5118V54.9801C54.1468 55.9126 51.1508 56.5674 48.9881 56.5674C46.627 56.5674 44.7817 56.0317 43.4325 54.9801C42.0833 53.9285 41.3294 52.7578 41.1905 51.488V51.4086C39.5238 52.6785 37.5198 53.869 35.1786 54.9801C32.8373 56.0912 30.4365 56.6467 27.9167 56.6467C25.6547 56.6467 23.4921 56.0118 21.4286 54.7221C19.3651 53.4523 18.3333 50.8928 18.3333 47.0634C18.3333 42.1626 20.0992 38.7698 23.6309 36.9444C27.1627 35.0991 31.2103 34.1864 35.7738 34.1864C36.8055 34.1864 38.3928 34.2856 40.5555 34.484C40.5555 32.6586 40.5159 29.9999 40.4167 26.4483C40.377 23.9483 40.2381 22.0832 40.0397 20.8531C39.8413 19.6229 39.3849 18.6507 38.6706 17.9364C37.9563 17.2221 36.8254 16.865 35.2381 16.865C33.5119 16.865 32.123 17.3015 31.0714 18.1943C30.0198 19.0872 29.2262 20.119 28.7103 21.3293C28.1944 22.5396 27.6984 24.0078 27.2024 25.7936C26.8055 27.3213 26.4286 28.4324 26.0516 29.1467C25.6746 29.861 25.1984 30.2182 24.623 30.2182C23.7897 30.2182 22.8968 29.5039 21.9444 28.0753C20.9921 26.6467 20.1786 25.1586 19.5238 23.611C18.869 22.0634 18.4524 21.0515 18.3135 20.5555C24.0675 17.1229 29.7024 15.3967 35.2579 15.3967C40.4167 15.3967 44.1468 16.7261 46.4881 19.365C48.8095 22.0237 49.9801 26.0912 49.9801 31.5872V49.2658C50 52.619 51.1508 54.2856 53.4722 54.2856ZM41.0913 50.0198C40.9921 47.8571 40.8532 43.1547 40.6548 35.8729C38.9286 35.5356 37.877 35.3372 37.4801 35.2777C37.1825 35.238 36.6667 35.1983 35.9325 35.1983C33.6309 35.1983 31.5873 35.8332 29.8214 37.0832C28.0555 38.3332 27.1627 40.6745 27.1627 44.1071C27.1627 46.9047 27.7976 49.0872 29.0873 50.615C30.3571 52.1626 31.9246 52.9364 33.8095 52.9364C35.8532 52.9563 38.2936 51.984 41.0913 50.0198Z" fill="#422D22"/>
<path d="M27.5 56.6468L26.9048 54.9802C26.4881 55.0595 26.0714 55.0794 25.6548 55.0397H10.377C9.48412 47.7579 10 12.4802 13.3532 0H0.555553C2.95635 37.9563 0 56.6468 0 56.6468H27.5Z" fill="#422D22"/>
</svg>
