<svg width="13" height="16" viewBox="0 0 13 16" fill="none" xmlns="http://www.w3.org/2000/svg">
<path d="M10.5931 11.2507L11.9506 13.2476C12.171 13.5719 12.0868 14.0134 11.7625 14.2339C10.0094 15.4256 7.64683 15.1469 6.21916 13.5799L5.4931 12.783C4.14696 11.3056 3.01764 9.64427 2.13904 7.84898L1.66515 6.88067C0.733335 4.97665 1.34337 2.6772 3.09647 1.48548C3.42073 1.26505 3.86229 1.34923 4.08271 1.67349L5.44016 3.67039C5.83751 4.25491 5.68577 5.05087 5.10125 5.44822L4.58587 5.79856C4.4381 5.89901 4.37118 6.08276 4.41975 6.25472C4.98129 8.24285 6.17251 9.99523 7.81462 11.2488C7.95665 11.3572 8.15213 11.3626 8.2999 11.2622L8.81528 10.9118C9.3998 10.5145 10.1958 10.6662 10.5931 11.2507Z" stroke="white" stroke-width="1.05108"/>
</svg>
