<svg width="30" height="30" viewBox="0 0 30 30" fill="none" xmlns="http://www.w3.org/2000/svg">
<path d="M3.56976 28.0846C3.96424 28.0846 4.28404 27.6559 4.28404 27.1271C4.28404 26.5983 3.96424 26.1697 3.56976 26.1697C3.17527 26.1697 2.85547 26.5983 2.85547 27.1271C2.85547 27.6559 3.17527 28.0846 3.56976 28.0846Z" fill="black"/>
<path d="M29.5238 28.7236H27.1429V21.7023C27.1429 21.3495 26.9299 21.064 26.6667 21.064H25.6352L23.9035 8.29803H24.7619C25.0251 8.29803 25.2381 8.01255 25.2381 7.65973V5.74484C25.2381 5.48553 25.122 5.265 24.9565 5.16495L26.1602 0.862819C26.2151 0.666542 26.1946 0.447128 26.1058 0.274947C26.0165 0.102925 25.8705 0 25.7143 0H24.2857C24.0871 0 23.9095 0.16516 23.8398 0.413936L22.527 5.10638H18.0952C17.832 5.10638 17.619 5.39186 17.619 5.74468V7.02128H14.7619C13.9742 7.02128 13.3333 7.88027 13.3333 8.93617C13.3333 9.99207 13.9742 10.8511 14.7619 10.8511C15.0251 10.8511 15.2381 10.5656 15.2381 10.2128C15.2381 9.85995 15.0251 9.57447 14.7619 9.57447C14.4992 9.57447 14.2857 9.28835 14.2857 8.93617C14.2857 8.58399 14.4992 8.29787 14.7619 8.29787H20.0789L21.8105 21.0638H20.4762C20.213 21.0638 20 21.3493 20 21.7021V22.3404H4.7619C4.49869 22.3404 4.28571 22.6259 4.28571 22.9787V24.2553H3.57143C2.38976 24.2553 1.42857 25.5437 1.42857 27.1277C1.42857 27.7179 1.56262 28.2665 1.79131 28.7234H0.47619C0.212976 28.7234 0 29.0089 0 29.3617C0 29.7145 0.212976 30 0.47619 30H29.5238C29.787 30 30 29.7145 30 29.3617C30 29.0089 29.787 28.7236 29.5238 28.7236ZM24.6158 1.27676H25.0269L23.9554 5.10654H23.5444L24.6158 1.27676ZM18.5714 7.02144V6.38314H24.2857V7.02144H18.5714ZM21.0465 8.29803H22.936L24.6677 21.064H22.7781L21.0465 8.29803ZM20.9524 22.3406H26.1905V24.2555H20.9524V22.9789V22.3406ZM20 23.6172V24.2555H5.2381V23.6172H20ZM3.57143 28.7236C2.91476 28.7236 2.38095 28.008 2.38095 27.1278C2.38095 26.2476 2.91476 25.5321 3.57143 25.5321H26.1905V28.7236H3.57143Z" fill="black"/>
</svg>
