<svg width="31" height="30" viewBox="0 0 31 30" fill="none" xmlns="http://www.w3.org/2000/svg">
<g clip-path="url(#clip0)">
<path d="M29.9927 10.9922C29.928 10.7583 29.6859 10.6211 29.452 10.6858C29.218 10.7505 29.0809 10.9926 29.1456 11.2265C29.2431 11.5791 29.3263 11.9356 29.3959 12.2951C27.188 15.1754 24.2727 18.4457 20.9557 21.7621C18.2848 24.433 15.575 26.9035 13.1111 28.9151C10.5705 28.4783 8.20926 27.355 6.24818 25.6382C6.74881 25.2551 7.26555 24.8494 7.78967 24.4273C7.97875 24.2751 8.00857 23.9985 7.85635 23.8095C7.70412 23.6204 7.4275 23.5906 7.23848 23.7428C6.6785 24.1937 6.12725 24.6258 5.59574 25.0307C5.58027 25.0154 5.56445 25.0005 5.54904 24.9851C5.35521 24.7913 5.16854 24.5923 4.98748 24.3895C8.40689 21.7931 12.4498 18.202 16.4162 14.2355C19.6893 10.9619 22.694 7.65275 25.1308 4.63975C25.3471 4.8399 25.5572 5.04615 25.7601 5.25891C23.3097 8.28223 20.3002 11.5942 17.0375 14.8569C14.2359 17.659 11.3458 20.3218 8.67994 22.5576C8.49396 22.7136 8.46965 22.9907 8.62562 23.1767C8.71252 23.2804 8.83709 23.3338 8.96254 23.3338C9.06215 23.3338 9.1624 23.3001 9.24467 23.2311C11.9299 20.9791 14.8396 18.2982 17.659 15.4784C20.9034 12.234 23.9005 8.9393 26.3534 5.92236C27.2538 6.99428 27.9937 8.1985 28.5457 9.50361C28.6166 9.67125 28.7794 9.77197 28.9506 9.77197C29.0077 9.77197 29.0657 9.76078 29.1216 9.73717C29.3451 9.6426 29.4497 9.38473 29.3552 9.16119C28.2208 6.47936 26.3417 4.19742 23.9211 2.56207C21.4402 0.885938 18.54 0 15.5342 0C12.6563 0 9.86049 0.817324 7.44877 2.3635C7.24445 2.49451 7.18504 2.76633 7.316 2.97064C7.44695 3.17496 7.71883 3.23432 7.92314 3.10342C9.88984 1.84248 12.1284 1.09705 14.4535 0.920273C12.4828 3.30281 10.1293 5.8732 7.59807 8.40387C5.50533 10.4966 3.43756 12.4229 1.4398 14.1417C1.67318 10.2789 3.4743 6.68484 6.46357 4.17686C6.64949 4.02088 6.67381 3.74367 6.51777 3.55775C6.3618 3.37184 6.08465 3.34758 5.89867 3.50355C2.48945 6.36387 0.53418 10.5541 0.53418 15C0.53418 19.0066 2.09447 22.7735 4.92754 25.6066C7.76072 28.4398 11.5275 30 15.5342 30C19.5408 30 23.3076 28.4398 26.1408 25.6066C28.9739 22.7735 30.5342 19.0066 30.5342 15C30.5342 13.6397 30.352 12.2913 29.9927 10.9922ZM21.5771 22.3836C24.6681 19.2932 27.4155 16.2394 29.5756 13.4963C29.6216 13.9302 29.6477 14.3671 29.6537 14.8055C27.5679 17.3784 24.993 20.2109 22.199 23.0049C19.9627 25.2413 17.746 27.2981 15.6089 29.1202C15.584 29.1203 15.5591 29.1211 15.5342 29.1211C15.122 29.1211 14.7126 29.1025 14.3066 29.0678C16.618 27.1402 19.1147 24.846 21.5771 22.3836ZM24.4674 4.06236C22.0463 7.05826 19.0553 10.3529 15.7947 13.614C11.8421 17.5667 7.81721 21.1406 4.42164 23.7154C2.97402 21.8771 2.0176 19.7295 1.62104 17.4354C4.10096 15.3966 6.80875 12.9223 9.46287 10.2681C12.5949 7.13607 15.5254 3.87018 17.7359 1.05006C19.7695 1.36828 21.7068 2.12666 23.429 3.29021C23.7881 3.53285 24.1345 3.79055 24.4674 4.06236ZM8.21951 9.02543C10.9837 6.26186 13.5396 3.44906 15.6231 0.879727C15.9881 0.882012 16.3514 0.898184 16.7124 0.928008C14.5655 3.62279 11.7946 6.69352 8.84148 9.6467C6.35617 12.132 3.8248 14.4574 1.48217 16.4096C1.44654 16.048 1.42492 15.6833 1.41689 15.3164C3.61498 13.4576 5.90271 11.3422 8.21951 9.02543ZM25.5193 24.9851C23.2119 27.2926 20.2463 28.7022 17.0461 29.0407C18.9306 27.395 20.8685 25.5784 22.8205 23.6263C25.3151 21.1317 27.6383 18.6046 29.5996 16.255C29.311 19.5533 27.8884 22.616 25.5193 24.9851Z" fill="black"/>
</g>
<defs>
<clipPath id="clip0">
<rect width="30" height="30" fill="white" transform="translate(0.53418)"/>
</clipPath>
</defs>
</svg>
