<svg width="31" height="30" viewBox="0 0 31 30" fill="none" xmlns="http://www.w3.org/2000/svg">
<g clip-path="url(#clip0)">
<path d="M25.4072 23.9925H27.751C28.3163 23.9925 28.7764 23.5325 28.7764 22.9671V21.6602H29.626C30.1268 21.6602 30.5342 21.2528 30.5342 20.752V16.6504C30.5342 16.1496 30.1268 15.7422 29.626 15.7422H28.7764V14.5297C28.7764 13.9643 28.3163 13.5043 27.751 13.5043H27.6631V13.1871H28.5127C29.0135 13.1871 29.4209 12.7796 29.4209 12.2788V9.15375C29.4209 8.65295 29.0135 8.24555 28.5127 8.24555H27.6631V7.03301C27.6631 6.46764 27.2031 6.00762 26.6377 6.00762H25.6363V5.80078H26.6034C27.0395 5.80078 27.3944 5.44594 27.3944 5.00977V2.60742C27.3944 2.17125 27.0395 1.81641 26.6034 1.81641H25.6363V0.908203C25.6363 0.407402 25.2289 0 24.7281 0H22.1506C21.6495 0 21.2418 0.407402 21.2418 0.908203V2.49023H20.6935C20.4508 2.49023 20.2541 2.68693 20.2541 2.92969C20.2541 3.17244 20.4508 3.36914 20.6935 3.36914H21.2418V4.24805H18.1821V3.36914H18.7967C19.0394 3.36914 19.2361 3.17244 19.2361 2.92969C19.2361 2.68693 19.0394 2.49023 18.7967 2.49023H17.7314V0.791016C17.7314 0.354844 17.3766 0 16.9404 0H14.1279C13.6918 0 13.3369 0.354844 13.3369 0.791016V2.49023H9.88691V1.02539C9.88691 0.46002 9.42689 0 8.86152 0H6.51777C5.9524 0 5.49238 0.46002 5.49238 1.02539V1.81641H4.5257C4.08953 1.81641 3.73469 2.17125 3.73469 2.60742V5.00977C3.73469 5.44594 4.08953 5.80078 4.5257 5.80078H5.49238V6.00762H4.43066C3.86529 6.00762 3.40527 6.46764 3.40527 7.03301V8.24549H2.67285C2.10748 8.24549 1.64746 8.70551 1.64746 9.27088V12.1616C1.64746 12.727 2.10748 13.187 2.67285 13.187H3.40527V13.5042H3.31738C2.75201 13.5042 2.29199 13.9642 2.29199 14.5296V15.7421H1.55957C0.994199 15.7421 0.53418 16.2022 0.53418 16.7675V20.6347C0.53418 21.2001 0.994199 21.6601 1.55957 21.6601H2.29199V22.9671C2.29199 23.5324 2.75201 23.9924 3.31738 23.9924H5.66113C6.2265 23.9924 6.68652 23.5324 6.68652 22.9671V20.0195H11.1689V20.6655C11.1689 21.2786 11.6677 21.7773 12.2807 21.7773H13.3369V26.3086H3.16188C1.71297 26.3086 0.53418 27.4874 0.53418 28.9363C0.53418 29.5228 1.01137 30 1.59789 30H29.4705C30.0571 30 30.5342 29.5228 30.5342 28.9363C30.5342 27.4873 29.3554 26.3086 27.9065 26.3086H23.0209C22.7782 26.3086 22.5815 26.5053 22.5815 26.748C22.5815 26.9908 22.7782 27.1875 23.0209 27.1875H27.9065C28.8708 27.1875 29.6553 27.9721 29.6553 28.9363C29.6553 29.0382 29.5724 29.1211 29.4705 29.1211H1.59789C1.496 29.1211 1.41309 29.0382 1.41309 28.9363C1.41309 27.972 2.1976 27.1875 3.16188 27.1875H21.1404C21.3832 27.1875 21.5799 26.9908 21.5799 26.748C21.5799 26.5053 21.3832 26.3086 21.1404 26.3086H17.7314V21.7774H18.7876C19.4007 21.7774 19.8994 21.2786 19.8994 20.6656V20.0196H24.3818V22.9671C24.3818 23.5325 24.8419 23.9925 25.4072 23.9925ZM25.6366 2.69531H26.5155V4.92188H25.6366V2.69531ZM19.8859 19.1406H11.1825V18.2617H19.8859V19.1406ZM6.68652 15.5191H6.77441C7.33979 15.5191 7.7998 15.0591 7.7998 14.4937V12.0346H11.1689V12.6806C11.1689 13.2936 11.6677 13.7924 12.2807 13.7924H13.3369V15C13.3369 15.2428 13.5337 15.4395 13.7764 15.4395C14.0191 15.4395 14.2158 15.2428 14.2158 15V13.7924H16.8525V17.3828H14.2158V16.8778C14.2158 16.6351 14.0191 16.4384 13.7764 16.4384C13.5337 16.4384 13.3369 16.6351 13.3369 16.8778V17.3828H6.68652V15.5191ZM16.8525 6.88477V9.39791H14.2158V6.88477H16.8525ZM17.7525 10.2768V11.1557H13.3159V10.2768H17.7525ZM23.2686 10.2768V11.1557H18.6314V10.2768H23.2686ZM17.2931 12.9135C17.2928 12.9135 17.2923 12.9135 17.292 12.9135C17.2916 12.9135 17.2912 12.9135 17.2909 12.9135H13.7775C13.7772 12.9135 13.7768 12.9135 13.7764 12.9135C13.7761 12.9135 13.7757 12.9135 13.7753 12.9135H12.2808C12.1524 12.9135 12.0479 12.8091 12.0479 12.6806V12.0346H19.0206V12.6806C19.0206 12.809 18.9161 12.9135 18.7877 12.9135H17.2931ZM12.437 11.1557H7.7998V10.2768H12.437V11.1557ZM17.7314 17.3828V13.7924H18.7876C19.4007 13.7924 19.8994 13.2937 19.8994 12.6806V12.0346H23.2686V14.4938C23.2686 15.0592 23.7286 15.5192 24.2939 15.5192H24.3818V17.3829H17.7314V17.3828ZM29.626 16.6211C29.6421 16.6211 29.6553 16.6343 29.6553 16.6504V20.752C29.6553 20.7681 29.6421 20.7813 29.626 20.7813H28.7764V16.6211H29.626ZM27.8975 14.5297V22.9671C27.8975 23.0479 27.8318 23.1136 27.751 23.1136H25.4072C25.3264 23.1136 25.2607 23.0479 25.2607 22.9671V14.5297C25.2607 14.4489 25.3264 14.3832 25.4072 14.3832H27.751C27.8318 14.3832 27.8975 14.4489 27.8975 14.5297ZM28.5127 9.12445C28.5288 9.12445 28.542 9.13764 28.542 9.15375V12.2788C28.542 12.295 28.5288 12.3081 28.5127 12.3081H27.6631V9.12445H28.5127ZM26.7842 7.03301V13.5042H25.4072C24.8419 13.5042 24.3818 13.9642 24.3818 14.5296V14.6402H24.2939C24.2131 14.6402 24.1475 14.5746 24.1475 14.4937V7.03301C24.1475 6.95221 24.2131 6.88652 24.2939 6.88652H26.6377C26.7185 6.88652 26.7842 6.95221 26.7842 7.03301ZM22.1506 0.878906H24.7281C24.7442 0.878906 24.7574 0.89209 24.7574 0.908203V6.00762H24.2939C23.831 6.00762 23.4392 6.31617 23.3122 6.73828H22.1506C22.1341 6.73828 22.1207 6.7251 22.1207 6.70898V4.69201C22.1207 4.69049 22.1209 4.68902 22.1209 4.6875V2.92969C22.1209 2.92816 22.1207 2.9267 22.1207 2.92518V0.908203C22.1207 0.89209 22.1341 0.878906 22.1506 0.878906ZM22.1506 7.61719H23.2686V9.39791H17.7314V6.88477H18.7876C19.4007 6.88477 19.8994 6.38602 19.8994 5.77295V5.12695H21.2418V6.70898C21.2418 7.20978 21.6495 7.61719 22.1506 7.61719ZM19.0205 5.77295C19.0205 5.90133 18.916 6.00586 18.7876 6.00586H12.2807C12.1523 6.00586 12.0479 5.90139 12.0479 5.77295V5.12695H19.0205V5.77295ZM17.3032 4.24805H13.8258V3.36914H17.3032V4.24805ZM16.8525 0.878906V2.49023H14.2158V0.878906H16.8525ZM9.88703 3.36914H12.9469V4.24805H9.88703V3.36914ZM11.1689 5.12695V5.77295C11.1689 6.38602 11.6677 6.88477 12.2807 6.88477H13.3369V9.39791H7.7998V7.61719H8.86152C9.42689 7.61719 9.88691 7.15717 9.88691 6.5918V5.12695H11.1689ZM4.61359 4.92188V2.69531H5.49238V4.92188H4.61359ZM6.37129 5.36303C6.37129 5.36244 6.37135 5.36186 6.37135 5.36133V2.25586C6.37135 2.25527 6.37129 2.25469 6.37129 2.25416V1.02539C6.37129 0.94459 6.43703 0.878906 6.51777 0.878906H8.86152C8.94227 0.878906 9.00801 0.94459 9.00801 1.02539V6.5918C9.00801 6.6726 8.94227 6.73828 8.86152 6.73828H7.75615C7.62918 6.31617 7.23736 6.00762 6.77441 6.00762H6.37129V5.36303ZM2.67285 12.3081C2.59211 12.3081 2.52637 12.2425 2.52637 12.1617V9.27094C2.52637 9.19014 2.59211 9.12445 2.67285 9.12445H3.40527V12.3081H2.67285ZM4.28418 7.03301C4.28418 6.95221 4.34992 6.88652 4.43066 6.88652H6.77441C6.85516 6.88652 6.9209 6.95221 6.9209 7.03301V14.4937C6.9209 14.5746 6.85516 14.6402 6.77441 14.6402H6.68652V14.5296C6.68652 13.9642 6.2265 13.5042 5.66113 13.5042H4.28418V7.03301ZM1.55957 20.7813C1.47883 20.7813 1.41309 20.7156 1.41309 20.6348V16.7676C1.41309 16.6868 1.47883 16.6211 1.55957 16.6211H2.29199V20.7813H1.55957ZM5.80762 22.9671C5.80762 23.0479 5.74188 23.1136 5.66113 23.1136H3.31738C3.23664 23.1136 3.1709 23.0479 3.1709 22.9671V14.5297C3.1709 14.4489 3.23664 14.3832 3.31738 14.3832H5.66113C5.74188 14.3832 5.80762 14.4489 5.80762 14.5297V22.9671ZM6.68652 18.2617H10.3036V19.1406H6.68652V18.2617ZM16.8525 26.3086H14.2158V21.7774H16.8525V26.3086ZM19.0205 20.6656C19.0205 20.794 18.916 20.8985 18.7876 20.8985H12.2807C12.1523 20.8985 12.0479 20.794 12.0479 20.6656V20.0196H19.0205V20.6656ZM20.7648 19.1406V18.2617H24.3818V19.1406H20.7648Z" fill="black"/>
</g>
<defs>
<clipPath id="clip0">
<rect width="30" height="30" fill="white" transform="translate(0.53418)"/>
</clipPath>
</defs>
</svg>
