<svg width="31" height="30" viewBox="0 0 31 30" fill="none" xmlns="http://www.w3.org/2000/svg">
<path d="M27.1723 6.10352e-05H15.1422C12.9342 6.10352e-05 11.1377 1.79637 11.1377 4.00455V5.68978C11.1377 5.83071 11.1566 5.97042 11.1944 6.10483C11.2706 6.38048 11.5556 6.54186 11.8311 6.46488C12.1063 6.38836 12.2674 6.10301 12.1909 5.82813C12.1784 5.78358 12.1722 5.73706 12.1722 5.68978V4.00455C12.1722 2.3669 13.5047 1.0346 15.1422 1.0346H27.1722C27.4574 1.0346 27.6894 1.2666 27.6894 1.55179C27.6894 1.83698 27.4574 2.06898 27.1722 2.06898H15.1422C14.0749 2.06898 13.2066 2.93713 13.2066 4.00455V5.68978C13.2066 5.73812 13.2001 5.7854 13.1875 5.83071C13.1096 6.10559 13.2695 6.39139 13.5441 6.46943C13.5912 6.48261 13.6388 6.48913 13.6853 6.48913C13.9108 6.48882 14.1183 6.34047 14.1827 6.11256C14.2215 5.97527 14.2412 5.83328 14.2412 5.68978V4.00455C14.2412 3.50766 14.6454 3.10351 15.1422 3.10351H27.1722C28.0279 3.10351 28.7239 2.40751 28.7239 1.55179C28.724 0.696065 28.028 6.10352e-05 27.1723 6.10352e-05Z" fill="black"/>
<path d="M21.7415 9.30878H4.15513C3.15681 9.30878 2.34473 10.1212 2.34473 11.1192C2.34473 12.1172 3.15681 12.9296 4.15513 12.9296H21.7413C22.7396 12.9296 23.5517 12.1172 23.5517 11.1192C23.5517 10.1212 22.7396 9.30878 21.7415 9.30878ZM21.7415 11.895H4.15513C3.72734 11.895 3.37926 11.547 3.37926 11.1192C3.37926 10.6914 3.72734 10.3433 4.15513 10.3433H21.7413C22.1691 10.3433 22.5172 10.6914 22.5172 11.1192C22.5173 11.5468 22.1693 11.895 21.7415 11.895Z" fill="black"/>
<path d="M16.8268 5.69H9.06816C6.78664 5.69 4.93018 7.54631 4.93018 9.82799C4.93018 10.1135 5.16187 10.3452 5.44737 10.3452H20.4474C20.7329 10.3452 20.9646 10.1135 20.9646 9.82799C20.9648 7.54631 19.1083 5.69 16.8268 5.69ZM6.0079 9.31064C6.2549 7.84484 7.53295 6.72439 9.06847 6.72439H16.8271C18.362 6.72439 19.6404 7.84469 19.8874 9.31064H6.0079Z" fill="black"/>
<path d="M7.0001 13.9653C6.71461 13.9653 6.48291 14.197 6.48291 14.4825V15.5171C6.48291 15.8026 6.71461 16.0343 7.0001 16.0343C7.2856 16.0343 7.51729 15.8026 7.51729 15.5171V14.4825C7.51729 14.197 7.2856 13.9653 7.0001 13.9653Z" fill="black"/>
<path d="M7.0001 24.2361C6.71461 24.2361 6.48291 24.4678 6.48291 24.7533V26.6007C6.48291 26.8862 6.71461 27.1179 7.0001 27.1179C7.2856 27.1179 7.51729 26.8865 7.51729 26.6007V24.7533C7.51729 24.4678 7.2856 24.2361 7.0001 24.2361Z" fill="black"/>
<path d="M7.0001 20.5408C6.71461 20.5408 6.48291 20.7725 6.48291 21.058V22.9053C6.48291 23.1908 6.71461 23.4225 7.0001 23.4225C7.2856 23.4225 7.51729 23.1911 7.51729 22.9053V21.058C7.51729 20.7725 7.2856 20.5408 7.0001 20.5408Z" fill="black"/>
<path d="M7.00035 16.848C6.71485 16.848 6.48315 17.0797 6.48315 17.3652V19.2125C6.48315 19.498 6.71485 19.7297 7.00035 19.7297C7.28584 19.7297 7.51754 19.4983 7.51754 19.2125V17.3652C7.51754 17.0797 7.28584 16.848 7.00035 16.848Z" fill="black"/>
<path d="M7.0001 27.9307C6.71461 27.9307 6.48291 28.1624 6.48291 28.4479V29.4825C6.48291 29.7679 6.71461 29.9996 7.0001 29.9996C7.2856 29.9996 7.51729 29.7679 7.51729 29.4825V28.4479C7.51729 28.1624 7.2856 27.9307 7.0001 27.9307Z" fill="black"/>
<path d="M10.6212 13.9653C10.3357 13.9653 10.104 14.197 10.104 14.4825V15.5171C10.104 15.8026 10.3357 16.0343 10.6212 16.0343C10.9067 16.0343 11.1384 15.8026 11.1384 15.5171V14.4825C11.1384 14.197 10.9067 13.9653 10.6212 13.9653Z" fill="black"/>
<path d="M10.6212 24.2361C10.3357 24.2361 10.104 24.4678 10.104 24.7533V26.6007C10.104 26.8862 10.3357 27.1179 10.6212 27.1179C10.9067 27.1179 11.1384 26.8865 11.1384 26.6007V24.7533C11.1384 24.4678 10.9067 24.2361 10.6212 24.2361Z" fill="black"/>
<path d="M10.6212 20.5408C10.3357 20.5408 10.104 20.7725 10.104 21.058V22.9053C10.104 23.1908 10.3357 23.4225 10.6212 23.4225C10.9067 23.4225 11.1384 23.1911 11.1384 22.9053V21.058C11.1384 20.7725 10.9067 20.5408 10.6212 20.5408Z" fill="black"/>
<path d="M10.6214 16.848C10.3359 16.848 10.1042 17.0797 10.1042 17.3652V19.2125C10.1042 19.498 10.3359 19.7297 10.6214 19.7297C10.9069 19.7297 11.1386 19.4983 11.1386 19.2125V17.3652C11.1386 17.0797 10.9069 16.848 10.6214 16.848Z" fill="black"/>
<path d="M10.6212 27.9307C10.3357 27.9307 10.104 28.1624 10.104 28.4479V29.4825C10.104 29.7679 10.3357 29.9996 10.6212 29.9996C10.9067 29.9996 11.1384 29.7679 11.1384 29.4825V28.4479C11.1384 28.1624 10.9067 27.9307 10.6212 27.9307Z" fill="black"/>
<path d="M14.242 13.9653C13.9566 13.9653 13.7249 14.197 13.7249 14.4825V15.5171C13.7249 15.8026 13.9566 16.0343 14.242 16.0343C14.5275 16.0343 14.7592 15.8026 14.7592 15.5171V14.4825C14.7594 14.197 14.5277 13.9653 14.242 13.9653Z" fill="black"/>
<path d="M14.2423 20.5408C13.9568 20.5408 13.7251 20.7725 13.7251 21.058V22.9053C13.7251 23.1908 13.9568 23.4225 14.2423 23.4225C14.5278 23.4225 14.7595 23.1911 14.7595 22.9053V21.058C14.7596 20.7725 14.5279 20.5408 14.2423 20.5408Z" fill="black"/>
<path d="M14.2423 24.2361C13.9568 24.2361 13.7251 24.4678 13.7251 24.7533V26.6007C13.7251 26.8862 13.9568 27.1179 14.2423 27.1179C14.5278 27.1179 14.7595 26.8865 14.7595 26.6007V24.7533C14.7596 24.4678 14.5279 24.2361 14.2423 24.2361Z" fill="black"/>
<path d="M14.242 16.848C13.9566 16.848 13.7249 17.0797 13.7249 17.3652V19.2125C13.7249 19.498 13.9566 19.7297 14.242 19.7297C14.5275 19.7297 14.7592 19.4983 14.7592 19.2125V17.3652C14.7594 17.0797 14.5277 16.848 14.242 16.848Z" fill="black"/>
<path d="M14.242 27.9307C13.9566 27.9307 13.7249 28.1624 13.7249 28.4479V29.4825C13.7249 29.7679 13.9566 29.9996 14.242 29.9996C14.5275 29.9996 14.7592 29.7679 14.7592 29.4825V28.4479C14.7594 28.1624 14.5277 27.9307 14.242 27.9307Z" fill="black"/>
<path d="M17.8619 13.9653C17.5764 13.9653 17.3447 14.197 17.3447 14.4825V15.5171C17.3447 15.8026 17.5764 16.0343 17.8619 16.0343C18.1474 16.0343 18.3791 15.8026 18.3791 15.5171V14.4825C18.3791 14.197 18.1474 13.9653 17.8619 13.9653Z" fill="black"/>
<path d="M17.8622 24.2361C17.5767 24.2361 17.345 24.4678 17.345 24.7533V26.6007C17.345 26.8862 17.5767 27.1179 17.8622 27.1179C18.1477 27.1179 18.3794 26.8865 18.3794 26.6007V24.7533C18.3794 24.4678 18.1477 24.2361 17.8622 24.2361Z" fill="black"/>
<path d="M17.8622 20.5408C17.5767 20.5408 17.345 20.7725 17.345 21.058V22.9053C17.345 23.1908 17.5767 23.4225 17.8622 23.4225C18.1477 23.4225 18.3794 23.1911 18.3794 22.9053V21.058C18.3794 20.7725 18.1477 20.5408 17.8622 20.5408Z" fill="black"/>
<path d="M17.8624 16.848C17.5769 16.848 17.3452 17.0797 17.3452 17.3652V19.2125C17.3452 19.498 17.5769 19.7297 17.8624 19.7297C18.1479 19.7297 18.3796 19.4983 18.3796 19.2125V17.3652C18.3796 17.0797 18.1479 16.848 17.8624 16.848Z" fill="black"/>
<path d="M17.8619 27.9307C17.5764 27.9307 17.3447 28.1624 17.3447 28.4479V29.4825C17.3447 29.7679 17.5764 29.9996 17.8619 29.9996C18.1474 29.9996 18.3791 29.7679 18.3791 29.4825V28.4479C18.3791 28.1624 18.1474 27.9307 17.8619 27.9307Z" fill="black"/>
</svg>
