<svg width="22" height="17" viewBox="0 0 22 17" fill="none" xmlns="http://www.w3.org/2000/svg">
<path d="M19.4958 0.962891H1.87861C0.844038 0.962891 0 1.78077 0 2.78527V14.9345C0 15.9356 0.840281 16.7568 1.87861 16.7568H19.4958C20.5278 16.7568 21.3744 15.9417 21.3744 14.9345V2.78527C21.3744 1.78418 20.5341 0.962891 19.4958 0.962891ZM19.2364 2.17781L10.727 10.4325L2.14408 2.17781H19.2364ZM1.25241 14.6829V3.03105L7.28395 8.83188L1.25241 14.6829ZM2.13798 15.5419L8.17332 9.68722L10.2881 11.7211C10.5329 11.9565 10.9279 11.9558 11.1718 11.7192L13.2338 9.71893L19.2364 15.5419H2.13798ZM20.122 14.6828L14.1193 8.85986L20.122 3.03684V14.6828Z" fill="#282828"/>
</svg>
