<svg width="18" height="21" viewBox="0 0 18 21" fill="none" xmlns="http://www.w3.org/2000/svg">
<path d="M14.9719 14.5401L16.8824 17.2665C17.2093 17.733 17.0821 18.3803 16.6012 18.6974C14.1057 20.343 10.8013 19.9704 8.77705 17.8152L7.62168 16.5851C5.74873 14.5909 4.17255 12.3389 2.9404 9.89654L2.26128 8.55039C0.923667 5.89899 1.8062 2.64938 4.31278 0.99645C4.75774 0.703034 5.35267 0.813055 5.65514 1.24469L7.61809 4.04591C8.18073 4.84883 7.96182 5.96283 7.13413 6.50864L6.40532 6.98924C6.19209 7.12985 6.0947 7.39176 6.16539 7.63453C6.96488 10.3805 8.63959 12.7849 10.9383 14.4872L11.0155 14.5444C11.2143 14.6916 11.4857 14.6981 11.6943 14.5605L12.4363 14.0712C13.2768 13.517 14.4006 13.7248 14.9719 14.5401Z" stroke="black" stroke-width="1.5"/>
</svg>
