<svg width="30" height="18" viewBox="0 0 30 18" fill="none" xmlns="http://www.w3.org/2000/svg">
<ellipse cx="7.39691" cy="10.1101" rx="1.70697" ry="1.65308" fill="#282828"/>
<ellipse cx="22.1917" cy="10.1101" rx="1.70697" ry="1.65308" fill="#282828"/>
<path d="M11.0209 10.1101C11.0209 12.0306 9.40998 13.6071 7.39822 13.6071C5.38647 13.6071 3.77551 12.0306 3.77551 10.1101C3.77551 8.1896 5.38647 6.61315 7.39822 6.61315C9.40998 6.61315 11.0209 8.1896 11.0209 10.1101Z" stroke="#282828" stroke-width="0.72045"/>
<path d="M25.8138 10.1101C25.8138 12.0306 24.2029 13.6071 22.1911 13.6071C20.1794 13.6071 18.5684 12.0306 18.5684 10.1101C18.5684 8.1896 20.1794 6.61315 22.1911 6.61315C24.2029 6.61315 25.8138 8.1896 25.8138 10.1101Z" stroke="#282828" stroke-width="0.72045"/>
<path d="M14.1454 10.1096C14.1454 13.6883 11.1437 16.6245 7.39688 16.6245C3.65003 16.6245 0.648405 13.6883 0.648405 10.1096C0.648405 6.53098 3.65003 3.59469 7.39688 3.59469C11.1437 3.59469 14.1454 6.53098 14.1454 10.1096Z" stroke="#282828" stroke-width="1.29681"/>
<path d="M28.9406 10.1099C28.9406 13.6887 25.939 16.625 22.1922 16.625C18.4453 16.625 15.4437 13.6887 15.4437 10.1099C15.4437 6.53107 18.4453 3.59469 22.1922 3.59469C25.939 3.59469 28.9406 6.53107 28.9406 10.1099Z" stroke="#282828" stroke-width="1.29681"/>
<path d="M4.55261 4.04834C5.69059 2.94629 9.33214 0.742188 14.7944 0.742188C20.2568 0.742188 23.8983 2.94629 25.0363 4.04834" stroke="#282828" stroke-width="1.29681"/>
<path d="M0 2.94629H6.82788L1.13798 7.354C1.13798 6.25208 1.13798 4.04822 0 2.94629Z" fill="#282828"/>
<path d="M29.5881 2.94629H22.7603L28.4502 7.35449C28.4502 6.25244 28.4502 4.04834 29.5881 2.94629Z" fill="#282828"/>
<path d="M14.7946 17.2739L12.5187 13.9676L14.2256 10.1102V8.45703L14.7946 9.00809L15.3636 8.45703V10.1102L17.0706 13.9676L14.7946 17.2739Z" fill="#282828"/>
</svg>
