<svg width="30" height="19" viewBox="0 0 30 19" fill="none" xmlns="http://www.w3.org/2000/svg">
<ellipse cx="7.39691" cy="10.8721" rx="1.70697" ry="1.70413" fill="white"/>
<ellipse cx="22.1918" cy="10.8721" rx="1.70697" ry="1.70413" fill="white"/>
<path d="M11.0212 10.8718C11.0212 12.8684 9.3998 14.4879 7.39846 14.4879C5.39713 14.4879 3.77575 12.8684 3.77575 10.8718C3.77575 8.87527 5.39713 7.25573 7.39846 7.25573C9.3998 7.25573 11.0212 8.87527 11.0212 10.8718Z" stroke="white" stroke-width="0.72045"/>
<path d="M25.8137 10.8718C25.8137 12.8684 24.1923 14.4879 22.1909 14.4879C20.1896 14.4879 18.5682 12.8684 18.5682 10.8718C18.5682 8.87527 20.1896 7.25573 22.1909 7.25573C24.1923 7.25573 25.8137 8.87527 25.8137 10.8718Z" stroke="white" stroke-width="0.72045"/>
<path d="M14.1454 10.8714C14.1454 14.5906 11.125 17.6075 7.39688 17.6075C3.66878 17.6075 0.648405 14.5906 0.648405 10.8714C0.648405 7.15212 3.66878 4.13522 7.39688 4.13522C11.125 4.13522 14.1454 7.15212 14.1454 10.8714Z" stroke="white" stroke-width="1.29681"/>
<path d="M28.9408 10.8719C28.9408 14.5911 25.9204 17.608 22.1923 17.608C18.4642 17.608 15.4438 14.5911 15.4438 10.8719C15.4438 7.15261 18.4642 4.13571 22.1923 4.13571C25.9204 4.13571 28.9408 7.15261 28.9408 10.8719Z" stroke="white" stroke-width="1.29681"/>
<path d="M4.55273 4.6231C5.69072 3.48702 9.33226 1.21484 14.7946 1.21484C20.2569 1.21484 23.8984 3.48702 25.0364 4.6231" stroke="white" stroke-width="1.29681"/>
<path d="M0 3.48682H6.82789L1.13798 8.03116C1.13798 6.89508 1.13798 4.6229 0 3.48682Z" fill="white"/>
<path d="M29.5879 3.4873H22.76L28.4499 8.03165C28.4499 6.89556 28.4499 4.62339 29.5879 3.4873Z" fill="white"/>
<path d="M14.7945 18.2567L12.5186 14.8484L14.2255 10.8721V9.16797L14.7945 9.73601L15.3635 9.16797V10.8721L17.0705 14.8484L14.7945 18.2567Z" fill="white"/>
</svg>
