<svg width="31" height="30" viewBox="0 0 31 30" fill="none" xmlns="http://www.w3.org/2000/svg">
<g clip-path="url(#clip0)">
<path d="M25.2898 14.1797H27.8679C28.3687 14.1797 28.7761 13.7723 28.7761 13.2715V12.8907H29.6257C30.1265 12.8907 30.5339 12.4833 30.5339 11.9825V7.88092C30.5339 7.38012 30.1265 6.97272 29.6257 6.97272H28.7761V6.59186C28.7761 6.09106 28.3687 5.68365 27.8679 5.68365H25.2898C24.789 5.68365 24.3816 6.09106 24.3816 6.59186V8.61334H23.7078V8.46686C23.7078 7.73994 23.1163 7.1485 22.3894 7.1485C21.6625 7.1485 21.071 7.73994 21.071 8.46686V8.61334H13.6293C13.3865 8.61334 13.1898 8.81004 13.1898 9.05279C13.1898 9.29555 13.3865 9.49225 13.6293 9.49225H21.071V10.3712H9.99683V9.49225H11.7979C12.0406 9.49225 12.2373 9.29555 12.2373 9.05279C12.2373 8.81004 12.0406 8.61334 11.7979 8.61334H9.99683V8.46686C9.99683 7.73994 9.40538 7.1485 8.67847 7.1485C7.95155 7.1485 7.36011 7.73994 7.36011 8.46686V8.61334H6.68628V6.70905C6.68628 6.14367 6.22626 5.68365 5.66089 5.68365H3.31714C2.75177 5.68365 2.29175 6.14367 2.29175 6.70905V6.97272H1.55933C0.993955 6.97272 0.533936 7.43274 0.533936 7.99811V11.8653C0.533936 12.4307 0.993955 12.8907 1.55933 12.8907H2.29175V13.1544C2.29175 13.7197 2.75177 14.1797 3.31714 14.1797H5.66089C6.22626 14.1797 6.68628 13.7197 6.68628 13.1544V11.2501H7.36011V20.6251H6.18929C5.94653 20.6251 5.74983 20.8218 5.74983 21.0645C5.74983 21.3073 5.94653 21.504 6.18929 21.504H27.9063C28.8705 21.504 29.655 22.2885 29.655 23.2528C29.655 23.3546 29.5721 23.4376 29.4703 23.4376H1.59759C1.49575 23.4376 1.41284 23.3546 1.41284 23.2528C1.41284 22.2885 2.19735 21.504 3.16163 21.504H4.25979C4.50255 21.504 4.69925 21.3073 4.69925 21.0645C4.69925 20.8218 4.50255 20.6251 4.25979 20.6251H3.16163C1.71267 20.6251 0.533936 21.8038 0.533936 23.2528C0.533936 23.8393 1.01112 24.3165 1.59759 24.3165H29.4702C30.0567 24.3165 30.5339 23.8393 30.5339 23.2528C30.5339 21.8038 29.3552 20.6251 27.9062 20.6251H23.7078V15.0001C23.7078 14.7573 23.5111 14.5606 23.2683 14.5606C23.0256 14.5606 22.8289 14.7573 22.8289 15.0001V20.6251H21.95V8.46686C21.95 8.22451 22.1471 8.0274 22.3894 8.0274C22.6317 8.0274 22.8289 8.22451 22.8289 8.46686V13.1023C22.8289 13.345 23.0256 13.5417 23.2683 13.5417C23.5111 13.5417 23.7078 13.345 23.7078 13.1023V11.2501H24.3816V13.2715C24.3816 13.7723 24.789 14.1797 25.2898 14.1797ZM1.55933 12.0118C1.47853 12.0118 1.41284 11.9461 1.41284 11.8653V7.99811C1.41284 7.91731 1.47853 7.85162 1.55933 7.85162H2.29175V12.0118H1.55933ZM5.80737 13.1544C5.80737 13.2352 5.74169 13.3008 5.66089 13.3008H3.31714C3.23634 13.3008 3.17065 13.2352 3.17065 13.1544V6.70905C3.17065 6.62824 3.23634 6.56256 3.31714 6.56256H5.66089C5.74169 6.56256 5.80737 6.62824 5.80737 6.70905V13.1544ZM6.68628 10.3712V9.49225H7.36011V10.3712H6.68628ZM8.23901 20.6251V8.46686C8.23901 8.22451 8.43612 8.0274 8.67847 8.0274C8.92081 8.0274 9.11792 8.22451 9.11792 8.46686V20.6251H8.23901ZM18.8738 14.7657H12.1941C11.8872 14.7657 11.6375 14.516 11.6375 14.209C11.6375 13.9021 11.8872 13.6524 12.1941 13.6524H18.8738C19.1807 13.6524 19.4304 13.9021 19.4304 14.209C19.4304 14.516 19.1807 14.7657 18.8738 14.7657ZM16.5007 15.6446V20.6251H14.5671V15.6446H16.5007ZM12.8093 20.6251V15.6446H13.6882V20.6251H12.8093ZM17.3796 20.6251V15.6446H18.2585V20.6251H17.3796ZM19.1375 20.6251V15.6199C19.8035 15.4957 20.3093 14.9106 20.3093 14.209C20.3093 13.4174 19.6654 12.7735 18.8738 12.7735H12.1941C11.4025 12.7735 10.7585 13.4174 10.7585 14.209C10.7585 14.9105 11.2644 15.4957 11.9304 15.6199V20.6251H9.99683V11.2501H21.071V20.6251H19.1375ZM29.6257 7.85162C29.6418 7.85162 29.655 7.86481 29.655 7.88092V11.9825C29.655 11.9986 29.6418 12.0118 29.6257 12.0118H28.7761V7.85162H29.6257ZM25.2605 6.59186C25.2605 6.57574 25.2737 6.56256 25.2898 6.56256H27.8679C27.884 6.56256 27.8972 6.57574 27.8972 6.59186V13.2715C27.8972 13.2877 27.884 13.3008 27.8679 13.3008H25.2898C25.2737 13.3008 25.2605 13.2877 25.2605 13.2715V6.59186ZM23.7078 10.3712V9.49225H24.3816V10.3712H23.7078Z" fill="black"/>
</g>
<defs>
<clipPath id="clip0">
<rect width="30" height="30" fill="white" transform="translate(0.53418)"/>
</clipPath>
</defs>
</svg>
