<svg width="31" height="30" viewBox="0 0 31 30" fill="none" xmlns="http://www.w3.org/2000/svg">
<g clip-path="url(#clip0)">
<path d="M24.6748 15.5859C24.9984 15.5859 25.2607 15.3236 25.2607 15C25.2607 14.6764 24.9984 14.4141 24.6748 14.4141C24.3512 14.4141 24.0889 14.6764 24.0889 15C24.0889 15.3236 24.3512 15.5859 24.6748 15.5859Z" fill="black"/>
<path d="M29.9482 2.63684H25.2607V0.879028C25.2607 0.555415 24.9984 0.293091 24.6748 0.293091H21.1592C20.8356 0.293091 20.5732 0.555415 20.5732 0.879028V2.63684H15.8857C15.5621 2.63684 15.2998 2.89916 15.2998 3.22278V6.76577C14.7029 6.44959 14.0233 6.26965 13.3021 6.26965H5.93031C3.56875 6.26965 1.64746 8.19094 1.64746 10.5525C1.64746 11.3033 1.84586 12.0438 2.22127 12.6939L3.34574 14.6416C1.55301 16.3529 0.53418 18.7202 0.53418 21.2111C0.53418 23.6121 1.48639 25.796 3.21549 27.3602C4.88828 28.8737 7.16143 29.7072 9.61621 29.7072C12.0693 29.7072 14.3409 28.8748 16.0134 27.3634H20.5732V29.1212C20.5732 29.4448 20.8356 29.7072 21.1592 29.7072H24.6748C24.9984 29.7072 25.2607 29.4448 25.2607 29.1212V27.3634H29.9482C30.2719 27.3634 30.5342 27.1011 30.5342 26.7775V22.09C30.5342 21.7664 30.2719 21.504 29.9482 21.504H25.2607V17.6368C25.2607 17.314 24.9977 17.0509 24.6748 17.0509C24.352 17.0509 24.0889 17.314 24.0889 17.6368V21.504H21.7451V8.49621H24.0889V12.3634C24.0889 12.6863 24.352 12.9493 24.6748 12.9493C24.9977 12.9493 25.2607 12.6863 25.2607 12.3634V8.49621H29.9482C30.2719 8.49621 30.5342 8.23389 30.5342 7.91028V3.22278C30.5342 2.89916 30.2719 2.63684 29.9482 2.63684ZM21.7451 1.46497H24.0889V2.63684H21.7451V1.46497ZM16.4717 3.80872H21.1592H24.6748H29.3623V4.98059H16.4717V3.80872ZM1.70605 21.2111C1.70605 18.8994 2.71387 16.7097 4.47109 15.2032C4.6852 15.0196 4.73822 14.7096 4.59719 14.4654L3.23611 12.108C2.96348 11.6357 2.81934 11.0978 2.81934 10.5525C2.81934 8.83711 4.21492 7.44153 5.93031 7.44153H13.3021C15.0175 7.44153 16.4131 8.83711 16.4131 10.5525C16.4131 11.0978 16.2689 11.6357 15.9963 12.108L14.6352 14.4654C14.4942 14.7096 14.5472 15.0196 14.7613 15.2032C16.5186 16.7097 17.5264 18.8994 17.5264 21.2111C17.5264 25.3866 14.1257 28.5353 9.61621 28.5353C5.10672 28.5353 1.70605 25.3866 1.70605 21.2111ZM24.0889 28.5353H21.7451V27.3634H24.0889V28.5353ZM29.3623 26.1915H24.6748H21.1592H17.0808C17.357 25.8214 17.6 25.4297 17.8077 25.0197H29.3623V26.1915ZM24.6748 22.6759H29.3623V23.8478H18.2898C18.4125 23.4677 18.5081 23.0764 18.5758 22.6759H21.1592H24.6748ZM20.5732 21.504H18.6929C18.6961 21.4067 18.6982 21.3091 18.6982 21.2111C18.6982 18.7202 17.6794 16.3529 15.8867 14.6416L17.0112 12.6939C17.3866 12.0438 17.585 11.3033 17.585 10.5525C17.585 9.80772 17.3935 9.10694 17.0578 8.49621H20.5732V21.504ZM29.3623 7.32434H24.6748H21.1592H16.4717V6.15247H29.3623V7.32434Z" fill="black"/>
<path d="M15.2412 10.5524C15.2412 9.48323 14.3713 8.61334 13.3021 8.61334H5.93031C4.86109 8.61334 3.99121 9.48323 3.99121 10.5524C3.99121 10.8923 4.08104 11.2276 4.25102 11.522L5.55713 13.7842C5.70848 14.0464 6.03473 14.1501 6.30977 14.0234C7.3501 13.5439 8.46256 13.3008 9.61621 13.3008C10.7699 13.3008 11.8823 13.5439 12.9227 14.0234C13.0019 14.0599 13.0853 14.0772 13.1676 14.0772C13.3711 14.0772 13.5675 13.9709 13.6754 13.7842L14.9815 11.522C15.1514 11.2276 15.2412 10.8924 15.2412 10.5524ZM13.9666 10.9361L12.9198 12.7489C11.8687 12.3373 10.76 12.129 9.61621 12.129C8.47246 12.129 7.36369 12.3373 6.31258 12.749L5.26586 10.9361C5.19859 10.8196 5.16309 10.687 5.16309 10.5524C5.16309 10.1294 5.50727 9.78522 5.93031 9.78522H13.3021C13.7252 9.78522 14.0693 10.1294 14.0693 10.5524C14.0693 10.687 14.0338 10.8196 13.9666 10.9361Z" fill="black"/>
</g>
<defs>
<clipPath id="clip0">
<rect width="30" height="30" fill="white" transform="translate(0.53418)"/>
</clipPath>
</defs>
</svg>
