<svg width="31" height="30" viewBox="0 0 31 30" fill="none" xmlns="http://www.w3.org/2000/svg">
<g clip-path="url(#clip0)">
<path d="M27.9062 24.5217H26.7705C26.5278 24.5217 26.3311 24.7185 26.3311 24.9612C26.3311 25.2039 26.5278 25.4006 26.7705 25.4006H27.9062C28.8705 25.4006 29.655 26.1851 29.655 27.1494C29.655 27.2513 29.5721 27.3342 29.4703 27.3342H1.59759C1.49575 27.3342 1.41284 27.2513 1.41284 27.1494C1.41284 26.1851 2.19735 25.4006 3.16163 25.4006H24.9065C25.1492 25.4006 25.3459 25.2039 25.3459 24.9612C25.3459 24.7185 25.1492 24.5217 24.9065 24.5217H19.1374V19.5166C19.8035 19.3924 20.3093 18.8072 20.3093 18.1057C20.3093 17.3142 19.6654 16.6702 18.8738 16.6702H16.8523V15.3225H17.6012C18.1575 15.3225 18.6101 14.8699 18.6101 14.3136V8.42128C18.6101 7.86493 18.1575 7.41235 17.6012 7.41235H16.8523V6.17778H18.4636C18.7064 6.17778 18.9031 5.98103 18.9031 5.73833V4.42407H22.6534V5.88892H22.4342C21.7473 5.88892 21.1885 6.44772 21.1885 7.13456V11.3815C21.1885 12.0683 21.7473 12.6271 22.4342 12.6271H25.5092C26.1961 12.6271 26.7549 12.0683 26.7549 11.3815V7.13456C26.7549 6.44772 26.1961 5.88892 25.5092 5.88892H25.2901V4.42407H25.6709C25.9137 4.42407 26.1104 4.22731 26.1104 3.98462V3.10571C26.1104 2.37874 25.519 1.78735 24.792 1.78735H23.0751C22.8323 1.78735 22.6356 1.98411 22.6356 2.22681C22.6356 2.4695 22.8323 2.66626 23.0751 2.66626H24.792C25.0344 2.66626 25.2315 2.86337 25.2315 3.10571V3.54517H18.5205C18.5019 3.54276 18.483 3.54106 18.4636 3.54106H16.8526V3.10571C16.8526 2.86337 17.0497 2.66626 17.292 2.66626H21.1619C21.4047 2.66626 21.6014 2.4695 21.6014 2.22681C21.6014 1.98411 21.4047 1.78735 21.1619 1.78735H17.292C16.8529 1.78735 16.4636 2.00333 16.2239 2.33438C16.023 2.21052 15.7868 2.13892 15.534 2.13892C15.2813 2.13892 15.0451 2.21052 14.8443 2.33427C14.6045 2.00327 14.2152 1.78735 13.7761 1.78735H6.27612C5.54921 1.78735 4.95776 2.37874 4.95776 3.10571V3.98462C4.95776 4.22731 5.15446 4.42407 5.39722 4.42407H5.77808V5.88892H5.55893C4.87204 5.88892 4.31323 6.44772 4.31323 7.13456V11.3815C4.31323 12.0683 4.87204 12.6271 5.55893 12.6271H8.63393C9.32083 12.6271 9.87964 12.0683 9.87964 11.3815V7.13456C9.87964 6.44772 9.32083 5.88892 8.63393 5.88892H8.41479V4.42407H12.1648V5.73833C12.1648 5.98103 12.3615 6.17778 12.6042 6.17778H14.2156V7.41235H13.4667C12.9104 7.41235 12.4578 7.86499 12.4578 8.42128V14.3136C12.4578 14.8699 12.9104 15.3225 13.4667 15.3225H14.2156V16.6702H12.1941C11.4025 16.6702 10.7585 17.3142 10.7585 18.1057C10.7585 18.8072 11.2644 19.3924 11.9304 19.5166V20.5957C11.9304 20.8384 12.1271 21.0352 12.3699 21.0352C12.6126 21.0352 12.8093 20.8384 12.8093 20.5957V19.5413H13.6882V24.5217H12.8093V22.5034C12.8093 22.2607 12.6126 22.064 12.3699 22.064C12.1271 22.064 11.9304 22.2607 11.9304 22.5034V24.5217H3.16163C1.71267 24.5217 0.533936 25.7005 0.533936 27.1494C0.533936 27.7359 1.01112 28.2131 1.59759 28.2131H29.4702C30.0567 28.2131 30.5339 27.7359 30.5339 27.1494C30.5339 25.7005 29.3552 24.5217 27.9062 24.5217ZM17.3796 24.5217V19.5413H18.2585V24.5217H17.3796ZM18.0242 5.29888H16.8523V4.42407H18.0242V5.29888ZM25.876 7.13456V11.3815C25.876 11.5837 25.7114 11.7482 25.5092 11.7482H22.4342C22.232 11.7482 22.0674 11.5837 22.0674 11.3815V7.13456C22.0674 6.93235 22.232 6.76782 22.4342 6.76782H25.5092C25.7114 6.76782 25.876 6.93235 25.876 7.13456ZM24.4112 4.42407V5.88892H23.5323V4.42407H24.4112ZM5.83667 3.10571C5.83667 2.86337 6.03378 2.66626 6.27612 2.66626H13.7761C14.0185 2.66626 14.2156 2.86337 14.2156 3.10571V3.54106H12.6042C12.5849 3.54106 12.566 3.54276 12.5474 3.54517H5.83667V3.10571ZM9.00073 7.13456V11.3815C9.00073 11.5837 8.83614 11.7482 8.63393 11.7482H5.55893C5.35673 11.7482 5.19214 11.5837 5.19214 11.3815V7.13456C5.19214 6.93235 5.35673 6.76782 5.55893 6.76782H8.63393C8.83614 6.76782 9.00073 6.93235 9.00073 7.13456ZM7.53589 5.88892H6.65698V4.42407H7.53589V5.88892ZM13.0437 5.29888V4.42407H14.2156V5.29888H13.0437ZM15.0945 3.45728C15.0945 3.21493 15.2916 3.01782 15.5339 3.01782C15.7763 3.01782 15.9734 3.21493 15.9734 3.45728V7.41235H15.0945V3.45728ZM13.3367 14.3136V8.42128C13.3367 8.34956 13.395 8.29126 13.4667 8.29126H17.6012C17.673 8.29126 17.7313 8.34962 17.7313 8.42128V14.3136C17.7313 14.3853 17.673 14.4436 17.6012 14.4436H13.4667C13.395 14.4436 13.3367 14.3852 13.3367 14.3136ZM15.0945 15.3225H15.9734V16.6702H15.0945V15.3225ZM12.1941 18.6624C11.8872 18.6624 11.6374 18.4126 11.6374 18.1057C11.6374 17.7988 11.8872 17.5491 12.1941 17.5491H18.8738C19.1807 17.5491 19.4304 17.7988 19.4304 18.1057C19.4304 18.4126 19.1807 18.6624 18.8738 18.6624H12.1941ZM14.5671 19.5413H16.5007V24.5217H14.5671V19.5413Z" fill="black"/>
</g>
<defs>
<clipPath id="clip0">
<rect width="30" height="30" fill="white" transform="translate(0.53418)"/>
</clipPath>
</defs>
</svg>
