<svg width="31" height="30" viewBox="0 0 31 30" fill="none" xmlns="http://www.w3.org/2000/svg">
<g clip-path="url(#clip0)">
<path d="M27.9065 24.3456H19.1377V22.3379C19.1377 22.0951 18.9409 21.8984 18.6982 21.8984C18.4555 21.8984 18.2588 22.0951 18.2588 22.3379V24.3456H17.3799V19.3651H18.2588V20.4193C18.2588 20.662 18.4555 20.8587 18.6982 20.8587C18.9409 20.8587 19.1377 20.662 19.1377 20.4193V19.3404C19.8037 19.2162 20.3096 18.6311 20.3096 17.9295C20.3096 17.228 19.8037 16.6428 19.1377 16.5186V6.00187H22.6546L25.4058 6.98525C25.4547 7.00271 25.5046 7.01097 25.5537 7.01097C25.7341 7.01097 25.9033 6.899 25.9676 6.71929C26.0492 6.49078 25.9302 6.23929 25.7017 6.15755L22.8787 5.14851C22.8313 5.13158 22.7812 5.12285 22.7308 5.12285H19.1377V3.28113C19.1377 2.55421 18.5463 1.96277 17.8193 1.96277C17.0924 1.96277 16.501 2.55421 16.501 3.28113V3.36515H14.5674V3.28113C14.5674 2.55421 13.976 1.96277 13.249 1.96277C12.5221 1.96277 11.9307 2.55421 11.9307 3.28113V5.12296H8.33758C8.28719 5.12296 8.23715 5.13164 8.18969 5.14863L5.36676 6.15767C5.13824 6.23941 5.01918 6.49089 5.10086 6.71941C5.18254 6.94793 5.43414 7.06693 5.6626 6.98531L8.41381 6.00193H11.9307V7.31619C11.9307 7.55894 12.1274 7.75564 12.3701 7.75564C12.6128 7.75564 12.8096 7.55894 12.8096 7.31619V6.00193H13.6885V16.494H12.8096V9.20203C12.8096 8.95927 12.6128 8.76257 12.3701 8.76257C12.1274 8.76257 11.9307 8.95927 11.9307 9.20203V16.5187C11.2647 16.643 10.7588 17.2281 10.7588 17.9296C10.7588 18.6312 11.2647 19.2163 11.9307 19.3405V24.3456H3.16188C1.71297 24.3456 0.53418 25.5244 0.53418 26.9733C0.53418 27.5599 1.01137 28.037 1.59789 28.037H6.08154C6.32424 28.037 6.521 27.8403 6.521 27.5975C6.521 27.3548 6.32424 27.1581 6.08154 27.1581H1.59789C1.496 27.1581 1.41309 27.0752 1.41309 26.9733C1.41309 26.009 2.1976 25.2245 3.16188 25.2245H27.9065C28.8708 25.2245 29.6553 26.0091 29.6553 26.9733C29.6553 27.0752 29.5724 27.1581 29.4705 27.1581H7.99469C7.75199 27.1581 7.55523 27.3548 7.55523 27.5975C7.55523 27.8403 7.75199 28.037 7.99469 28.037H29.4705C30.0571 28.037 30.5342 27.5598 30.5342 26.9733C30.5342 25.5243 29.3554 24.3456 27.9065 24.3456ZM16.501 24.3456H14.5674V19.3651H16.501V24.3456ZM18.2588 16.494H17.3799V6.00187H18.2588V16.494ZM16.501 6.00187V10.7085H15.9736V6.00187H16.501ZM15.0947 10.7085H14.5674V6.00187H15.0947V10.7085ZM14.5674 11.5874H16.501V14.5895H14.5674V11.5874ZM17.8193 2.84167C18.0617 2.84167 18.2588 3.03878 18.2588 3.28113V5.12296H17.4214V3.8046C17.4214 3.73822 17.4062 3.67552 17.3799 3.6191V3.28113C17.3799 3.03878 17.577 2.84167 17.8193 2.84167ZM14.6594 4.24406H16.501V5.12296H14.6594V4.24406ZM12.8096 5.12296V3.28113C12.8096 3.03878 13.0067 2.84167 13.249 2.84167C13.4914 2.84167 13.6885 3.03878 13.6885 3.28113V5.12296H12.8096ZM14.5674 15.4685H16.501V16.494H14.5674V15.4685ZM11.6377 17.9296C11.6377 17.6227 11.8874 17.3729 12.1943 17.3729H18.874C19.1809 17.3729 19.4307 17.6227 19.4307 17.9296C19.4307 18.2365 19.1809 18.4862 18.874 18.4862H12.1943C11.8874 18.4862 11.6377 18.2365 11.6377 17.9296ZM12.8096 24.3456V19.3651H13.6885V24.3456H12.8096Z" fill="black"/>
</g>
<defs>
<clipPath id="clip0">
<rect width="30" height="30" fill="white" transform="translate(0.53418)"/>
</clipPath>
</defs>
</svg>
