<svg width="31" height="30" viewBox="0 0 31 30" fill="none" xmlns="http://www.w3.org/2000/svg">
<rect x="0.868778" y="1.41175" width="28.6625" height="27.7038" rx="1.13122" stroke="#282828" stroke-width="1.73756"/>
<path d="M18.1815 15.7795V23.6134C18.1815 23.7093 18.1037 23.7871 18.0078 23.7871H13.9916C13.8957 23.7871 13.8179 23.7093 13.8179 23.6134V15.7795C13.8179 15.6836 13.7401 15.6058 13.6441 15.6058H11.3735C11.2775 15.6058 11.1997 15.528 11.1997 15.432V12.3707C11.1997 12.2747 11.2775 12.1969 11.3735 12.1969H13.6441C13.7401 12.1969 13.8179 12.1196 13.8179 12.0236V9.46979C13.8179 7.42445 15.5633 6.74268 16.4361 6.74268H20.6263C20.7223 6.74268 20.7997 6.82047 20.7997 6.91643V9.29603C20.7997 9.39199 20.7219 9.46979 20.626 9.46979H19.0543C18.1815 9.46979 18.1815 10.2879 18.1815 10.8333V12.0233C18.1815 12.1193 18.2593 12.1969 18.3553 12.1969H20.626C20.7219 12.1969 20.7997 12.2747 20.7997 12.3707V15.432C20.7997 15.528 20.7219 15.6058 20.626 15.6058H18.3553C18.2593 15.6058 18.1815 15.6836 18.1815 15.7795Z" stroke="#282828" stroke-width="1.73756"/>
</svg>
