<svg width="17" height="17" viewBox="0 0 17 17" fill="none" xmlns="http://www.w3.org/2000/svg">
<path d="M12.5932 11.2507L13.9507 13.2476C14.1711 13.5719 14.0869 14.0134 13.7627 14.2339C12.0096 15.4256 9.64695 15.1469 8.21928 13.5799L7.49322 12.783C6.14708 11.3056 5.01777 9.64427 4.13916 7.84898L3.66527 6.88067C2.73346 4.97665 3.34349 2.6772 5.09659 1.48548C5.42086 1.26505 5.86241 1.34923 6.08284 1.67349L7.44029 3.67039C7.83763 4.25491 7.68589 5.05087 7.10137 5.44822L6.58599 5.79856C6.43822 5.89901 6.3713 6.08276 6.41987 6.25472C6.98141 8.24285 8.17263 9.99523 9.81474 11.2488C9.95677 11.3572 10.1522 11.3626 10.3 11.2622L10.8154 10.9118C11.3999 10.5145 12.1959 10.6662 12.5932 11.2507Z" stroke="white" stroke-width="1.05108"/>
</svg>
