<svg width="100" height="101" viewBox="0 0 100 101" fill="none" xmlns="http://www.w3.org/2000/svg">
<path d="M95.6488 96.0607C96.6236 96.0607 97.5234 95.9124 98.3482 95.6157C99.173 95.3191 99.7228 95.1213 99.9978 95.0225V97.618C95.5989 99.2742 91.4749 100.09 87.6009 100.09C83.3769 100.09 80.0777 99.1506 77.6533 97.2966C75.229 95.418 73.9043 93.3663 73.6293 91.1168V90.9932C70.6301 93.2427 67.056 95.3685 62.882 97.3214C58.7081 99.2742 54.3842 100.263 49.9103 100.263C45.8613 100.263 42.0122 99.1259 38.3132 96.8764C34.6141 94.6269 32.7896 90.1033 32.7896 83.3302C32.7896 74.6536 35.9638 68.6715 42.2872 65.4086C48.6106 62.1456 55.8588 60.5141 64.0317 60.5141C65.8813 60.5141 68.7306 60.6872 72.6046 61.0332C72.6046 57.8197 72.5046 53.0736 72.3297 46.8196C72.2297 42.3948 72.0297 39.0824 71.6798 36.9071C71.3299 34.7318 70.5051 33.0261 69.2304 31.7654C67.9558 30.5047 65.9063 29.8867 63.107 29.8867C60.0327 29.8867 57.5584 30.6778 55.6588 32.2351C53.7593 33.7924 52.3597 35.6464 51.4349 37.7722C50.5101 39.8981 49.6103 42.5184 48.7356 45.6577C48.0357 48.3522 47.3609 50.3297 46.6861 51.5904C46.0362 52.8511 45.1615 53.4691 44.1117 53.4691C42.6121 53.4691 41.0125 52.2084 39.3129 49.687C37.5884 47.1656 36.1387 44.5454 34.964 41.8015C33.7893 39.0577 33.0645 37.2531 32.7896 36.388C43.062 30.307 53.1595 27.2665 63.082 27.2665C72.3047 27.2665 79.003 29.6148 83.177 34.3115C87.3509 39.0082 89.4254 46.2263 89.4254 55.941V87.2111C89.4504 93.1191 91.5249 96.0607 95.6488 96.0607ZM73.5044 88.5212C73.3294 84.6897 73.0545 76.3593 72.7046 63.5052C69.6303 62.8872 67.7308 62.5411 67.031 62.467C66.5061 62.3928 65.5814 62.3434 64.2567 62.3434C60.1327 62.3434 56.4836 63.4557 53.3094 65.6558C50.1352 67.8805 48.5606 72.0087 48.5606 78.0896C48.5606 83.0335 49.7103 86.8898 51.9848 89.6336C54.2592 92.3775 57.0835 93.737 60.4077 93.737C64.1567 93.737 68.5056 91.982 73.5044 88.5212Z" fill="#422D22"/>
<path d="M49.1877 100.237L48.113 97.271C47.3632 97.3946 46.6133 97.444 45.8885 97.3698H18.5454C16.9708 84.5157 17.8705 22.0992 23.869 0H0.99975C5.27368 67.1627 0 100.237 0 100.237H49.1877Z" fill="#422D22"/>
</svg>
