<svg width="31" height="30" viewBox="0 0 31 30" fill="none" xmlns="http://www.w3.org/2000/svg">
<g clip-path="url(#clip0)">
<path d="M5.36816 22.0896C3.67193 22.0896 2.29199 23.4696 2.29199 25.1658C2.29199 26.8619 3.67193 28.2419 5.36816 28.2419C7.06439 28.2419 8.44434 26.8619 8.44434 25.1658C8.44434 23.4696 7.06439 22.0896 5.36816 22.0896ZM5.36816 27.363C4.15656 27.363 3.1709 26.3774 3.1709 25.1658C3.1709 23.9542 4.15656 22.9685 5.36816 22.9685C6.57977 22.9685 7.56543 23.9542 7.56543 25.1658C7.56543 26.3774 6.57977 27.363 5.36816 27.363Z" fill="black"/>
<path d="M5.36816 23.8474C4.64119 23.8474 4.0498 24.4389 4.0498 25.1658C4.0498 25.8927 4.64119 26.4841 5.36816 26.4841C6.09514 26.4841 6.68652 25.8927 6.68652 25.1658C6.68652 24.4389 6.09514 23.8474 5.36816 23.8474ZM5.36816 25.6052C5.12582 25.6052 4.92871 25.4081 4.92871 25.1658C4.92871 24.9234 5.12582 24.7263 5.36816 24.7263C5.61051 24.7263 5.80762 24.9234 5.80762 25.1658C5.80762 25.4081 5.61051 25.6052 5.36816 25.6052Z" fill="black"/>
<path d="M27.458 1.75781C26.3327 1.75781 25.2979 2.37164 24.7574 3.36006L24.1927 4.39453H11.5205C11.2778 4.39453 11.0811 4.59123 11.0811 4.83398C11.0811 5.07674 11.2778 5.27344 11.5205 5.27344H23.7129L17.2871 17.0453C17.2128 17.1814 17.2158 17.3467 17.2949 17.4801C17.3741 17.6135 17.5177 17.6953 17.6729 17.6953C20.823 17.6953 23.3857 20.2581 23.3857 23.4082C23.3857 26.5583 20.823 29.1211 17.6729 29.1211H8.1424C9.38676 28.2456 10.2021 26.7997 10.2021 25.166V4.83398C10.2021 2.16855 8.03365 0 5.36816 0C2.70268 0 0.53418 2.16855 0.53418 4.83398V25.166C0.53418 27.8314 2.70268 30 5.36816 30H17.6729C20.591 30 23.0723 28.0941 23.9373 25.4616C23.9383 25.4619 30.3818 5.79229 30.3818 5.79229C30.4829 5.48367 30.5342 5.16129 30.5342 4.83398C30.5342 3.13781 29.1542 1.75781 27.458 1.75781ZM1.41309 4.83398C1.41309 2.65312 3.1873 0.878906 5.36816 0.878906C7.54902 0.878906 9.32324 2.65312 9.32324 4.83398V22.3918C8.44779 21.1475 7.00182 20.332 5.36816 20.332C3.73451 20.332 2.28854 21.1475 1.41309 22.3918V4.83398ZM1.41309 25.166C1.41309 22.9852 3.1873 21.2109 5.36816 21.2109C7.54902 21.2109 9.32324 22.9852 9.32324 25.166C9.32324 27.3469 7.54902 29.1211 5.36816 29.1211C3.1873 29.1211 1.41309 27.3469 1.41309 25.166ZM29.5466 5.51871L24.1268 22.0634C23.5517 19.3005 21.2419 17.1659 18.3921 16.8554L25.5286 3.78147C25.9148 3.07535 26.6541 2.63672 27.458 2.63672C28.6696 2.63672 29.6553 3.62238 29.6553 4.83398C29.6553 5.06824 29.6187 5.29863 29.5466 5.51871Z" fill="black"/>
</g>
<defs>
<clipPath id="clip0">
<rect width="30" height="30" fill="white" transform="translate(0.53418)"/>
</clipPath>
</defs>
</svg>
