<svg width="32" height="32" viewBox="0 0 32 32" fill="none" xmlns="http://www.w3.org/2000/svg">
<path d="M1 5C1 3.11438 1 2.17157 1.58579 1.58579C2.17157 1 3.11438 1 5 1H27C28.8856 1 29.8284 1 30.4142 1.58579C31 2.17157 31 3.11438 31 5V27C31 28.8856 31 29.8284 30.4142 30.4142C29.8284 31 28.8856 31 27 31H5C3.11438 31 2.17157 31 1.58579 30.4142C1 29.8284 1 28.8856 1 27V5Z" stroke="#282828" stroke-width="1.73756"/>
<circle cx="23.5" cy="8.5" r="2.5" stroke="#282828" stroke-width="1.73756" stroke-linecap="round"/>
<circle cx="16" cy="16" r="6.13122" stroke="#282828" stroke-width="1.73756"/>
</svg>
