<svg width="25" height="36" viewBox="0 0 25 36" fill="none" xmlns="http://www.w3.org/2000/svg">
<path d="M23.6921 0H0.637363C0.285355 0 0 0.280877 0 0.627361V34.6662C0 35.0128 0.285214 35.2935 0.637223 35.2935H23.6919C24.044 35.2935 24.3292 35.0126 24.3292 34.6662V0.627361C24.3293 0.280877 24.044 0 23.6921 0ZM1.27459 1.52714L11.5274 5.24678V30.0466L1.27459 33.7663V1.52714ZM23.0547 34.0389H4.20916L12.3851 31.0727C12.6357 30.9819 12.8019 30.7468 12.8019 30.4842V4.80944C12.8019 4.54674 12.6355 4.31177 12.3851 4.22078L4.20931 1.25458H23.0547V34.0389Z" fill="#422D22"/>
<path d="M9.45814 15.4727C8.54966 15.4727 7.83789 16.428 7.83789 17.6478C7.83789 18.8674 8.54966 19.8229 9.45814 19.8229C10.3668 19.8229 11.0784 18.8676 11.0784 17.6478C11.0784 16.428 10.3668 15.4727 9.45814 15.4727ZM9.458 18.568C9.375 18.5477 9.11248 18.2298 9.11248 17.6478C9.11248 17.0658 9.375 16.748 9.458 16.7275C9.54114 16.7482 9.80381 17.0665 9.80381 17.6478C9.80381 18.229 9.54114 18.5473 9.458 18.568Z" fill="#422D22"/>
</svg>
