<svg width="31" height="32" viewBox="0 0 31 32" fill="none" xmlns="http://www.w3.org/2000/svg">
<rect x="0.868778" y="1.66175" width="28.6625" height="28.6119" rx="1.13122" stroke="#282828" stroke-width="1.73756"/>
<path d="M18.1815 16.4941V24.5806C18.1815 24.6765 18.1037 24.7543 18.0078 24.7543H13.9917C13.8957 24.7543 13.8179 24.6765 13.8179 24.5806V16.4941C13.8179 16.3982 13.7401 16.3204 13.6441 16.3204H11.3735C11.2775 16.3204 11.1997 16.2426 11.1997 16.1466V12.98C11.1997 12.884 11.2775 12.8062 11.3735 12.8062H13.6441C13.7401 12.8062 13.8179 12.7289 13.8179 12.6329V9.99491C13.8179 7.88642 15.5634 7.18359 16.4361 7.18359H20.6263C20.7223 7.18359 20.7997 7.26139 20.7997 7.35735V9.82115C20.7997 9.91711 20.7219 9.99491 20.626 9.99491H19.0543C18.1815 9.99491 18.1815 10.8383 18.1815 11.4006V12.6326C18.1815 12.7285 18.2593 12.8062 18.3553 12.8062H20.626C20.7219 12.8062 20.7997 12.884 20.7997 12.98V16.1466C20.7997 16.2426 20.7219 16.3204 20.626 16.3204H18.3553C18.2593 16.3204 18.1815 16.3982 18.1815 16.4941Z" stroke="#282828" stroke-width="1.73756"/>
</svg>
