<svg width="22" height="18" viewBox="0 0 22 18" fill="none" xmlns="http://www.w3.org/2000/svg">
<path d="M19.4958 0.953125H1.87861C0.844037 0.953125 0 1.79624 0 2.83173V15.3558C0 16.3877 0.84028 17.2344 1.87861 17.2344H19.4958C20.5277 17.2344 21.3744 16.3941 21.3744 15.3558V2.83173C21.3744 1.79975 20.5341 0.953125 19.4958 0.953125ZM19.2363 2.20553L10.727 10.7149L2.14407 2.20553H19.2363ZM1.2524 15.0964V3.08509L7.28394 9.0649L1.2524 15.0964ZM2.13798 15.982L8.17331 9.94664L10.2881 12.0432C10.5329 12.286 10.9279 12.2852 11.1717 12.0413L13.2337 9.97933L19.2364 15.982H2.13798ZM20.122 15.0964L14.1193 9.09375L20.122 3.09106V15.0964Z" fill="#282828"/>
</svg>
