<svg width="40" height="39" viewBox="0 0 40 39" fill="none" xmlns="http://www.w3.org/2000/svg">
<path d="M5.00001 8.79175C5.00001 6.90613 5.00001 5.96332 5.58579 5.37753C6.17158 4.79175 7.11439 4.79175 9.00001 4.79175H31C32.8857 4.79175 33.8285 4.79175 34.4143 5.37753C35 5.96332 35 6.90613 35 8.79175V29.5438C35 31.4294 35 32.3722 34.4143 32.958C33.8285 33.5438 32.8857 33.5438 31 33.5438H9C7.11439 33.5438 6.17158 33.5438 5.58579 32.958C5.00001 32.3722 5.00001 31.4294 5.00001 29.5438V8.79175Z" stroke="#282828" stroke-width="1.73756"/>
<ellipse cx="27.5" cy="11.9802" rx="2.5" ry="2.39601" stroke="#282828" stroke-width="1.73756" stroke-linecap="round"/>
<path d="M25.7979 19.1682C25.7979 22.1827 23.2373 24.6887 20 24.6887C16.7628 24.6887 14.2021 22.1827 14.2021 19.1682C14.2021 16.1537 16.7628 13.6476 20 13.6476C23.2373 13.6476 25.7979 16.1537 25.7979 19.1682Z" stroke="#282828" stroke-width="1.73756"/>
</svg>
