<svg width="31" height="30" viewBox="0 0 31 30" fill="none" xmlns="http://www.w3.org/2000/svg">
<g clip-path="url(#clip0)">
<path d="M29.8604 3.13242H25.6428V0.908203C25.6428 0.407402 25.2354 0 24.7346 0H6.33373C5.83293 0 5.42553 0.407402 5.42553 0.908203L5.42559 3.13242H1.20801C0.836465 3.13242 0.53418 3.43471 0.53418 3.80625V4.80352C0.53418 5.17506 0.836465 5.47734 1.20801 5.47734H1.3252V29.0918C1.3252 29.5926 1.7326 30 2.2334 30H5.39746C5.89826 30 6.30566 29.5926 6.30566 29.0918V9.56133H7.90938C8.21688 9.56133 8.51184 9.48188 8.77158 9.33346V15.5491H8.39313C8.04561 15.5491 7.7507 15.8204 7.72164 16.1668L7.48662 18.9743C7.47092 19.1616 7.5349 19.3484 7.66217 19.4867C7.78943 19.625 7.97014 19.7044 8.15811 19.7044H10.476C10.6639 19.7044 10.8446 19.625 10.9718 19.4868C11.099 19.3484 11.1631 19.1617 11.1474 18.9744L10.9124 16.1667C10.8834 15.8204 10.5885 15.5492 10.2409 15.5492H9.65055V7.83229C9.65055 7.82836 9.65084 7.82449 9.65084 7.82051C9.65084 6.86063 8.86967 6.07969 7.90943 6.07969H6.30566V5.03789C6.30566 5.02758 6.30531 5.01732 6.30461 5.00719L6.30449 2.87402H20.4619C20.7046 2.87402 20.9014 2.67727 20.9014 2.43457C20.9014 2.19187 20.7046 1.99512 20.4619 1.99512H6.30443V0.908203C6.30443 0.892031 6.31756 0.878906 6.33373 0.878906H24.7347C24.7509 0.878906 24.764 0.892031 24.764 0.908203V1.99512H22.5127C22.27 1.99512 22.0732 2.19187 22.0732 2.43457C22.0732 2.67727 22.27 2.87402 22.5127 2.87402H24.7639V6.07969H23.159C22.1987 6.07969 21.4176 6.86063 21.4176 7.82051C21.4176 7.82443 21.4178 7.82836 21.4179 7.83229V15.5492H20.8275C20.48 15.5492 20.1851 15.8204 20.156 16.1668L19.9209 18.9745C19.9053 19.1617 19.9693 19.3485 20.0965 19.4868C20.2237 19.6251 20.4045 19.7044 20.5924 19.7044H22.9103C23.0982 19.7044 23.2789 19.6251 23.4062 19.4868C23.5335 19.3484 23.5974 19.1617 23.5817 18.9744L23.3467 16.1668C23.3177 15.8205 23.0228 15.5493 22.6752 15.5493H22.2968V9.33346C22.5565 9.48188 22.8515 9.56133 23.159 9.56133H24.7639L24.7639 29.0918C24.7639 29.5926 25.1713 30 25.6721 30H28.8361C29.3369 30 29.7443 29.5926 29.7443 29.0918V5.47734H29.8604C30.2319 5.47734 30.5342 5.17506 30.5342 4.80352V3.80625C30.5342 3.43471 30.2319 3.13242 29.8604 3.13242ZM10.2529 18.8254H8.38105L8.58168 16.428H10.0523L10.2529 18.8254ZM5.42676 15.6791V16.8164H2.2041V15.6791H5.42676ZM2.2041 20.918V19.7461H5.42676V20.918H2.2041ZM5.42676 21.7969V22.9688H2.2041V21.7969H5.42676ZM2.2041 18.8672V17.6953H5.42676V18.8672H2.2041ZM2.2041 23.8477H5.42676V25.0195H2.2041V23.8477ZM2.2041 25.8984H5.42676V27.0703H2.2041V25.8984ZM5.42676 14.8002H4.20191V5.47734H5.42676V14.8002ZM1.41309 4.01133H5.42564V4.59844H3.81566C3.81514 4.59844 3.81467 4.59838 3.81414 4.59838C3.81361 4.59838 3.81314 4.59844 3.81262 4.59844H1.41309V4.01133ZM3.42643 5.47734V14.8002H2.2041V5.47734H3.42643ZM5.39746 29.1211H2.2334C2.21723 29.1211 2.2041 29.108 2.2041 29.0918V27.9492H5.42676V29.0918C5.42676 29.108 5.41363 29.1211 5.39746 29.1211ZM7.90938 6.95859C8.38398 6.95859 8.77012 7.34373 8.7717 7.81764C8.7717 7.81857 8.77158 7.81945 8.77158 7.82039V7.82637C8.77006 8.05441 8.6807 8.26869 8.51916 8.43029C8.35656 8.59289 8.14 8.68242 7.90938 8.68242H6.30566V6.95859H7.90938ZM22.6873 18.8254H20.8154L21.0161 16.428H22.4867L22.6873 18.8254ZM29.6553 4.01133V4.59844H25.6428V4.01133H29.6553ZM25.6428 20.918V19.7461H28.8654V20.918H25.6428ZM28.8654 21.7969V22.9688H25.6428V21.7969H28.8654ZM25.6428 23.8477H28.8654V25.0195H25.6428V23.8477ZM28.8654 18.8672H25.6428V17.7299H28.8654V18.8672ZM25.6428 25.8984H28.8654V27.0703H25.6428V25.8984ZM28.8654 16.851H25.6428V15.6791H28.8654V16.851ZM25.6428 14.8002V5.47734H26.8147V14.8002H25.6428ZM23.159 8.68242C22.9284 8.68242 22.7118 8.59289 22.5492 8.43029C22.3877 8.26875 22.2983 8.05441 22.2968 7.82637V7.82039C22.2968 7.81945 22.2967 7.81857 22.2967 7.81764C22.2982 7.34367 22.6844 6.95859 23.159 6.95859H24.7639V8.68242H23.159ZM28.8361 29.1211H25.6721C25.6559 29.1211 25.6428 29.108 25.6428 29.0918V27.9492H28.8654V29.0918C28.8654 29.108 28.8523 29.1211 28.8361 29.1211ZM28.8654 14.8002H27.6936V5.47734H28.8654V14.8002Z" fill="black"/>
</g>
<defs>
<clipPath id="clip0">
<rect width="30" height="30" fill="white" transform="translate(0.53418)"/>
</clipPath>
</defs>
</svg>
