<svg width="31" height="30" viewBox="0 0 31 30" fill="none" xmlns="http://www.w3.org/2000/svg">
<path d="M27.1471 5.11391H26.3729V3.56552C26.3729 3.46286 26.3321 3.3644 26.2595 3.29181C26.1869 3.21921 26.0885 3.17843 25.9858 3.17843H23.6632C23.5605 3.17843 23.4621 3.21921 23.3895 3.29181C23.3169 3.3644 23.2761 3.46286 23.2761 3.56552V5.11391H21.3406V2.79133H21.7277C21.8304 2.79133 21.9289 2.75055 22.0014 2.67795C22.074 2.60536 22.1148 2.5069 22.1148 2.40423V1.43649C22.1146 1.17991 22.0125 0.933909 21.8311 0.752478C21.6497 0.571047 21.4037 0.469006 21.1471 0.46875H9.92128C9.66469 0.469006 9.41869 0.571047 9.23726 0.752478C9.05583 0.933909 8.95379 1.17991 8.95353 1.43649V2.40423C8.95353 2.5069 8.99432 2.60536 9.06691 2.67795C9.13951 2.75055 9.23797 2.79133 9.34063 2.79133H9.72773V5.11391H7.79224V3.56552C7.79224 3.46286 7.75146 3.3644 7.67887 3.29181C7.60627 3.21921 7.50781 3.17843 7.40515 3.17843H5.08257C4.9799 3.17843 4.88144 3.21921 4.80885 3.29181C4.73625 3.3644 4.69547 3.46286 4.69547 3.56552V5.11391H3.92128C3.81861 5.11391 3.72015 5.15469 3.64756 5.22729C3.57496 5.29988 3.53418 5.39834 3.53418 5.50101V7.04939C3.53418 7.15206 3.57496 7.25052 3.64756 7.32311C3.72015 7.39571 3.81861 7.43649 3.92128 7.43649H4.69547V8.98488C4.69547 9.08754 4.73625 9.186 4.80885 9.2586C4.88144 9.33119 4.9799 9.37197 5.08257 9.37197H7.40515C7.50781 9.37197 7.60627 9.33119 7.67887 9.2586C7.75146 9.186 7.79224 9.08754 7.79224 8.98488V7.43649H9.72773V16.7268H8.52918C8.01109 16.7263 7.50774 16.8992 7.09941 17.2181C6.69108 17.537 6.4013 17.9834 6.27628 18.4862L6.25547 18.5684C6.24121 18.6255 6.24013 18.6851 6.25234 18.7426C6.26454 18.8001 6.28969 18.8541 6.32589 18.9005C6.36208 18.9469 6.40837 18.9844 6.46123 19.0102C6.51409 19.036 6.57213 19.0494 6.63095 19.0494H9.72773V22.1462H6.2066C5.68851 22.1456 5.18516 22.3186 4.77683 22.6374C4.3685 22.9563 4.07872 23.4027 3.9537 23.9055L3.93289 23.9878C3.91863 24.0448 3.91755 24.1044 3.92976 24.1619C3.94196 24.2195 3.96711 24.2735 4.00331 24.3199C4.0395 24.3662 4.08579 24.4037 4.13865 24.4295C4.19151 24.4553 4.24955 24.4687 4.30837 24.4687H26.76C26.8188 24.4687 26.8769 24.4553 26.9297 24.4295C26.9826 24.4037 27.0289 24.3662 27.0651 24.3199C27.1012 24.2735 27.1264 24.2195 27.1386 24.1619C27.1508 24.1044 27.1497 24.0448 27.1355 23.9878L27.1147 23.9055C26.9896 23.4027 26.6999 22.9563 26.2915 22.6374C25.8832 22.3186 25.3798 22.1456 24.8618 22.1462H21.3406V19.0494H24.4374C24.4972 19.0494 24.5562 19.0355 24.6097 19.0089C24.6633 18.9823 24.7099 18.9436 24.746 18.896C24.7821 18.8483 24.8067 18.7929 24.8178 18.7341C24.8289 18.6754 24.8262 18.6149 24.81 18.5573L24.7718 18.4204C24.6334 17.9336 24.3404 17.5051 23.937 17.1996C23.5337 16.8941 23.0418 16.7281 22.5358 16.7268H21.3406V7.43649H23.2761V8.98488C23.2761 9.08754 23.3169 9.186 23.3895 9.2586C23.4621 9.33119 23.5605 9.37197 23.6632 9.37197H25.9858C26.0885 9.37197 26.1869 9.33119 26.2595 9.2586C26.3321 9.186 26.3729 9.08754 26.3729 8.98488V7.43649H27.1471C27.2497 7.43649 27.3482 7.39571 27.4208 7.32311C27.4934 7.25052 27.5342 7.15206 27.5342 7.04939V5.50101C27.5342 5.39834 27.4934 5.29988 27.4208 5.22729C27.3482 5.15469 27.2497 5.11391 27.1471 5.11391ZM4.69547 6.6623H4.30837V5.8881H4.69547V6.6623ZM7.01805 8.59778H5.46966V3.95262H7.01805V8.59778ZM9.72773 1.43649C9.72773 1.38516 9.74812 1.33593 9.78442 1.29963C9.82071 1.26334 9.86994 1.24294 9.92128 1.24294H21.1471C21.1984 1.24294 21.2476 1.26334 21.2839 1.29963C21.3202 1.33593 21.3406 1.38516 21.3406 1.43649V2.01714H9.72773V1.43649ZM20.5664 2.79133V5.11391H20.1793V2.79133H20.5664ZM19.4051 2.79133V5.11391H11.6632V2.79133H19.4051ZM10.889 2.79133V5.11391H10.5019V2.79133H10.889ZM24.8618 22.9204C25.1337 22.9201 25.4008 22.9915 25.6363 23.1275C25.8718 23.2634 26.0673 23.459 26.2031 23.6946H4.86531C5.00109 23.459 5.19657 23.2634 5.43206 23.1275C5.66754 22.9915 5.9347 22.9201 6.2066 22.9204H24.8618ZM10.5019 22.1462V19.0494H10.889V22.1462H10.5019ZM11.6632 22.1462V19.0494H19.4051V22.1462H11.6632ZM20.1793 22.1462V19.0494H20.5664V22.1462H20.1793ZM22.5358 17.501C22.8074 17.5018 23.074 17.5737 23.3091 17.7095C23.5443 17.8453 23.7397 18.0404 23.8761 18.2752H7.18789C7.32367 18.0396 7.51915 17.844 7.75464 17.7081C7.99012 17.5722 8.25728 17.5007 8.52918 17.501H22.5358ZM10.5019 16.7268V7.43649H10.889V16.7268H10.5019ZM11.6632 16.7268V7.43649H19.4051V16.7268H11.6632ZM20.1793 16.7268V7.43649H20.5664V16.7268H20.1793ZM23.2761 6.6623H7.79224V5.8881H23.2761V6.6623ZM25.5987 8.59778H24.0503V3.95262H25.5987V8.59778ZM26.76 6.6623H26.3729V5.8881H26.76V6.6623Z" fill="black"/>
</svg>
