<svg width="31" height="30" viewBox="0 0 31 30" fill="none" xmlns="http://www.w3.org/2000/svg">
<path d="M28.8888 25.4989L27.8988 22.7271C28.4966 21.9781 28.8932 21.0889 29.0509 20.1437C29.2086 19.1986 29.1222 18.2288 28.7999 17.3263C28.4776 16.4239 27.9301 15.6188 27.2093 14.9874C26.4885 14.3559 25.6184 13.9191 24.6814 13.7184L22.2931 7.03125H23.0342C24.1527 7.02999 25.225 6.58512 26.0159 5.79422C26.8068 5.00332 27.2517 3.931 27.2529 2.8125V2.34375C27.2529 1.97079 27.1048 1.6131 26.841 1.34938C26.5773 1.08566 26.2196 0.9375 25.8467 0.9375C25.4737 0.9375 25.116 1.08566 24.8523 1.34938C24.5886 1.6131 24.4404 1.97079 24.4404 2.34375V2.8125C24.44 3.18533 24.2917 3.54277 24.0281 3.80641C23.7645 4.07004 23.407 4.21833 23.0342 4.21875H19.7529C19.4101 4.21872 19.0791 4.34392 18.8221 4.5708C18.5651 4.79769 18.3999 5.11064 18.3574 5.45081C18.3149 5.79098 18.3982 6.13495 18.5915 6.41805C18.7848 6.70115 19.0749 6.90388 19.4072 6.98812L20.2966 9.47836L12.8577 16.2086L8.88227 15.9601L8.53188 15.9384C8.52227 15.9378 8.5126 15.9375 8.50293 15.9375C8.46707 15.9375 8.43156 15.9391 8.39594 15.9402L6.37721 10.7812H7.56543C7.93826 10.7808 8.2957 10.6325 8.55934 10.3689C8.82297 10.1053 8.97126 9.74783 8.97168 9.375V9.25061C8.97025 8.9125 8.84764 8.5861 8.62611 8.33067C8.40458 8.07524 8.09881 7.90771 7.7643 7.85848L3.0768 7.18881C2.87734 7.16032 2.6741 7.17501 2.48082 7.23191C2.28755 7.2888 2.10875 7.38657 1.95655 7.51858C1.80434 7.65058 1.68228 7.81376 1.59862 7.99705C1.51497 8.18034 1.47168 8.37946 1.47168 8.58094V9.375C1.4721 9.74783 1.62039 10.1053 1.88402 10.3689C2.14766 10.6325 2.5051 10.7808 2.87793 10.7812H3.49551L5.97818 17.1255C5.69065 17.4715 5.47745 17.8729 5.35188 18.3049C5.2263 18.7368 5.19105 19.19 5.24832 19.6362C5.30558 20.0824 5.45414 20.512 5.68472 20.8982C5.91531 21.2844 6.22298 21.619 6.58855 21.8811L2.79268 25.3153C2.43531 25.3374 2.09979 25.4948 1.85438 25.7556C1.60898 26.0163 1.47213 26.3607 1.47168 26.7188V27.6562C1.4721 28.0291 1.62039 28.3865 1.88402 28.6502C2.14766 28.9138 2.5051 29.0621 2.87793 29.0625H3.81543C4.18826 29.0621 4.5457 28.9138 4.80934 28.6502C5.07297 28.3865 5.22126 28.0291 5.22168 27.6562H25.8467C25.8471 28.0291 25.9954 28.3865 26.259 28.6502C26.5227 28.9138 26.8801 29.0621 27.2529 29.0625H28.1904C28.5633 29.0621 28.9207 28.9138 29.1843 28.6502C29.448 28.3865 29.5963 28.0291 29.5967 27.6562V26.7188C29.5965 26.4711 29.5309 26.2279 29.4066 26.0137C29.2823 25.7995 29.1037 25.622 28.8888 25.4989ZM27.0596 16.1654C27.7028 16.9147 28.093 17.8481 28.1744 18.8323C28.2557 19.8166 28.0242 20.8013 27.5127 21.6462L25.0674 14.7994C25.8391 15.0734 26.5259 15.5443 27.0596 16.1654ZM27.8266 25.3125H27.2529C27.1539 25.3125 27.0552 25.323 26.9584 25.3438L20.4181 7.03125H21.2976L27.8266 25.3125ZM25.3193 23.5409C24.3127 23.9634 23.1903 24.0214 22.1455 23.705C21.1007 23.3885 20.1991 22.7175 19.596 21.8076L23.5184 21.5625C23.8685 21.5604 24.2136 21.4797 24.5283 21.3264L25.3193 23.5409ZM21.8543 13.8398C20.4357 14.2776 19.2463 15.2562 18.5433 16.5639L16.6267 16.4441L21.2628 12.1836L21.8543 13.8398ZM22.1699 14.7235L22.925 16.8379L19.5954 16.6297C20.2044 15.713 21.1154 15.0386 22.1699 14.7236V14.7235ZM19.7529 5.15625H23.0342C23.6556 5.15555 24.2513 4.9084 24.6907 4.46901C25.1301 4.02962 25.3772 3.43389 25.3779 2.8125V2.34375C25.3779 2.21943 25.4273 2.1002 25.5152 2.01229C25.6031 1.92439 25.7224 1.875 25.8467 1.875C25.971 1.875 26.0902 1.92439 26.1781 2.01229C26.266 2.1002 26.3154 2.21943 26.3154 2.34375V2.8125C26.3145 3.68244 25.9684 4.51647 25.3533 5.13161C24.7382 5.74676 23.9041 6.09277 23.0342 6.09375H19.7529C19.6286 6.09375 19.5094 6.04436 19.4215 5.95646C19.3336 5.86855 19.2842 5.74932 19.2842 5.625C19.2842 5.50068 19.3336 5.38145 19.4215 5.29354C19.5094 5.20564 19.6286 5.15625 19.7529 5.15625ZM20.6377 10.4339L20.9203 11.2249L15.3293 16.3629L14.1647 16.2901L20.6377 10.4339ZM2.40918 9.375V8.58094C2.40918 8.457 2.45826 8.33811 2.54569 8.25027C2.63311 8.16242 2.75177 8.11278 2.8757 8.11219C2.89862 8.11221 2.92151 8.11384 2.9442 8.11705L7.6317 8.78672C7.74321 8.80313 7.84513 8.85898 7.91898 8.94413C7.99283 9.02927 8.0337 9.13807 8.03418 9.25078V9.375C8.03404 9.49928 7.98461 9.61842 7.89673 9.7063C7.80885 9.79418 7.68971 9.84361 7.56543 9.84375H2.87793C2.75365 9.84361 2.6345 9.79418 2.54663 9.7063C2.45875 9.61842 2.40932 9.49928 2.40918 9.375ZM5.37051 10.7812L7.45568 16.1099C7.19859 16.1967 6.95332 16.3153 6.72555 16.4628L4.50221 10.7812H5.37051ZM6.15918 19.2188C6.15986 18.5997 6.40511 18.0061 6.84152 17.5671C7.27792 17.1281 7.87012 16.8793 8.4891 16.875L23.2682 17.7987L24.2092 20.4336C23.9949 20.5588 23.7511 20.6249 23.5029 20.625C23.4932 20.625 23.4834 20.625 23.4736 20.6259L10.247 21.4528L9.54654 20.1602C9.76789 19.9141 9.89514 19.5977 9.90584 19.267C9.91653 18.9362 9.80996 18.6122 9.60497 18.3524C9.39998 18.0926 9.10975 17.9135 8.78556 17.8469C8.46136 17.7804 8.12406 17.8305 7.83324 17.9885C7.54243 18.1465 7.31681 18.4022 7.19624 18.7104C7.07567 19.0186 7.06792 19.3595 7.17435 19.6729C7.28078 19.9863 7.49454 20.252 7.77788 20.423C8.06121 20.5941 8.39589 20.6595 8.72277 20.6077L9.21561 21.5173L8.82437 21.5417L8.4891 21.5625C7.87012 21.5582 7.27792 21.3094 6.84152 20.8704C6.40511 20.4314 6.15986 19.8378 6.15918 19.2188ZM8.50293 19.6875C8.41022 19.6875 8.31959 19.66 8.24251 19.6085C8.16542 19.557 8.10534 19.4838 8.06986 19.3981C8.03438 19.3125 8.0251 19.2182 8.04319 19.1273C8.06127 19.0364 8.10592 18.9528 8.17147 18.8873C8.23703 18.8217 8.32055 18.7771 8.41148 18.759C8.50241 18.7409 8.59666 18.7502 8.68231 18.7857C8.76797 18.8212 8.84117 18.8812 8.89268 18.9583C8.94419 19.0354 8.97168 19.126 8.97168 19.2188C8.97154 19.343 8.92211 19.4622 8.83423 19.5501C8.74635 19.6379 8.62721 19.6874 8.50293 19.6875ZM8.50293 22.5C8.5126 22.5 8.52227 22.5 8.53188 22.4991L8.66078 22.4911L4.95508 25.8963C4.75929 25.6252 4.47348 25.4325 4.14871 25.3528L7.4827 22.3367C7.81196 22.4449 8.15634 22.5 8.50293 22.5ZM4.28418 27.6562C4.28404 27.7805 4.23461 27.8997 4.14673 27.9876C4.05885 28.0754 3.93971 28.1249 3.81543 28.125H2.87793C2.75365 28.1249 2.6345 28.0754 2.54663 27.9876C2.45875 27.8997 2.40932 27.7805 2.40918 27.6562V26.7188C2.40932 26.5945 2.45875 26.4753 2.54663 26.3874C2.6345 26.2996 2.75365 26.2501 2.87793 26.25H3.81543C3.93971 26.2501 4.05885 26.2996 4.14673 26.3874C4.23461 26.4753 4.28404 26.5945 4.28418 26.7188V27.6562ZM5.44568 26.7188L9.84396 22.6769L10.3244 23.5633L9.91252 23.7866C9.85781 23.8156 9.80938 23.8552 9.77004 23.903C9.7307 23.9508 9.70122 24.0059 9.68331 24.0652C9.66541 24.1245 9.65942 24.1867 9.66571 24.2483C9.67199 24.31 9.69042 24.3697 9.71993 24.4241C9.74944 24.4786 9.78944 24.5266 9.83763 24.5655C9.88581 24.6044 9.94123 24.6334 10.0007 24.6507C10.0601 24.6681 10.1224 24.6735 10.184 24.6666C10.2455 24.6598 10.3051 24.6408 10.3592 24.6108L12.0077 23.7173C12.0624 23.6883 12.1108 23.6487 12.1501 23.6009C12.1895 23.5531 12.219 23.4979 12.2369 23.4387C12.2548 23.3794 12.2608 23.3171 12.2545 23.2555C12.2482 23.1939 12.2298 23.1342 12.2002 23.0797C12.1707 23.0253 12.1307 22.9772 12.0825 22.9384C12.0344 22.8995 11.9789 22.8705 11.9195 22.8531C11.8601 22.8358 11.7978 22.8304 11.7362 22.8372C11.6747 22.8441 11.6151 22.8631 11.5609 22.8931L11.1486 23.1166L10.7393 22.3611L18.5443 21.8733C19.2013 23.1003 20.2897 24.0402 21.5993 24.5114C22.9089 24.9827 24.3467 24.9518 25.6348 24.4247L26.1453 25.8541C25.9516 26.1007 25.8465 26.4052 25.8467 26.7188H5.44568ZM28.6592 27.6562C28.659 27.7805 28.6096 27.8997 28.5217 27.9876C28.4339 28.0754 28.3147 28.1249 28.1904 28.125H27.2529C27.1287 28.1249 27.0095 28.0754 26.9216 27.9876C26.8337 27.8997 26.7843 27.7805 26.7842 27.6562V26.7188C26.7843 26.5945 26.8337 26.4753 26.9216 26.3874C27.0095 26.2996 27.1287 26.2501 27.2529 26.25H28.1904C28.3147 26.2501 28.4339 26.2996 28.5217 26.3874C28.6096 26.4753 28.659 26.5945 28.6592 26.7188V27.6562Z" fill="black"/>
</svg>
