<svg width="170" height="35" viewBox="0 0 170 35" fill="none" xmlns="http://www.w3.org/2000/svg">
<path d="M51.781 32.853C52.1383 32.853 52.4763 32.7951 52.7854 32.6792C53.0944 32.5633 53.2972 32.4957 53.4034 32.4571V33.4421C51.7617 34.0601 50.2263 34.3788 48.7874 34.3788C47.2133 34.3788 45.9772 34.0311 45.0791 33.3262C44.1811 32.6212 43.6789 31.8487 43.5823 30.9892V30.9409C42.4718 31.7907 41.1295 32.5826 39.5747 33.3262C38.02 34.0601 36.4073 34.4271 34.7366 34.4271C33.2301 34.4271 31.7913 34.0022 30.4103 33.1524C29.039 32.3026 28.3438 30.5933 28.3438 28.0439C28.3438 24.7702 29.5219 22.5201 31.8782 21.284C34.2345 20.0576 36.9384 19.4396 39.9803 19.4396C40.6659 19.4396 41.7282 19.5072 43.1767 19.6327C43.1767 18.4256 43.1478 16.6391 43.0802 14.2731C43.0512 12.6025 42.9643 11.3568 42.8388 10.5359C42.7036 9.71508 42.4042 9.06807 41.931 8.59488C41.4578 8.12169 40.6949 7.88027 39.6423 7.88027C38.4931 7.88027 37.5661 8.17963 36.8708 8.7687C36.1658 9.35777 35.6444 10.0531 35.2967 10.8546C34.9491 11.6561 34.6207 12.6508 34.2924 13.8289C34.0317 14.8429 33.7806 15.5865 33.5295 16.0597C33.2881 16.5328 32.9597 16.7743 32.5735 16.7743C32.0134 16.7743 31.4146 16.3011 30.7773 15.345C30.1399 14.3987 29.5991 13.404 29.1549 12.3707C28.7107 11.3374 28.4403 10.6615 28.3438 10.3331C32.1775 8.04443 35.9437 6.89526 39.6423 6.89526C43.0802 6.89526 45.5813 7.7837 47.1361 9.55091C48.6908 11.3181 49.473 14.0414 49.473 17.711V29.5021C49.473 31.7425 50.2359 32.853 51.781 32.853ZM43.5244 30.0042C43.4568 28.5653 43.3602 25.4172 43.225 20.5694C42.0759 20.3377 41.3709 20.2121 41.1102 20.1735C40.917 20.1445 40.5694 20.1252 40.0769 20.1252C38.5414 20.1252 37.1798 20.5405 36.0017 21.3806C34.8235 22.2208 34.2345 23.7852 34.2345 26.0739C34.2345 27.9376 34.6594 29.3862 35.5092 30.4195C36.359 31.4528 37.4116 31.9646 38.6573 31.9646C40.0382 31.9742 41.6606 31.3176 43.5244 30.0042Z" fill="#422D22"/>
<path d="M83.9578 0.0390625L74.1367 26.0741L71.1914 34.4273H70.2064C66.2181 22.7424 61.6697 11.2314 56.4453 0.0390625H63.8135C65.0206 5.29241 71.8094 22.5879 72.9779 24.9345L82.4803 0.0390625H83.9578V0.0390625Z" fill="#422D22"/>
<path d="M94.4349 9.37728C94.3673 9.57042 94.2611 10.1015 94.1162 10.9514C93.9714 11.8012 93.8169 13.1435 93.672 14.9783C93.5272 16.8131 93.4499 19.0438 93.4499 21.6609C93.4499 24.2779 93.5272 26.5376 93.672 28.4207C93.8169 30.3038 93.9714 31.7233 94.1162 32.6697C94.2611 33.6161 94.3673 34.2052 94.4349 34.4369H86.5742C86.6418 34.1762 86.748 33.5292 86.8929 32.4959C87.0378 31.4626 87.1923 29.9658 87.3371 27.9958C87.482 26.0258 87.5592 23.7564 87.5592 21.1684C87.5592 18.5803 87.482 16.4075 87.3371 14.6596C87.1923 12.9117 87.0281 11.5501 86.8446 10.5844C86.6611 9.6187 86.5742 9.21311 86.5742 9.37728H94.4349V9.37728ZM88.0421 5.92977C87.3854 5.2731 87.0571 4.45226 87.0571 3.47692C87.0571 2.50157 87.3854 1.68073 88.0421 1.02407C88.6987 0.367397 89.5196 0.0390625 90.4949 0.0390625C91.4703 0.0390625 92.2911 0.367397 92.9478 1.02407C93.6044 1.68073 93.9328 2.50157 93.9328 3.47692C93.9328 4.45226 93.6044 5.28276 92.9478 5.92977C92.2911 6.58644 91.4703 6.91477 90.4949 6.91477C89.5196 6.91477 88.6987 6.58644 88.0421 5.92977Z" fill="#422D22"/>
<path d="M114.744 7.67758C116.202 8.1894 117.39 8.73984 118.307 9.34822C119.225 9.95661 119.679 10.2946 119.679 10.3525C119.543 10.6809 119.263 11.3569 118.819 12.3901C118.375 13.4234 117.853 14.4084 117.245 15.3645C116.637 16.3108 116.077 16.7937 115.545 16.7937C115.188 16.7937 114.898 16.5716 114.686 16.1274C114.473 15.6831 114.222 14.9589 113.923 13.9449C113.595 12.7668 113.247 11.7624 112.87 10.9223C112.494 10.0821 111.943 9.37719 111.229 8.78812C110.504 8.19905 109.558 7.89969 108.38 7.89969C107.134 7.89969 106.169 8.24734 105.483 8.93298C104.797 9.61862 104.45 10.5843 104.45 11.83C104.45 13.0758 104.778 14.0994 105.435 14.9009C106.091 15.7025 106.902 16.3302 107.868 16.7937C108.834 17.2572 110.138 17.7594 111.77 18.3195C113.469 18.8796 114.86 19.4107 115.922 19.9129C116.984 20.4247 117.882 21.1296 118.597 22.047C119.321 22.9644 119.679 24.1426 119.679 25.5815C119.679 27.1555 119.263 28.6234 118.423 29.9754C117.593 31.337 116.453 32.4186 115.034 33.2201C113.604 34.0216 112.04 34.4272 110.34 34.4272C108.863 34.4272 107.221 34.1761 105.406 33.6643C103.59 33.1525 101.91 32.5924 100.374 31.9647C98.839 31.3466 98.0664 31.0183 98.0664 30.9797C98.0664 30.8831 98.2982 30.2168 98.752 28.9904C99.2059 27.7639 99.7274 26.6727 100.297 25.7263C100.867 24.7799 101.437 24.4033 101.997 24.5965C102.296 24.693 102.595 24.9441 102.905 25.3304C103.214 25.7263 103.648 26.3637 104.208 27.2425C105.454 29.1449 106.651 30.6513 107.791 31.7619C108.94 32.8724 110.282 33.4325 111.818 33.4325C112.967 33.4325 113.904 33.0269 114.647 32.2061C115.381 31.3853 115.748 30.4872 115.748 29.5022C115.748 28.324 115.178 27.339 114.029 26.5568C112.88 25.7746 111.113 24.8862 108.728 23.9012C106.96 23.1479 105.512 22.4719 104.382 21.8829C103.252 21.2938 102.277 20.5695 101.456 19.7197C100.635 18.8699 100.162 17.8656 100.027 16.7261L99.9785 16.0405C99.9785 14.7947 100.278 13.4814 100.867 12.0811C101.456 10.6905 102.489 9.47376 103.967 8.45013C105.444 7.4265 107.405 6.90503 109.867 6.90503C111.654 6.91469 113.286 7.16577 114.744 7.67758Z" fill="#422D22"/>
<path d="M132.941 8.39192H140.184V9.86943H132.816C132.748 10.5937 132.651 12.2161 132.516 14.7365C132.381 17.2569 132.323 19.8933 132.323 22.6455C132.323 25.2625 132.42 27.2905 132.622 28.71C132.816 30.1392 133.192 31.2015 133.752 31.9065C134.312 32.6114 135.153 33.0943 136.263 32.9591C138.851 32.6597 139.788 29.8978 139.952 29.3763C140.116 28.8549 140.193 28.5748 140.193 28.5459H141.178C141.15 28.5748 140.309 31.6747 138.745 32.9397C137.412 34.0213 135.867 34.4366 133.81 34.4366C131.193 34.4366 129.31 33.635 128.161 32.032C127.012 30.4289 126.442 28.2851 126.442 25.6005C126.442 25.1466 126.51 23.2732 126.635 19.9995C126.828 14.0026 126.935 10.6323 126.935 9.87908H122.512V8.39192C122.512 8.39192 126.925 8.39192 126.935 8.39192C126.935 8.39192 127.099 5.66868 126.674 3.47656C126.432 3.47656 133.81 3.47656 133.81 3.47656C133.231 4.90578 132.98 7.77388 132.941 8.39192Z" fill="#422D22"/>
<path d="M168.379 32.853C168.736 32.853 169.074 32.7951 169.383 32.6792C169.692 32.5633 169.895 32.4957 170.001 32.4571V33.4421C168.359 34.0601 166.824 34.3788 165.385 34.3788C163.811 34.3788 162.575 34.0311 161.677 33.3262C160.779 32.6212 160.277 31.8487 160.18 30.9892V30.9409C159.069 31.7907 157.727 32.5826 156.172 33.3262C154.618 34.0601 153.005 34.4271 151.334 34.4271C149.828 34.4271 148.389 34.0022 147.008 33.1524C145.637 32.3026 144.941 30.5933 144.941 28.0439C144.941 24.7702 146.12 22.5201 148.476 21.284C150.832 20.048 153.536 19.4396 156.578 19.4396C157.264 19.4396 158.326 19.5072 159.774 19.6327C159.774 18.4256 159.745 16.6391 159.678 14.2731C159.649 12.6025 159.562 11.3568 159.436 10.5359C159.301 9.71508 159.002 9.06807 158.529 8.59488C158.055 8.12169 157.293 7.88027 156.24 7.88027C155.091 7.88027 154.164 8.17963 153.468 8.7687C152.763 9.35777 152.242 10.0531 151.894 10.8546C151.547 11.6561 151.218 12.6508 150.89 13.8289C150.629 14.8429 150.378 15.5865 150.127 16.0597C149.886 16.5328 149.557 16.7743 149.171 16.7743C148.611 16.7743 148.012 16.3011 147.375 15.345C146.738 14.3987 146.197 13.404 145.753 12.3707C145.308 11.3374 145.038 10.6615 144.941 10.3331C148.775 8.04443 152.541 6.89526 156.24 6.89526C159.678 6.89526 162.179 7.7837 163.734 9.55091C165.288 11.3181 166.071 14.0414 166.071 17.711V29.5021C166.071 31.7425 166.834 32.853 168.379 32.853ZM160.122 30.0042C160.054 28.5653 159.958 25.4172 159.823 20.5694C158.673 20.3377 157.969 20.2121 157.708 20.1735C157.515 20.1445 157.167 20.1252 156.675 20.1252C155.139 20.1252 153.777 20.5405 152.599 21.3806C151.421 22.2208 150.832 23.7852 150.832 26.0739C150.832 27.9376 151.257 29.3862 152.107 30.4195C152.957 31.4528 154.009 31.9646 155.255 31.9646C156.636 31.9742 158.258 31.3176 160.122 30.0042Z" fill="#422D22"/>
<path d="M0 0H8.12145C6.07419 7.59032 5.77482 29.0576 6.30595 33.4805C6.30595 33.4805 13.2782 33.4805 15.5959 33.4805C16.803 33.4805 18.6958 32.8817 19.8642 32.0126C21.9212 30.4772 23.109 26.3054 23.36 25.9191C23.5532 25.6101 23.8525 25.4556 24.1133 25.4556C24.374 25.4556 24.5768 25.5521 24.7313 25.7549C24.8762 25.9481 24.9534 26.2281 24.9534 26.5951V34.4751H0C0 34.4655 1.45819 23.0993 0 0Z" fill="#422D22"/>
</svg>
